<?xml version="1.0" standalone="no"?>
<!DOCTYPE svg PUBLIC "-//W3C//DTD SVG 1.1//EN" "http://www.w3.org/Graphics/SVG/1.1/DTD/svg11.dtd" >
<svg xmlns="http://www.w3.org/2000/svg" xmlns:xlink="http://www.w3.org/1999/xlink" version="1.1">
<metadata></metadata>
<defs>
<font id="8pin_matrixregular" horiz-adv-x="1587" >
<font-face units-per-em="2048" ascent="1638" descent="-410" />
<missing-glyph horiz-adv-x="1024" />
<glyph horiz-adv-x="0" />
<glyph unicode="&#xd;" horiz-adv-x="1024" />
<glyph unicode=" "  horiz-adv-x="1024" />
<glyph unicode="&#x09;" horiz-adv-x="1024" />
<glyph unicode="&#xa0;" horiz-adv-x="1024" />
<glyph unicode="!" horiz-adv-x="593" d="M344 1501q-25 -27 -55 -26q-33 0 -57.5 26.5t-24.5 57.5q0 29 25.5 53t52.5 24v0q49 0 73 -45q25 -49 -14 -90zM344 1292q-25 -27 -55 -26q-33 0 -57.5 26.5t-24.5 57.5q0 29 25.5 53t52.5 24v0q49 0 73 -45q25 -49 -14 -90zM346 1083q-25 -27 -55 -26q-33 0 -57.5 26.5 t-24.5 57.5q0 29 25.5 53.5t52.5 24.5v0q49 0 73 -45q25 -50 -14 -91zM344 874q-25 -27 -55 -26q-33 0 -57.5 26.5t-24.5 57.5q0 29 25.5 53.5t52.5 24.5v0q49 0 73 -45q25 -50 -14 -91zM344 664q-25 -27 -55 -27q-33 0 -57.5 26.5t-24.5 59.5q0 27 24.5 51.5t53.5 24.5v0 q47 0 71 -47q27 -47 -12 -88zM344 453q-25 -27 -55 -27q-33 0 -57.5 26.5t-24.5 57.5q0 29 25.5 53.5t52.5 24.5v0q49 0 73 -45q25 -49 -14 -90zM344 242q-25 -27 -55 -27q-33 0 -57.5 26.5t-24.5 57.5q0 29 25.5 53.5t52.5 24.5v0q49 0 73 -45q25 -49 -14 -90zM344 -180 q-25 -27 -55 -27q-33 0 -57.5 26.5t-24.5 57.5q0 29 25.5 53.5t52.5 24.5v0q49 0 73 -45q25 -49 -14 -90z" />
<glyph unicode="&#x22;" horiz-adv-x="808" d="M135 1501q-25 -27 -55 -26q-33 0 -57.5 26.5t-24.5 57.5q0 29 25.5 53t52.5 24v0q49 0 74 -45q24 -49 -15 -90zM553 1499q-25 -27 -55 -26q-33 0 -57.5 26.5t-24.5 56.5q0 29 25.5 53.5t52.5 24.5v0q49 0 73 -45q25 -49 -14 -90zM135 1292q-25 -27 -55 -26 q-33 0 -57.5 26.5t-24.5 57.5q0 29 25.5 53t52.5 24v0q49 0 74 -45q24 -49 -15 -90zM553 1290q-25 -27 -55 -26q-33 0 -57.5 26.5t-24.5 57.5q0 29 25.5 53t52.5 24v0q49 0 73 -45q25 -49 -14 -90zM137 1083q-25 -27 -55 -26q-33 0 -57.5 26.5t-24.5 57.5q0 29 25.5 53.5 t52.5 24.5v0q49 0 74 -45q24 -50 -15 -91zM555 1081q-25 -27 -55 -26q-33 0 -57.5 26.5t-24.5 57.5q0 29 25.5 53.5t52.5 24.5v0q49 0 73 -46q25 -49 -14 -90z" />
<glyph unicode="#" horiz-adv-x="1966" d="M971 1499q-25 -27 -56 -26q-33 0 -57 26.5t-24 56.5q0 29 25.5 53.5t51.5 24.5v0q49 0 74 -45q25 -49 -14 -90zM553 1499q-25 -27 -55 -26q-33 0 -57.5 26.5t-24.5 56.5q0 29 25.5 53.5t52.5 24.5v0q49 0 73 -45q25 -49 -14 -90zM971 1290q-25 -27 -56 -26 q-33 0 -57 26.5t-24 57.5q0 29 25.5 53t51.5 24v0q49 0 74 -45q25 -49 -14 -90zM553 1290q-25 -27 -55 -26q-33 0 -57.5 26.5t-24.5 57.5q0 29 25.5 53t52.5 24v0q49 0 73 -45q25 -49 -14 -90zM346 1083q-25 -27 -55 -26q-33 0 -57.5 26.5t-24.5 57.5q0 29 25.5 53.5 t52.5 24.5v0q49 0 73 -45q25 -50 -14 -91zM137 1083q-25 -27 -55 -26q-33 0 -57.5 26.5t-24.5 57.5q0 29 25.5 53.5t52.5 24.5v0q49 0 74 -45q24 -50 -15 -91zM1182 1081q-25 -27 -56 -26q-33 0 -57.5 26.5t-24.5 57.5q0 29 26 53.5t52 24.5v0q49 0 74 -46q25 -49 -14 -90z M973 1081q-25 -27 -55 -26q-33 0 -57.5 26.5t-24.5 57.5q0 29 25.5 53.5t51.5 24.5v0q49 0 74 -46q25 -49 -14 -90zM764 1081q-25 -27 -55 -26q-33 0 -57.5 26.5t-24.5 57.5q0 29 25.5 53.5t52.5 24.5v0q49 0 73 -46q25 -49 -14 -90zM555 1081q-25 -27 -55 -26 q-33 0 -57.5 26.5t-24.5 57.5q0 29 25.5 53.5t52.5 24.5v0q49 0 73 -46q25 -49 -14 -90zM1391 1079q-25 -27 -56 -26q-33 0 -57.5 26.5t-24.5 57.5q0 29 26 53t52 24v0q49 0 74 -45q25 -49 -14 -90zM971 872q-25 -27 -56 -26q-33 0 -57 26.5t-24 57.5q0 29 25.5 53.5 t51.5 24.5v0q49 0 74 -45q25 -50 -14 -91zM553 872q-25 -27 -55 -26q-33 0 -57.5 26.5t-24.5 57.5q0 29 25.5 53.5t52.5 24.5v0q49 0 73 -45q25 -50 -14 -91zM344 664q-25 -27 -55 -27q-33 0 -57.5 26.5t-24.5 59.5q0 27 24.5 51.5t53.5 24.5v0q47 0 71 -47q27 -47 -12 -88z M135 664q-25 -27 -55 -27q-33 0 -57.5 26.5t-24.5 59.5q0 27 24.5 51.5t53.5 24.5v0q47 0 71 -47q27 -47 -12 -88zM1180 662q-25 -27 -56 -27q-33 0 -57.5 26.5t-24.5 59.5q0 27 25 51.5t53 24.5v0q47 0 72 -47q27 -47 -12 -88zM971 662q-25 -27 -56 -27q-33 0 -57 26.5 t-24 59.5q0 27 24.5 51.5t52.5 24.5v0q47 0 72 -47q27 -47 -12 -88zM762 662q-25 -27 -55 -27q-33 0 -57.5 26.5t-24.5 59.5q0 27 24.5 51.5t52.5 24.5v0q47 0 72 -47q27 -47 -12 -88zM553 662q-25 -27 -55 -27q-33 0 -57.5 26.5t-24.5 59.5q0 27 24.5 51.5t53.5 24.5v0 q47 0 71 -47q27 -47 -12 -88zM1389 659q-25 -27 -56 -26q-33 0 -57.5 26.5t-24.5 59.5q0 27 24.5 51.5t53.5 24.5v0q47 0 72 -47q27 -48 -12 -89zM971 451q-25 -27 -56 -27q-33 0 -57 26.5t-24 57.5q0 29 25.5 53.5t51.5 24.5v0q49 0 74 -45q25 -49 -14 -90zM553 451 q-25 -27 -55 -27q-33 0 -57.5 26.5t-24.5 57.5q0 29 25.5 53.5t52.5 24.5v0q49 0 73 -45q25 -49 -14 -90zM971 240q-25 -27 -56 -27q-33 0 -57 26.5t-24 57.5q0 29 25.5 53.5t51.5 24.5v0q49 0 74 -45q25 -49 -14 -90zM553 240q-25 -27 -55 -27q-33 0 -57.5 26.5t-24.5 57.5 q0 29 25.5 53.5t52.5 24.5v0q49 0 73 -45q25 -49 -14 -90z" />
<glyph unicode="$" d="M762 1581q23 -25 22 -53v0q0 -49 -49 -74t-88 16q-23 25 -22 54v0q0 51 47 73q51 27 90 -16zM770 1372q23 -25 23 -53v0q0 -49 -50 -74q-49 -25 -88 17q-23 25 -22 53v0q0 51 47 74q51 26 90 -17zM991 1366q23 -25 23 -53v0q0 -49 -49 -74t-88 16q-23 25 -23 54v0 q0 51 47 73q51 27 90 -16zM1200 1364q23 -25 23 -53v0q0 -49 -49 -74t-89 16q-23 25 -22 54v0q0 51 47 73q51 27 90 -16zM553 1356q23 -25 22 -53v0q0 -49 -49 -74t-88 16q-23 25 -22 53v0q0 51 47 74q51 27 90 -16zM344 1356q23 -25 23 -53v0q0 -49 -50 -74q-49 -25 -88 16 q-23 25 -22 53v0q0 51 47 74q51 27 90 -16zM770 1161q23 -25 23 -53v0q0 -49 -50 -74q-49 -25 -88 17q-23 25 -22 53v0q0 51 47 74q51 26 90 -17zM1399 1153q23 -25 22 -53v0q0 -49 -49 -74t-88 16q-23 25 -22 54v0q0 51 47 73q51 27 90 -16zM135 1137q23 -25 23 -54v0 q0 -49 -49 -73q-49 -25 -89 16q-23 25 -22 53v0q0 51 47 74q51 27 90 -16zM762 948q23 -25 22 -53v0q0 -49 -47 -74t-88 17q-25 25 -24 55v0q0 49 47 74q51 24 90 -19zM135 926q23 -25 23 -54v0q0 -49 -49 -73q-49 -25 -89 16q-23 25 -22 53v0q0 51 47 74q51 27 90 -16z M971 754q23 -25 22 -54v0q0 -49 -47 -73q-47 -25 -88 16q-25 25 -24 55v0q0 49 47 74q51 25 90 -18zM770 748q23 -25 23 -54v0q0 -49 -50 -73q-49 -25 -88 16q-23 25 -22 53v0q0 51 47 74q51 27 90 -16zM543 743q23 -25 22 -53v0q0 -49 -47 -74t-88 17q-25 25 -24 55v0 q0 49 47 74q51 24 90 -19zM334 743q23 -25 22 -53v0q0 -49 -47 -74t-88 17q-25 25 -24 55v0q0 49 47 74q51 24 90 -19zM1180 735q23 -25 22 -53v0q0 -49 -49 -74t-88 17q-23 25 -23 53v0q0 51 48 74q51 26 90 -17zM770 537q23 -25 23 -54v0q0 -49 -50 -73q-49 -25 -88 16 q-23 25 -22 53v0q0 51 47 74q51 27 90 -16zM1386 526q23 -25 23 -53v0q0 -49 -49 -74t-88 17q-23 25 -23 53v0q0 51 47 74q51 26 90 -17zM760 322q23 -25 22 -54v0q0 -49 -49 -73q-49 -25 -88 16q-23 25 -22 53v0q0 51 47 74q51 27 90 -16zM135 322q23 -25 23 -54v0 q0 -49 -49 -73q-49 -25 -89 16q-23 25 -22 53v0q0 51 47 74q51 27 90 -16zM1389 317q23 -25 22 -53v0q0 -49 -49 -74t-88 17q-23 25 -23 53v0q0 51 47 74q52 26 91 -17zM971 111q23 -25 22 -54v0q0 -49 -49 -73q-49 -25 -88 16q-23 25 -22 53v0q0 51 47 74q51 27 90 -16z M762 111q23 -25 22 -54v0q0 -49 -49 -73q-49 -25 -88 16q-23 25 -22 53v0q0 51 47 74q51 27 90 -16zM553 111q23 -25 22 -54v0q0 -49 -49 -73q-49 -25 -88 16q-23 25 -22 53v0q0 51 47 74q51 27 90 -16zM344 111q23 -25 23 -54v0q0 -49 -50 -73q-49 -25 -88 16 q-23 25 -22 53v0q0 51 47 74q51 27 90 -16zM1180 109q23 -25 22 -54v0q0 -49 -49 -73q-49 -25 -88 16q-23 25 -23 53v0q0 51 48 74q51 27 90 -16z" />
<glyph unicode="%" d="M344 1292q-25 -27 -55 -26q-33 0 -57.5 26.5t-24.5 57.5q0 29 25.5 53t52.5 24v0q49 0 73 -45q25 -49 -14 -90zM1389 1288q-25 -27 -56 -26q-33 0 -57.5 26.5t-24.5 57.5q0 29 26 53t52 24v0q49 0 74 -45q25 -49 -14 -90zM137 1083q-25 -27 -55 -26q-33 0 -57.5 26.5 t-24.5 57.5q0 29 25.5 53.5t52.5 24.5v0q49 0 74 -45q24 -50 -15 -91zM1182 1081q-25 -27 -56 -26q-33 0 -57.5 26.5t-24.5 57.5q0 29 26 53.5t52 24.5v0q49 0 74 -46q25 -49 -14 -90zM555 1081q-25 -27 -55 -26q-33 0 -57.5 26.5t-24.5 57.5q0 29 25.5 53.5t52.5 24.5v0 q49 0 73 -46q25 -49 -14 -90zM344 874q-25 -27 -55 -26q-33 0 -57.5 26.5t-24.5 57.5q0 29 25.5 53.5t52.5 24.5v0q49 0 73 -45q25 -50 -14 -91zM971 872q-25 -27 -56 -26q-33 0 -57 26.5t-24 57.5q0 29 25.5 53.5t51.5 24.5v0q49 0 74 -45q25 -50 -14 -91zM762 662 q-25 -27 -55 -27q-33 0 -57.5 26.5t-24.5 59.5q0 27 24.5 51.5t52.5 24.5v0q47 0 72 -47q27 -47 -12 -88zM1180 451q-25 -27 -56 -27q-33 0 -57.5 26.5t-24.5 57.5q0 29 26 53.5t52 24.5v0q49 0 74 -45q25 -49 -14 -90zM553 451q-25 -27 -55 -27q-33 0 -57.5 26.5 t-24.5 57.5q0 29 25.5 53.5t52.5 24.5v0q49 0 73 -45q25 -49 -14 -90zM344 242q-25 -27 -55 -27q-33 0 -57.5 26.5t-24.5 57.5q0 29 25.5 53.5t52.5 24.5v0q49 0 73 -45q25 -49 -14 -90zM971 240q-25 -27 -56 -27q-33 0 -57 26.5t-24 57.5q0 29 25.5 53.5t51.5 24.5v0 q49 0 74 -45q25 -49 -14 -90zM1389 238q-25 -27 -56 -27q-33 0 -57.5 26.5t-24.5 57.5q0 29 26 53.5t52 24.5v0q49 0 74 -45q25 -49 -14 -90zM135 31q-25 -27 -55 -27q-33 0 -57.5 26.5t-24.5 57.5q0 29 25.5 53.5t52.5 24.5v0q49 0 74 -45q24 -49 -15 -90zM1180 29 q-25 -27 -56 -27q-33 0 -57.5 26.5t-24.5 57.5q0 29 26 53.5t52 24.5v0q49 0 74 -45q25 -49 -14 -90z" />
<glyph unicode="&#x26;" d="M344 1501q-25 -27 -55 -26q-33 0 -57.5 26.5t-24.5 57.5q0 29 25.5 53t52.5 24v0q49 0 73 -45q25 -49 -14 -90zM971 1499q-25 -27 -56 -26q-33 0 -57 26.5t-24 56.5q0 29 25.5 53.5t51.5 24.5v0q49 0 74 -45q25 -49 -14 -90zM762 1499q-25 -27 -55 -26q-33 0 -57.5 26.5 t-24.5 56.5q0 29 25.5 53.5t51.5 24.5v0q49 0 74 -45q25 -49 -14 -90zM553 1499q-25 -27 -55 -26q-33 0 -57.5 26.5t-24.5 56.5q0 29 25.5 53.5t52.5 24.5v0q49 0 73 -45q25 -49 -14 -90zM135 1292q-25 -27 -55 -26q-33 0 -57.5 26.5t-24.5 57.5q0 29 25.5 53t52.5 24v0 q49 0 74 -45q24 -49 -15 -90zM1180 1290q-25 -27 -56 -26q-33 0 -57.5 26.5t-24.5 57.5q0 29 26 53t52 24v0q49 0 74 -45q25 -49 -14 -90zM137 1083q-25 -27 -55 -26q-33 0 -57.5 26.5t-24.5 57.5q0 29 25.5 53.5t52.5 24.5v0q49 0 74 -45q24 -50 -15 -91zM1182 1081 q-25 -27 -56 -26q-33 0 -57.5 26.5t-24.5 57.5q0 29 26 53.5t52 24.5v0q49 0 74 -46q25 -49 -14 -90zM344 874q-25 -27 -55 -26q-33 0 -57.5 26.5t-24.5 57.5q0 29 25.5 53.5t52.5 24.5v0q49 0 73 -45q25 -50 -14 -91zM971 872q-25 -27 -56 -26q-33 0 -57 26.5t-24 57.5 q0 29 25.5 53.5t51.5 24.5v0q49 0 74 -45q25 -50 -14 -91zM762 872q-25 -27 -55 -26q-33 0 -57.5 26.5t-24.5 57.5q0 29 25.5 53.5t51.5 24.5v0q49 0 74 -45q25 -50 -14 -91zM344 664q-25 -27 -55 -27q-33 0 -57.5 26.5t-24.5 59.5q0 27 24.5 51.5t53.5 24.5v0q47 0 71 -47 q27 -47 -12 -88zM1180 662q-25 -27 -56 -27q-33 0 -57.5 26.5t-24.5 59.5q0 27 25 51.5t53 24.5v0q47 0 72 -47q27 -47 -12 -88zM553 662q-25 -27 -55 -27q-33 0 -57.5 26.5t-24.5 59.5q0 27 24.5 51.5t53.5 24.5v0q47 0 71 -47q27 -47 -12 -88zM1389 659q-25 -27 -56 -26 q-33 0 -57.5 26.5t-24.5 59.5q0 27 24.5 51.5t53.5 24.5v0q47 0 72 -47q27 -48 -12 -89zM971 451q-25 -27 -56 -27q-33 0 -57 26.5t-24 57.5q0 29 25.5 53.5t51.5 24.5v0q49 0 74 -45q25 -49 -14 -90zM762 451q-25 -27 -55 -27q-33 0 -57.5 26.5t-24.5 57.5q0 29 25.5 53.5 t51.5 24.5v0q49 0 74 -45q25 -49 -14 -90zM135 453q-20 -29 -53 -29q-31 0 -58.5 27.5t-27.5 62.5q0 23 21.5 45.5t48.5 22.5v0q45 0 71 -45q29 -45 -2 -84zM135 242q-25 -27 -55 -27q-33 0 -57.5 26.5t-24.5 57.5q0 29 25.5 53.5t52.5 24.5v0q49 0 74 -45q24 -49 -15 -90z M971 240q-25 -27 -56 -27q-33 0 -57 26.5t-24 57.5q0 29 25.5 53.5t51.5 24.5v0q49 0 74 -45q25 -49 -14 -90zM344 31q-25 -27 -55 -27q-33 0 -57.5 26.5t-24.5 57.5q0 29 25.5 53.5t52.5 24.5v0q49 0 73 -45q25 -49 -14 -90zM1180 29q-25 -27 -56 -27q-33 0 -57.5 26.5 t-24.5 57.5q0 29 26 53.5t52 24.5v0q49 0 74 -45q25 -49 -14 -90zM762 29q-25 -27 -55 -27q-33 0 -57.5 26.5t-24.5 57.5q0 29 25.5 53.5t51.5 24.5v0q49 0 74 -45q25 -49 -14 -90zM553 29q-25 -27 -55 -27q-33 0 -57.5 26.5t-24.5 57.5q0 29 25.5 53.5t52.5 24.5v0 q49 0 73 -45q25 -49 -14 -90zM1389 27q-25 -27 -56 -27q-33 0 -57.5 26.5t-24.5 57.5q0 29 26 53.5t52 24.5v0q49 0 74 -45q25 -49 -14 -90z" />
<glyph unicode="'" horiz-adv-x="337" d="M135 1501q-25 -27 -55 -26q-33 0 -57.5 26.5t-24.5 57.5q0 29 25.5 53t52.5 24v0q49 0 74 -45q24 -49 -15 -90zM135 1292q-25 -27 -55 -26q-33 0 -57.5 26.5t-24.5 57.5q0 29 25.5 53t52.5 24v0q49 0 74 -45q24 -49 -15 -90z" />
<glyph unicode="(" horiz-adv-x="757" d="M553 1499q-25 -27 -55 -26q-33 0 -57.5 26.5t-24.5 56.5q0 29 25.5 53.5t52.5 24.5v0q49 0 73 -45q25 -49 -14 -90zM344 1292q-25 -27 -55 -26q-33 0 -57.5 26.5t-24.5 57.5q0 29 25.5 53t52.5 24v0q49 0 73 -45q25 -49 -14 -90zM137 1083q-25 -27 -55 -26 q-33 0 -57.5 26.5t-24.5 57.5q0 29 25.5 53.5t52.5 24.5v0q49 0 74 -45q24 -50 -15 -91zM135 874q-25 -27 -55 -26q-33 0 -57.5 26.5t-24.5 57.5q0 29 25.5 53.5t52.5 24.5v0q49 0 74 -45q24 -50 -15 -91zM135 664q-25 -27 -55 -27q-33 0 -57.5 26.5t-24.5 59.5 q0 27 24.5 51.5t53.5 24.5v0q47 0 71 -47q27 -47 -12 -88zM135 453q-25 -27 -55 -27q-33 0 -57.5 26.5t-24.5 57.5q0 29 25.5 53.5t52.5 24.5v0q49 0 74 -45q24 -49 -15 -90zM344 242q-25 -27 -55 -27q-33 0 -57.5 26.5t-24.5 57.5q0 29 25.5 53.5t52.5 24.5v0q49 0 73 -45 q25 -49 -14 -90zM553 29q-25 -27 -55 -27q-33 0 -57.5 26.5t-24.5 57.5q0 29 25.5 53.5t52.5 24.5v0q49 0 73 -45q25 -49 -14 -90z" />
<glyph unicode=")" horiz-adv-x="757" d="M172 1499q-25 -27 -55 -26q-33 0 -57.5 25.5t-24.5 57.5q0 27 24.5 52.5t53.5 25.5v0q47 0 73 -45q25 -47 -14 -90zM381 1292q-25 -27 -55 -26q-33 0 -57.5 25.5t-24.5 58.5q0 27 24.5 52t53.5 25v0q47 0 73 -45q25 -47 -14 -90zM588 1083q-25 -27 -56 -26 q-33 0 -57 25.5t-24 58.5q0 27 24.5 52.5t52.5 25.5v0q47 0 74 -45q25 -48 -14 -91zM590 874q-25 -27 -55 -26q-33 0 -57.5 25.5t-24.5 58.5q0 27 24.5 52.5t52.5 25.5v0q47 0 74 -45q25 -48 -14 -91zM590 664q-25 -27 -55 -27q-33 0 -57.5 25.5t-24.5 56.5q0 29 25.5 54.5 t53.5 25.5v0q47 0 72 -47t-14 -88zM590 453q-25 -27 -55 -27q-33 0 -57.5 25.5t-24.5 58.5q0 27 24.5 52.5t52.5 25.5v0q47 0 74 -45q25 -47 -14 -90zM381 242q-25 -27 -55 -27q-33 0 -57.5 25.5t-24.5 58.5q0 27 24.5 52.5t53.5 25.5v0q47 0 73 -45q25 -47 -14 -90zM172 29 q-25 -27 -55 -27q-33 0 -57.5 25.5t-24.5 58.5q0 27 24.5 52.5t53.5 25.5v0q47 0 73 -45q25 -47 -14 -90z" />
<glyph unicode="*" horiz-adv-x="1208" d="M201 1212q-25 -27 -56 -26q-33 0 -57.5 26.5t-24.5 57.5q0 29 26 53.5t52 24.5v0q49 0 74 -45q25 -50 -14 -91zM1036 1210q-25 -27 -55 -26q-33 0 -57.5 26.5t-24.5 57.5q0 29 25.5 53.5t52.5 24.5v0q49 0 74 -46q24 -49 -15 -90zM618 1210q-25 -27 -55 -26 q-33 0 -57.5 26.5t-24.5 57.5q0 29 25.5 53.5t52.5 24.5v0q49 0 74 -46q24 -49 -15 -90zM827 999q-25 -27 -55 -26q-33 0 -57.5 26.5t-24.5 59.5q0 27 24.5 51.5t53.5 24.5v0q47 0 72 -48q26 -47 -13 -88zM618 999q-25 -27 -55 -26q-33 0 -57.5 26.5t-24.5 59.5 q0 27 24.5 51.5t53.5 24.5v0q47 0 72 -48q26 -47 -13 -88zM410 999q-25 -27 -56 -26q-33 0 -57.5 26.5t-24.5 59.5q0 27 25 51.5t53 24.5v0q47 0 72 -48q27 -47 -12 -88zM201 791q-25 -27 -56 -27q-33 0 -57.5 26.5t-24.5 57.5q0 29 26 53.5t52 24.5v0q49 0 74 -45 q25 -49 -14 -90zM1036 788q-25 -27 -55 -26q-33 0 -57.5 26.5t-24.5 57.5q0 29 25.5 53.5t52.5 24.5v0q49 0 74 -45q24 -50 -15 -91zM827 788q-25 -27 -55 -26q-33 0 -57.5 26.5t-24.5 57.5q0 29 25.5 53.5t52.5 24.5v0q49 0 74 -45q24 -50 -15 -91zM410 788 q-25 -27 -56 -26q-33 0 -57.5 26.5t-24.5 57.5q0 29 26 53.5t52 24.5v0q49 0 74 -45q25 -50 -14 -91zM827 578q-25 -27 -55 -27q-33 0 -57.5 26.5t-24.5 57.5q0 29 25.5 53.5t52.5 24.5v0q49 0 74 -45q24 -49 -15 -90zM618 578q-25 -27 -55 -27q-33 0 -57.5 26.5t-24.5 57.5 q0 29 25.5 53.5t52.5 24.5v0q49 0 74 -45q24 -49 -15 -90zM410 578q-25 -27 -56 -27q-33 0 -57.5 26.5t-24.5 57.5q0 29 26 53.5t52 24.5v0q49 0 74 -45q25 -49 -14 -90zM201 369q-25 -27 -56 -27q-33 0 -57.5 26.5t-24.5 57.5q0 29 26 53.5t52 24.5v0q49 0 74 -45 q25 -49 -14 -90zM1036 367q-25 -27 -55 -27q-33 0 -57.5 26.5t-24.5 57.5q0 29 25.5 53.5t52.5 24.5v0q49 0 74 -45q24 -49 -15 -90zM618 367q-25 -27 -55 -27q-33 0 -57.5 26.5t-24.5 57.5q0 29 25.5 53.5t52.5 24.5v0q49 0 74 -45q24 -49 -15 -90z" />
<glyph unicode="+" horiz-adv-x="1218" d="M612 1008q-25 -23 -53 -23q-33 0 -57.5 25.5t-24.5 56.5q0 29 25.5 53.5t52.5 24.5v0q51 0 74 -47q26 -51 -17 -90zM612 799q-25 -23 -53 -23q-33 0 -57.5 25.5t-24.5 56.5q0 29 25.5 53.5t52.5 24.5v0q51 0 74 -47q26 -51 -17 -90zM406 584q-25 -27 -56 -27 q-33 0 -57.5 26.5t-24.5 57.5q0 29 25.5 53.5t52.5 24.5v0q49 0 74 -45q25 -49 -14 -90zM197 584q-25 -27 -56 -27q-33 0 -57.5 26.5t-24.5 57.5q0 29 26 53.5t52 24.5v0q49 0 74 -45q25 -49 -14 -90zM1032 582q-25 -27 -55 -27q-33 0 -57.5 26.5t-24.5 57.5q0 29 25.5 53.5 t52.5 24.5v0q49 0 74 -45q24 -49 -15 -90zM823 582q-25 -27 -55 -27q-33 0 -57.5 26.5t-24.5 57.5q0 29 25.5 53.5t52.5 24.5v0q49 0 74 -45q24 -49 -15 -90zM614 582q-25 -27 -55 -27q-33 0 -57.5 26.5t-24.5 57.5q0 29 25.5 53.5t52.5 24.5v0q49 0 74 -45q24 -49 -15 -90z M610 381q-25 -23 -53 -23q-33 0 -57.5 26t-24.5 56q0 29 25.5 53.5t52.5 24.5v0q51 0 74 -47q26 -51 -17 -90zM610 172q-25 -23 -53 -22q-33 0 -57.5 25.5t-24.5 55.5q0 29 25.5 53.5t52.5 24.5v0q51 0 74 -47q26 -51 -17 -90z" />
<glyph unicode="," horiz-adv-x="522" d="M399 31q-25 -27 -55 -27q-33 0 -57.5 26.5t-24.5 57.5q0 29 25.5 53.5t52.5 24.5v0q49 0 74 -45q24 -49 -15 -90zM190 -178q-25 -27 -55 -27q-33 0 -57.5 26.5t-24.5 57.5q0 29 25.5 53.5t52.5 24.5v0q49 0 74 -45q24 -49 -15 -90z" />
<glyph unicode="-" horiz-adv-x="1218" d="M406 584q-25 -27 -56 -27q-33 0 -57.5 26.5t-24.5 57.5q0 29 25.5 53.5t52.5 24.5v0q49 0 74 -45q25 -49 -14 -90zM197 584q-25 -27 -56 -27q-33 0 -57.5 26.5t-24.5 57.5q0 29 26 53.5t52 24.5v0q49 0 74 -45q25 -49 -14 -90zM1032 582q-25 -27 -55 -27 q-33 0 -57.5 26.5t-24.5 57.5q0 29 25.5 53.5t52.5 24.5v0q49 0 74 -45q24 -49 -15 -90zM823 582q-25 -27 -55 -27q-33 0 -57.5 26.5t-24.5 57.5q0 29 25.5 53.5t52.5 24.5v0q49 0 74 -45q24 -49 -15 -90zM614 582q-25 -27 -55 -27q-33 0 -57.5 26.5t-24.5 57.5 q0 29 25.5 53.5t52.5 24.5v0q49 0 74 -45q24 -49 -15 -90z" />
<glyph unicode="." horiz-adv-x="307" d="M190 -178q-25 -27 -55 -27q-33 0 -57.5 26.5t-24.5 57.5q0 29 25.5 53.5t52.5 24.5v0q49 0 74 -45q24 -49 -15 -90z" />
<glyph unicode="/" d="M1389 1288q-25 -27 -56 -26q-33 0 -57.5 26.5t-24.5 57.5q0 29 26 53t52 24v0q49 0 74 -45q25 -49 -14 -90zM1182 1081q-25 -27 -56 -26q-33 0 -57.5 26.5t-24.5 57.5q0 29 26 53.5t52 24.5v0q49 0 74 -46q25 -49 -14 -90zM971 872q-25 -27 -56 -26q-33 0 -57 26.5 t-24 57.5q0 29 25.5 53.5t51.5 24.5v0q49 0 74 -45q25 -50 -14 -91zM762 662q-25 -27 -55 -27q-33 0 -57.5 26.5t-24.5 59.5q0 27 24.5 51.5t52.5 24.5v0q47 0 72 -47q27 -47 -12 -88zM553 451q-25 -27 -55 -27q-33 0 -57.5 26.5t-24.5 57.5q0 29 25.5 53.5t52.5 24.5v0 q49 0 73 -45q25 -49 -14 -90zM344 242q-25 -27 -55 -27q-33 0 -57.5 26.5t-24.5 57.5q0 29 25.5 53.5t52.5 24.5v0q49 0 73 -45q25 -49 -14 -90zM135 31q-25 -27 -55 -27q-33 0 -57.5 26.5t-24.5 57.5q0 29 25.5 53.5t52.5 24.5v0q49 0 74 -45q24 -49 -15 -90z" />
<glyph unicode="0" horiz-adv-x="1556" d="M344 1501q-25 -27 -55 -26q-33 0 -57.5 26.5t-24.5 57.5q0 29 25.5 53t52.5 24v0q49 0 73 -45q25 -49 -14 -90zM1180 1499q-25 -27 -56 -26q-33 0 -57.5 26.5t-24.5 56.5q0 29 26 53.5t52 24.5v0q49 0 74 -45q25 -49 -14 -90zM971 1499q-25 -27 -56 -26q-33 0 -57 26.5 t-24 56.5q0 29 25.5 53.5t51.5 24.5v0q49 0 74 -45q25 -49 -14 -90zM762 1499q-25 -27 -55 -26q-33 0 -57.5 26.5t-24.5 56.5q0 29 25.5 53.5t51.5 24.5v0q49 0 74 -45q25 -49 -14 -90zM553 1499q-25 -27 -55 -26q-33 0 -57.5 26.5t-24.5 56.5q0 29 25.5 53.5t52.5 24.5v0 q49 0 73 -45q25 -49 -14 -90zM135 1292q-25 -27 -55 -26q-33 0 -57.5 26.5t-24.5 57.5q0 29 25.5 53t52.5 24v0q49 0 74 -45q24 -49 -15 -90zM1389 1288q-25 -27 -56 -26q-33 0 -57.5 26.5t-24.5 57.5q0 29 26 53t52 24v0q49 0 74 -45q25 -49 -14 -90zM137 1083 q-25 -27 -55 -26q-33 0 -57.5 26.5t-24.5 57.5q0 29 25.5 53.5t52.5 24.5v0q49 0 74 -45q24 -50 -15 -91zM1182 1081q-25 -27 -56 -26q-33 0 -57.5 26.5t-24.5 57.5q0 29 26 53.5t52 24.5v0q49 0 74 -46q25 -49 -14 -90zM1391 1079q-25 -27 -56 -26q-33 0 -57.5 26.5 t-24.5 57.5q0 29 26 53t52 24v0q49 0 74 -45q25 -49 -14 -90zM135 874q-25 -27 -55 -26q-33 0 -57.5 26.5t-24.5 57.5q0 29 25.5 53.5t52.5 24.5v0q49 0 74 -45q24 -50 -15 -91zM971 872q-25 -27 -56 -26q-33 0 -57 26.5t-24 57.5q0 29 25.5 53.5t51.5 24.5v0q49 0 74 -45 q25 -50 -14 -91zM1389 870q-25 -27 -56 -26q-33 0 -57.5 26.5t-24.5 57.5q0 29 26 53.5t52 24.5v0q49 0 74 -45q25 -50 -14 -91zM135 664q-25 -27 -55 -27q-33 0 -57.5 26.5t-24.5 59.5q0 27 24.5 51.5t53.5 24.5v0q47 0 71 -47q27 -47 -12 -88zM762 662q-25 -27 -55 -27 q-33 0 -57.5 26.5t-24.5 59.5q0 27 24.5 51.5t52.5 24.5v0q47 0 72 -47q27 -47 -12 -88zM1389 659q-25 -27 -56 -26q-33 0 -57.5 26.5t-24.5 59.5q0 27 24.5 51.5t53.5 24.5v0q47 0 72 -47q27 -48 -12 -89zM135 453q-25 -27 -55 -27q-33 0 -57.5 26.5t-24.5 57.5 q0 29 25.5 53.5t52.5 24.5v0q49 0 74 -45q24 -49 -15 -90zM553 451q-25 -27 -55 -27q-33 0 -57.5 26.5t-24.5 57.5q0 29 25.5 53.5t52.5 24.5v0q49 0 73 -45q25 -49 -14 -90zM1389 449q-25 -27 -56 -27q-33 0 -57.5 26.5t-24.5 57.5q0 29 26 53.5t52 24.5v0q49 0 74 -45 q25 -49 -14 -90zM344 242q-25 -27 -55 -27q-33 0 -57.5 26.5t-24.5 57.5q0 29 25.5 53.5t52.5 24.5v0q49 0 73 -45q25 -49 -14 -90zM135 242q-25 -27 -55 -27q-33 0 -57.5 26.5t-24.5 57.5q0 29 25.5 53.5t52.5 24.5v0q49 0 74 -45q24 -49 -15 -90zM1389 238 q-25 -27 -56 -27q-33 0 -57.5 26.5t-24.5 57.5q0 29 26 53.5t52 24.5v0q49 0 74 -45q25 -49 -14 -90zM344 31q-25 -27 -55 -27q-33 0 -57.5 26.5t-24.5 57.5q0 29 25.5 53.5t52.5 24.5v0q49 0 73 -45q25 -49 -14 -90zM1180 29q-25 -27 -56 -27q-33 0 -57.5 26.5t-24.5 57.5 q0 29 26 53.5t52 24.5v0q49 0 74 -45q25 -49 -14 -90zM971 29q-25 -27 -56 -27q-33 0 -57 26.5t-24 57.5q0 29 25.5 53.5t51.5 24.5v0q49 0 74 -45q25 -49 -14 -90zM762 29q-25 -27 -55 -27q-33 0 -57.5 26.5t-24.5 57.5q0 29 25.5 53.5t51.5 24.5v0q49 0 74 -45 q25 -49 -14 -90zM553 29q-25 -27 -55 -27q-33 0 -57.5 26.5t-24.5 57.5q0 29 25.5 53.5t52.5 24.5v0q49 0 73 -45q25 -49 -14 -90z" />
<glyph unicode="1" horiz-adv-x="798" d="M190 1522q-25 -27 -55 -27q-33 0 -57.5 26.5t-24.5 57.5q0 29 25.5 53.5t52.5 24.5v0q49 0 74 -45q24 -49 -15 -90zM399 1520q-25 -27 -55 -27q-33 0 -57.5 26.5t-24.5 57.5q0 29 25.5 53.5t52.5 24.5v0q49 0 74 -45q24 -49 -15 -90zM399 1311q-25 -27 -55 -27 q-33 0 -57.5 26.5t-24.5 57.5q0 29 25.5 53.5t52.5 24.5v0q49 0 74 -45q24 -49 -15 -90zM401 1102q-25 -27 -55 -27q-33 0 -57.5 26.5t-24.5 57.5q0 29 25.5 53.5t52.5 24.5v0q49 0 74 -45q24 -49 -15 -90zM399 893q-25 -27 -55 -27q-33 0 -57.5 27t-24.5 57q0 29 25.5 53.5 t52.5 24.5v0q49 0 74 -45q24 -49 -15 -90zM399 682q-25 -27 -55 -27q-33 0 -57.5 27t-24.5 59q0 27 24.5 51.5t53.5 24.5v0q47 0 72 -47q26 -47 -13 -88zM399 471q-25 -27 -55 -27q-33 0 -57.5 27t-24.5 57q0 29 25.5 53.5t52.5 24.5v0q49 0 74 -45q24 -49 -15 -90zM399 260 q-25 -27 -55 -27q-33 0 -57.5 27t-24.5 57q0 29 25.5 53.5t52.5 24.5v0q49 0 74 -45q24 -49 -15 -90zM190 51q-25 -27 -55 -26q-33 0 -57.5 26.5t-24.5 57.5q0 29 25.5 53t52.5 24v0q49 0 74 -45q24 -49 -15 -90zM608 49q-25 -27 -55 -26q-33 0 -57.5 26.5t-24.5 56.5 q0 29 25.5 53.5t52.5 24.5v0q49 0 74 -45q24 -49 -15 -90zM399 49q-25 -27 -55 -26q-33 0 -57.5 26.5t-24.5 56.5q0 29 25.5 53.5t52.5 24.5v0q49 0 74 -45q24 -49 -15 -90z" />
<glyph unicode="2" horiz-adv-x="1566" d="M344 1501q-25 -27 -55 -26q-33 0 -57.5 26.5t-24.5 57.5q0 29 25.5 53t52.5 24v0q49 0 73 -45q25 -49 -14 -90zM1180 1499q-25 -27 -56 -26q-33 0 -57.5 26.5t-24.5 56.5q0 29 26 53.5t52 24.5v0q49 0 74 -45q25 -49 -14 -90zM971 1499q-25 -27 -56 -26q-33 0 -57 26.5 t-24 56.5q0 29 25.5 53.5t51.5 24.5v0q49 0 74 -45q25 -49 -14 -90zM762 1499q-25 -27 -55 -26q-33 0 -57.5 26.5t-24.5 56.5q0 29 25.5 53.5t51.5 24.5v0q49 0 74 -45q25 -49 -14 -90zM553 1499q-25 -27 -55 -26q-33 0 -57.5 26.5t-24.5 56.5q0 29 25.5 53.5t52.5 24.5v0 q49 0 73 -45q25 -49 -14 -90zM135 1292q-25 -27 -55 -26q-33 0 -57.5 26.5t-24.5 57.5q0 29 25.5 53t52.5 24v0q49 0 74 -45q24 -49 -15 -90zM1389 1288q-25 -27 -56 -26q-33 0 -57.5 26.5t-24.5 57.5q0 29 26 53t52 24v0q49 0 74 -45q25 -49 -14 -90zM137 1083 q-25 -27 -55 -26q-33 0 -57.5 26.5t-24.5 57.5q0 29 25.5 53.5t52.5 24.5v0q49 0 74 -45q24 -50 -15 -91zM1182 1081q-25 -27 -56 -26q-33 0 -57.5 26.5t-24.5 57.5q0 29 26 53.5t52 24.5v0q49 0 74 -46q25 -49 -14 -90zM971 872q-25 -27 -56 -26q-33 0 -57 26.5t-24 57.5 q0 29 25.5 53.5t51.5 24.5v0q49 0 74 -45q25 -50 -14 -91zM762 662q-25 -27 -55 -27q-33 0 -57.5 26.5t-24.5 59.5q0 27 24.5 51.5t52.5 24.5v0q47 0 72 -47q27 -47 -12 -88zM553 451q-25 -27 -55 -27q-33 0 -57.5 26.5t-24.5 57.5q0 29 25.5 53.5t52.5 24.5v0q49 0 73 -45 q25 -49 -14 -90zM344 242q-25 -27 -55 -27q-33 0 -57.5 26.5t-24.5 57.5q0 29 25.5 53.5t52.5 24.5v0q49 0 73 -45q25 -49 -14 -90zM344 31q-25 -27 -55 -27q-33 0 -57.5 26.5t-24.5 57.5q0 29 25.5 53.5t52.5 24.5v0q49 0 73 -45q25 -49 -14 -90zM135 31q-25 -27 -55 -27 q-33 0 -57.5 26.5t-24.5 57.5q0 29 25.5 53.5t52.5 24.5v0q49 0 74 -45q24 -49 -15 -90zM1180 29q-25 -27 -56 -27q-33 0 -57.5 26.5t-24.5 57.5q0 29 26 53.5t52 24.5v0q49 0 74 -45q25 -49 -14 -90zM971 29q-25 -27 -56 -27q-33 0 -57 26.5t-24 57.5q0 29 25.5 53.5 t51.5 24.5v0q49 0 74 -45q25 -49 -14 -90zM762 29q-25 -27 -55 -27q-33 0 -57.5 26.5t-24.5 57.5q0 29 25.5 53.5t51.5 24.5v0q49 0 74 -45q25 -49 -14 -90zM553 29q-25 -27 -55 -27q-33 0 -57.5 26.5t-24.5 57.5q0 29 25.5 53.5t52.5 24.5v0q49 0 73 -45q25 -49 -14 -90z M1389 27q-25 -27 -56 -27q-33 0 -57.5 26.5t-24.5 57.5q0 29 26 53.5t52 24.5v0q49 0 74 -45q25 -49 -14 -90z" />
<glyph unicode="3" horiz-adv-x="1566" d="M344 1501q-25 -27 -55 -26q-33 0 -57.5 26.5t-24.5 57.5q0 29 25.5 53t52.5 24v0q49 0 73 -45q25 -49 -14 -90zM1180 1499q-25 -27 -56 -26q-33 0 -57.5 26.5t-24.5 56.5q0 29 26 53.5t52 24.5v0q49 0 74 -45q25 -49 -14 -90zM971 1499q-25 -27 -56 -26q-33 0 -57 26.5 t-24 56.5q0 29 25.5 53.5t51.5 24.5v0q49 0 74 -45q25 -49 -14 -90zM762 1499q-25 -27 -55 -26q-33 0 -57.5 26.5t-24.5 56.5q0 29 25.5 53.5t51.5 24.5v0q49 0 74 -45q25 -49 -14 -90zM553 1499q-25 -27 -55 -26q-33 0 -57.5 26.5t-24.5 56.5q0 29 25.5 53.5t52.5 24.5v0 q49 0 73 -45q25 -49 -14 -90zM135 1292q-25 -27 -55 -26q-33 0 -57.5 26.5t-24.5 57.5q0 29 25.5 53t52.5 24v0q49 0 74 -45q24 -49 -15 -90zM1389 1288q-25 -27 -56 -26q-33 0 -57.5 26.5t-24.5 57.5q0 29 26 53t52 24v0q49 0 74 -45q25 -49 -14 -90zM1391 1079 q-25 -27 -56 -26q-33 0 -57.5 26.5t-24.5 57.5q0 29 26 53t52 24v0q49 0 74 -45q25 -49 -14 -90zM1389 870q-25 -27 -56 -26q-33 0 -57.5 26.5t-24.5 57.5q0 29 26 53.5t52 24.5v0q49 0 74 -45q25 -50 -14 -91zM1180 662q-25 -27 -56 -27q-33 0 -57.5 26.5t-24.5 59.5 q0 27 25 51.5t53 24.5v0q47 0 72 -47q27 -47 -12 -88zM971 662q-25 -27 -56 -27q-33 0 -57 26.5t-24 59.5q0 27 24.5 51.5t52.5 24.5v0q47 0 72 -47q27 -47 -12 -88zM762 662q-25 -27 -55 -27q-33 0 -57.5 26.5t-24.5 59.5q0 27 24.5 51.5t52.5 24.5v0q47 0 72 -47 q27 -47 -12 -88zM553 662q-25 -27 -55 -27q-33 0 -57.5 26.5t-24.5 59.5q0 27 24.5 51.5t53.5 24.5v0q47 0 71 -47q27 -47 -12 -88zM1389 449q-25 -27 -56 -27q-33 0 -57.5 26.5t-24.5 57.5q0 29 26 53.5t52 24.5v0q49 0 74 -45q25 -49 -14 -90zM135 242q-25 -27 -55 -27 q-33 0 -57.5 26.5t-24.5 57.5q0 29 25.5 53.5t52.5 24.5v0q49 0 74 -45q24 -49 -15 -90zM1389 238q-25 -27 -56 -27q-33 0 -57.5 26.5t-24.5 57.5q0 29 26 53.5t52 24.5v0q49 0 74 -45q25 -49 -14 -90zM344 31q-25 -27 -55 -27q-33 0 -57.5 26.5t-24.5 57.5q0 29 25.5 53.5 t52.5 24.5v0q49 0 73 -45q25 -49 -14 -90zM1180 29q-25 -27 -56 -27q-33 0 -57.5 26.5t-24.5 57.5q0 29 26 53.5t52 24.5v0q49 0 74 -45q25 -49 -14 -90zM971 29q-25 -27 -56 -27q-33 0 -57 26.5t-24 57.5q0 29 25.5 53.5t51.5 24.5v0q49 0 74 -45q25 -49 -14 -90zM762 29 q-25 -27 -55 -27q-33 0 -57.5 26.5t-24.5 57.5q0 29 25.5 53.5t51.5 24.5v0q49 0 74 -45q25 -49 -14 -90zM553 29q-25 -27 -55 -27q-33 0 -57.5 26.5t-24.5 57.5q0 29 25.5 53.5t52.5 24.5v0q49 0 73 -45q25 -49 -14 -90z" />
<glyph unicode="4" d="M1180 1499q-25 -27 -56 -26q-33 0 -57.5 26.5t-24.5 56.5q0 29 26 53.5t52 24.5v0q49 0 74 -45q25 -49 -14 -90zM971 1290q-25 -27 -56 -26q-33 0 -57 26.5t-24 57.5q0 29 25.5 53t51.5 24v0q49 0 74 -45q25 -49 -14 -90zM1184 1288q-25 -27 -56 -26q-33 0 -57 26.5 t-24 57.5q0 29 25.5 53t51.5 24v0q49 0 74 -45q25 -49 -14 -90zM764 1081q-25 -27 -55 -26q-33 0 -57.5 26.5t-24.5 57.5q0 29 25.5 53.5t52.5 24.5v0q49 0 73 -46q25 -49 -14 -90zM1186 1079q-25 -27 -56 -26q-33 0 -57 26.5t-24 57.5q0 29 25.5 53t51.5 24v0q49 0 74 -45 q25 -49 -14 -90zM553 872q-25 -27 -55 -26q-33 0 -57.5 26.5t-24.5 57.5q0 29 25.5 53.5t52.5 24.5v0q49 0 73 -45q25 -50 -14 -91zM1184 870q-25 -27 -56 -26q-33 0 -57 26.5t-24 57.5q0 29 25.5 53.5t51.5 24.5v0q49 0 74 -45q25 -50 -14 -91zM344 664q-25 -27 -55 -27 q-33 0 -57.5 26.5t-24.5 59.5q0 27 24.5 51.5t53.5 24.5v0q47 0 71 -47q27 -47 -12 -88zM1180 662q-25 -27 -56 -27q-33 0 -57.5 26.5t-24.5 59.5q0 27 25 51.5t53 24.5v0q47 0 72 -47q27 -47 -12 -88zM1409 455q-25 -27 -55 -27q-33 0 -57.5 26.5t-24.5 59.5 q0 27 24.5 51.5t53.5 24.5v0q47 0 71 -47q27 -47 -12 -88zM344 453q-25 -27 -55 -27q-33 0 -57.5 26.5t-24.5 57.5q0 29 25.5 53.5t52.5 24.5v0q49 0 73 -45q25 -49 -14 -90zM135 453q-25 -27 -55 -27q-33 0 -57.5 26.5t-24.5 57.5q0 29 25.5 53.5t52.5 24.5v0q49 0 74 -45 q24 -49 -15 -90zM1180 451q-25 -27 -56 -27q-33 0 -57.5 26.5t-24.5 57.5q0 29 26 53.5t52 24.5v0q49 0 74 -45q25 -49 -14 -90zM971 451q-25 -27 -56 -27q-33 0 -57 26.5t-24 57.5q0 29 25.5 53.5t51.5 24.5v0q49 0 74 -45q25 -49 -14 -90zM762 451q-25 -27 -55 -27 q-33 0 -57.5 26.5t-24.5 57.5q0 29 25.5 53.5t51.5 24.5v0q49 0 74 -45q25 -49 -14 -90zM553 451q-25 -27 -55 -27q-33 0 -57.5 26.5t-24.5 57.5q0 29 25.5 53.5t52.5 24.5v0q49 0 73 -45q25 -49 -14 -90zM1165 250q-25 -27 -55 -27q-33 0 -57.5 26.5t-24.5 57.5 q0 29 25.5 53.5t52.5 24.5v0q49 0 74 -45q24 -49 -15 -90zM1165 39q-25 -27 -55 -27q-33 0 -57.5 27t-24.5 57q0 29 25.5 53.5t52.5 24.5v0q49 0 74 -45q24 -49 -15 -90z" />
<glyph unicode="5" horiz-adv-x="1546" d="M344 1501q-25 -27 -55 -26q-33 0 -57.5 26.5t-24.5 57.5q0 29 25.5 53t52.5 24v0q49 0 73 -45q25 -49 -14 -90zM135 1501q-25 -27 -55 -26q-33 0 -57.5 26.5t-24.5 57.5q0 29 25.5 53t52.5 24v0q49 0 74 -45q24 -49 -15 -90zM1180 1499q-25 -27 -56 -26q-33 0 -57.5 26.5 t-24.5 56.5q0 29 26 53.5t52 24.5v0q49 0 74 -45q25 -49 -14 -90zM971 1499q-25 -27 -56 -26q-33 0 -57 26.5t-24 56.5q0 29 25.5 53.5t51.5 24.5v0q49 0 74 -45q25 -49 -14 -90zM762 1499q-25 -27 -55 -26q-33 0 -57.5 26.5t-24.5 56.5q0 29 25.5 53.5t51.5 24.5v0 q49 0 74 -45q25 -49 -14 -90zM553 1499q-25 -27 -55 -26q-33 0 -57.5 26.5t-24.5 56.5q0 29 25.5 53.5t52.5 24.5v0q49 0 73 -45q25 -49 -14 -90zM1389 1497q-25 -27 -56 -27q-33 0 -57.5 27t-24.5 57q0 29 26 53.5t52 24.5v0q49 0 74 -45q25 -49 -14 -90zM135 1292 q-25 -27 -55 -26q-33 0 -57.5 26.5t-24.5 57.5q0 29 25.5 53t52.5 24v0q49 0 74 -45q24 -49 -15 -90zM137 1083q-25 -27 -55 -26q-33 0 -57.5 26.5t-24.5 57.5q0 29 25.5 53.5t52.5 24.5v0q49 0 74 -45q24 -50 -15 -91zM344 874q-25 -27 -55 -26q-33 0 -57.5 26.5 t-24.5 57.5q0 29 25.5 53.5t52.5 24.5v0q49 0 73 -45q25 -50 -14 -91zM135 874q-25 -27 -55 -26q-33 0 -57.5 26.5t-24.5 57.5q0 29 25.5 53.5t52.5 24.5v0q49 0 74 -45q24 -50 -15 -91zM1180 872q-25 -27 -56 -26q-33 0 -57.5 26.5t-24.5 57.5q0 29 26 53.5t52 24.5v0 q49 0 74 -45q25 -50 -14 -91zM971 872q-25 -27 -56 -26q-33 0 -57 26.5t-24 57.5q0 29 25.5 53.5t51.5 24.5v0q49 0 74 -45q25 -50 -14 -91zM762 872q-25 -27 -55 -26q-33 0 -57.5 26.5t-24.5 57.5q0 29 25.5 53.5t51.5 24.5v0q49 0 74 -45q25 -50 -14 -91zM553 872 q-25 -27 -55 -26q-33 0 -57.5 26.5t-24.5 57.5q0 29 25.5 53.5t52.5 24.5v0q49 0 73 -45q25 -50 -14 -91zM1389 659q-25 -27 -56 -26q-33 0 -57.5 26.5t-24.5 59.5q0 27 24.5 51.5t53.5 24.5v0q47 0 72 -47q27 -48 -12 -89zM1389 449q-25 -27 -56 -27q-33 0 -57.5 26.5 t-24.5 57.5q0 29 26 53.5t52 24.5v0q49 0 74 -45q25 -49 -14 -90zM135 242q-25 -27 -55 -27q-33 0 -57.5 26.5t-24.5 57.5q0 29 25.5 53.5t52.5 24.5v0q49 0 74 -45q24 -49 -15 -90zM1389 238q-25 -27 -56 -27q-33 0 -57.5 26.5t-24.5 57.5q0 29 26 53.5t52 24.5v0 q49 0 74 -45q25 -49 -14 -90zM344 31q-25 -27 -55 -27q-33 0 -57.5 26.5t-24.5 57.5q0 29 25.5 53.5t52.5 24.5v0q49 0 73 -45q25 -49 -14 -90zM1180 29q-25 -27 -56 -27q-33 0 -57.5 26.5t-24.5 57.5q0 29 26 53.5t52 24.5v0q49 0 74 -45q25 -49 -14 -90zM971 29 q-25 -27 -56 -27q-33 0 -57 26.5t-24 57.5q0 29 25.5 53.5t51.5 24.5v0q49 0 74 -45q25 -49 -14 -90zM762 29q-25 -27 -55 -27q-33 0 -57.5 26.5t-24.5 57.5q0 29 25.5 53.5t51.5 24.5v0q49 0 74 -45q25 -49 -14 -90zM553 29q-25 -27 -55 -27q-33 0 -57.5 26.5t-24.5 57.5 q0 29 25.5 53.5t52.5 24.5v0q49 0 73 -45q25 -49 -14 -90z" />
<glyph unicode="6" d="M344 1501q-25 -27 -55 -26q-33 0 -57.5 26.5t-24.5 57.5q0 29 25.5 53t52.5 24v0q49 0 73 -45q25 -49 -14 -90zM1180 1499q-25 -27 -56 -26q-33 0 -57.5 26.5t-24.5 56.5q0 29 26 53.5t52 24.5v0q49 0 74 -45q25 -49 -14 -90zM971 1499q-25 -27 -56 -26q-33 0 -57 26.5 t-24 56.5q0 29 25.5 53.5t51.5 24.5v0q49 0 74 -45q25 -49 -14 -90zM762 1499q-25 -27 -55 -26q-33 0 -57.5 26.5t-24.5 56.5q0 29 25.5 53.5t51.5 24.5v0q49 0 74 -45q25 -49 -14 -90zM553 1499q-25 -27 -55 -26q-33 0 -57.5 26.5t-24.5 56.5q0 29 25.5 53.5t52.5 24.5v0 q49 0 73 -45q25 -49 -14 -90zM135 1292q-25 -27 -55 -26q-33 0 -57.5 26.5t-24.5 57.5q0 29 25.5 53t52.5 24v0q49 0 74 -45q24 -49 -15 -90zM1389 1288q-25 -27 -56 -26q-33 0 -57.5 26.5t-24.5 57.5q0 29 26 53t52 24v0q49 0 74 -45q25 -49 -14 -90zM137 1083 q-25 -27 -55 -26q-33 0 -57.5 26.5t-24.5 57.5q0 29 25.5 53.5t52.5 24.5v0q49 0 74 -45q24 -50 -15 -91zM344 874q-25 -27 -55 -26q-33 0 -57.5 26.5t-24.5 57.5q0 29 25.5 53.5t52.5 24.5v0q49 0 73 -45q25 -50 -14 -91zM135 874q-25 -27 -55 -26q-33 0 -57.5 26.5 t-24.5 57.5q0 29 25.5 53.5t52.5 24.5v0q49 0 74 -45q24 -50 -15 -91zM1180 872q-25 -27 -56 -26q-33 0 -57.5 26.5t-24.5 57.5q0 29 26 53.5t52 24.5v0q49 0 74 -45q25 -50 -14 -91zM971 872q-25 -27 -56 -26q-33 0 -57 26.5t-24 57.5q0 29 25.5 53.5t51.5 24.5v0 q49 0 74 -45q25 -50 -14 -91zM762 872q-25 -27 -55 -26q-33 0 -57.5 26.5t-24.5 57.5q0 29 25.5 53.5t51.5 24.5v0q49 0 74 -45q25 -50 -14 -91zM553 872q-25 -27 -55 -26q-33 0 -57.5 26.5t-24.5 57.5q0 29 25.5 53.5t52.5 24.5v0q49 0 73 -45q25 -50 -14 -91zM135 664 q-25 -27 -55 -27q-33 0 -57.5 26.5t-24.5 59.5q0 27 24.5 51.5t53.5 24.5v0q47 0 71 -47q27 -47 -12 -88zM1389 659q-25 -27 -56 -26q-33 0 -57.5 26.5t-24.5 59.5q0 27 24.5 51.5t53.5 24.5v0q47 0 72 -47q27 -48 -12 -89zM135 453q-25 -27 -55 -27q-33 0 -57.5 26.5 t-24.5 57.5q0 29 25.5 53.5t52.5 24.5v0q49 0 74 -45q24 -49 -15 -90zM1389 449q-25 -27 -56 -27q-33 0 -57.5 26.5t-24.5 57.5q0 29 26 53.5t52 24.5v0q49 0 74 -45q25 -49 -14 -90zM135 242q-25 -27 -55 -27q-33 0 -57.5 26.5t-24.5 57.5q0 29 25.5 53.5t52.5 24.5v0 q49 0 74 -45q24 -49 -15 -90zM1389 238q-25 -27 -56 -27q-33 0 -57.5 26.5t-24.5 57.5q0 29 26 53.5t52 24.5v0q49 0 74 -45q25 -49 -14 -90zM344 31q-25 -27 -55 -27q-33 0 -57.5 26.5t-24.5 57.5q0 29 25.5 53.5t52.5 24.5v0q49 0 73 -45q25 -49 -14 -90zM1180 29 q-25 -27 -56 -27q-33 0 -57.5 26.5t-24.5 57.5q0 29 26 53.5t52 24.5v0q49 0 74 -45q25 -49 -14 -90zM971 29q-25 -27 -56 -27q-33 0 -57 26.5t-24 57.5q0 29 25.5 53.5t51.5 24.5v0q49 0 74 -45q25 -49 -14 -90zM762 29q-25 -27 -55 -27q-33 0 -57.5 26.5t-24.5 57.5 q0 29 25.5 53.5t51.5 24.5v0q49 0 74 -45q25 -49 -14 -90zM553 29q-25 -27 -55 -27q-33 0 -57.5 26.5t-24.5 57.5q0 29 25.5 53.5t52.5 24.5v0q49 0 73 -45q25 -49 -14 -90z" />
<glyph unicode="7" d="M344 1501q-25 -27 -55 -26q-33 0 -57.5 26.5t-24.5 57.5q0 29 25.5 53t52.5 24v0q49 0 73 -45q25 -49 -14 -90zM135 1501q-25 -27 -55 -26q-33 0 -57.5 26.5t-24.5 57.5q0 29 25.5 53t52.5 24v0q49 0 74 -45q24 -49 -15 -90zM1180 1499q-25 -27 -56 -26q-33 0 -57.5 26.5 t-24.5 56.5q0 29 26 53.5t52 24.5v0q49 0 74 -45q25 -49 -14 -90zM971 1499q-25 -27 -56 -26q-33 0 -57 26.5t-24 56.5q0 29 25.5 53.5t51.5 24.5v0q49 0 74 -45q25 -49 -14 -90zM762 1499q-25 -27 -55 -26q-33 0 -57.5 26.5t-24.5 56.5q0 29 25.5 53.5t51.5 24.5v0 q49 0 74 -45q25 -49 -14 -90zM553 1499q-25 -27 -55 -26q-33 0 -57.5 26.5t-24.5 56.5q0 29 25.5 53.5t52.5 24.5v0q49 0 73 -45q25 -49 -14 -90zM1389 1497q-25 -27 -56 -27q-33 0 -57.5 27t-24.5 57q0 29 26 53.5t52 24.5v0q49 0 74 -45q25 -49 -14 -90zM135 1292 q-25 -27 -55 -26q-33 0 -57.5 26.5t-24.5 57.5q0 29 25.5 53t52.5 24v0q49 0 74 -45q24 -49 -15 -90zM1389 1288q-25 -27 -56 -26q-33 0 -57.5 26.5t-24.5 57.5q0 29 26 53t52 24v0q49 0 74 -45q25 -49 -14 -90zM1182 1081q-25 -27 -56 -26q-33 0 -57.5 26.5t-24.5 57.5 q0 29 26 53.5t52 24.5v0q49 0 74 -46q25 -49 -14 -90zM971 872q-25 -27 -56 -26q-33 0 -57 26.5t-24 57.5q0 29 25.5 53.5t51.5 24.5v0q49 0 74 -45q25 -50 -14 -91zM762 662q-25 -27 -55 -27q-33 0 -57.5 26.5t-24.5 59.5q0 27 24.5 51.5t52.5 24.5v0q47 0 72 -47 q27 -47 -12 -88zM553 451q-25 -27 -55 -27q-33 0 -57.5 26.5t-24.5 57.5q0 29 25.5 53.5t52.5 24.5v0q49 0 73 -45q25 -49 -14 -90zM344 242q-25 -27 -55 -27q-33 0 -57.5 26.5t-24.5 57.5q0 29 25.5 53.5t52.5 24.5v0q49 0 73 -45q25 -49 -14 -90zM135 31q-25 -27 -55 -27 q-33 0 -57.5 26.5t-24.5 57.5q0 29 25.5 53.5t52.5 24.5v0q49 0 74 -45q24 -49 -15 -90z" />
<glyph unicode="8" d="M344 1501q-25 -27 -55 -26q-33 0 -57.5 26.5t-24.5 57.5q0 29 25.5 53t52.5 24v0q49 0 73 -45q25 -49 -14 -90zM1180 1499q-25 -27 -56 -26q-33 0 -57.5 26.5t-24.5 56.5q0 29 26 53.5t52 24.5v0q49 0 74 -45q25 -49 -14 -90zM971 1499q-25 -27 -56 -26q-33 0 -57 26.5 t-24 56.5q0 29 25.5 53.5t51.5 24.5v0q49 0 74 -45q25 -49 -14 -90zM762 1499q-25 -27 -55 -26q-33 0 -57.5 26.5t-24.5 56.5q0 29 25.5 53.5t51.5 24.5v0q49 0 74 -45q25 -49 -14 -90zM553 1499q-25 -27 -55 -26q-33 0 -57.5 26.5t-24.5 56.5q0 29 25.5 53.5t52.5 24.5v0 q49 0 73 -45q25 -49 -14 -90zM135 1292q-25 -27 -55 -26q-33 0 -57.5 26.5t-24.5 57.5q0 29 25.5 53t52.5 24v0q49 0 74 -45q24 -49 -15 -90zM1389 1288q-25 -27 -56 -26q-33 0 -57.5 26.5t-24.5 57.5q0 29 26 53t52 24v0q49 0 74 -45q25 -49 -14 -90zM137 1083 q-25 -27 -55 -26q-33 0 -57.5 26.5t-24.5 57.5q0 29 25.5 53.5t52.5 24.5v0q49 0 74 -45q24 -50 -15 -91zM1391 1079q-25 -27 -56 -26q-33 0 -57.5 26.5t-24.5 57.5q0 29 26 53t52 24v0q49 0 74 -45q25 -49 -14 -90zM344 874q-25 -27 -55 -26q-33 0 -57.5 26.5t-24.5 57.5 q0 29 25.5 53.5t52.5 24.5v0q49 0 73 -45q25 -50 -14 -91zM1180 872q-25 -27 -56 -26q-33 0 -57.5 26.5t-24.5 57.5q0 29 26 53.5t52 24.5v0q49 0 74 -45q25 -50 -14 -91zM971 872q-25 -27 -56 -26q-33 0 -57 26.5t-24 57.5q0 29 25.5 53.5t51.5 24.5v0q49 0 74 -45 q25 -50 -14 -91zM762 872q-25 -27 -55 -26q-33 0 -57.5 26.5t-24.5 57.5q0 29 25.5 53.5t51.5 24.5v0q49 0 74 -45q25 -50 -14 -91zM553 872q-25 -27 -55 -26q-33 0 -57.5 26.5t-24.5 57.5q0 29 25.5 53.5t52.5 24.5v0q49 0 73 -45q25 -50 -14 -91zM135 664q-25 -27 -55 -27 q-33 0 -57.5 26.5t-24.5 59.5q0 27 24.5 51.5t53.5 24.5v0q47 0 71 -47q27 -47 -12 -88zM1389 659q-25 -27 -56 -26q-33 0 -57.5 26.5t-24.5 59.5q0 27 24.5 51.5t53.5 24.5v0q47 0 72 -47q27 -48 -12 -89zM135 453q-25 -27 -55 -27q-33 0 -57.5 26.5t-24.5 57.5 q0 29 25.5 53.5t52.5 24.5v0q49 0 74 -45q24 -49 -15 -90zM1389 449q-25 -27 -56 -27q-33 0 -57.5 26.5t-24.5 57.5q0 29 26 53.5t52 24.5v0q49 0 74 -45q25 -49 -14 -90zM135 242q-25 -27 -55 -27q-33 0 -57.5 26.5t-24.5 57.5q0 29 25.5 53.5t52.5 24.5v0q49 0 74 -45 q24 -49 -15 -90zM1389 238q-25 -27 -56 -27q-33 0 -57.5 26.5t-24.5 57.5q0 29 26 53.5t52 24.5v0q49 0 74 -45q25 -49 -14 -90zM344 31q-25 -27 -55 -27q-33 0 -57.5 26.5t-24.5 57.5q0 29 25.5 53.5t52.5 24.5v0q49 0 73 -45q25 -49 -14 -90zM1180 29q-25 -27 -56 -27 q-33 0 -57.5 26.5t-24.5 57.5q0 29 26 53.5t52 24.5v0q49 0 74 -45q25 -49 -14 -90zM971 29q-25 -27 -56 -27q-33 0 -57 26.5t-24 57.5q0 29 25.5 53.5t51.5 24.5v0q49 0 74 -45q25 -49 -14 -90zM762 29q-25 -27 -55 -27q-33 0 -57.5 26.5t-24.5 57.5q0 29 25.5 53.5 t51.5 24.5v0q49 0 74 -45q25 -49 -14 -90zM553 29q-25 -27 -55 -27q-33 0 -57.5 26.5t-24.5 57.5q0 29 25.5 53.5t52.5 24.5v0q49 0 73 -45q25 -49 -14 -90z" />
<glyph unicode="9" d="M1022 1622q23 -25 22 -53v0q0 -49 -49 -74t-88 16q-23 25 -22 54v0q0 51 47 73q51 27 90 -16zM813 1622q23 -25 23 -53v0q0 -49 -50 -74q-49 -25 -88 16q-23 25 -22 54v0q0 51 47 73q51 27 90 -16zM604 1622q23 -25 23 -53v0q0 -49 -49 -74t-89 16q-23 25 -22 54v0 q0 51 47 73q51 27 90 -16zM395 1622q23 -25 23 -53v0q0 -49 -49 -74t-88 16q-23 25 -23 54v0q0 51 47 73q51 27 90 -16zM1231 1620q23 -25 22 -53v0q0 -49 -49 -74t-88 16q-23 25 -22 54v0q0 51 47 73q51 27 90 -16zM186 1413q23 -25 23 -53v0q0 -49 -49 -74t-88 17 q-23 25 -23 53v0q0 51 47 74q51 26 90 -17zM1440 1409q23 -25 22 -53v0q0 -49 -49 -74t-88 16q-23 25 -22 54v0q0 51 47 73q51 27 90 -16zM186 1202q23 -25 23 -53v0q0 -49 -49 -74t-88 17q-23 25 -23 53v0q0 51 47 74q51 26 90 -17zM1440 1198q23 -25 22 -53v0 q0 -49 -49 -74t-88 16q-23 25 -22 54v0q0 51 47 73q51 27 90 -16zM186 991q23 -25 23 -53v0q0 -49 -47 -74t-88 17q-25 25 -25 55v0q0 49 47 74q51 24 90 -19zM1440 987q23 -25 22 -53v0q0 -49 -47 -74t-88 17q-25 25 -24 55v0q0 49 47 74q51 24 90 -19zM1022 778 q23 -25 22 -53v0q0 -49 -49 -74t-88 17q-23 25 -22 53v0q0 51 47 74q51 26 90 -17zM813 778q23 -25 23 -53v0q0 -49 -50 -74q-49 -25 -88 17q-23 25 -22 53v0q0 51 47 74q51 26 90 -17zM604 778q23 -25 23 -53v0q0 -49 -49 -74t-89 17q-23 25 -22 53v0q0 51 47 74 q51 26 90 -17zM395 778q23 -25 23 -53v0q0 -49 -49 -74t-88 17q-23 25 -23 53v0q0 51 47 74q51 26 90 -17zM1440 776q23 -25 22 -53v0q0 -49 -49 -74t-88 17q-23 25 -22 53v0q0 51 47 74q51 26 90 -17zM1231 776q23 -25 22 -53v0q0 -49 -49 -74t-88 17q-23 25 -22 53v0 q0 51 47 74q51 26 90 -17zM1438 567q23 -25 22 -53v0q0 -49 -49 -74t-88 17q-23 25 -23 53v0q0 51 48 74q51 26 90 -17zM186 362q23 -25 23 -53v0q0 -49 -49 -73q-49 -25 -88 16q-23 25 -23 53v0q0 51 47 74q51 26 90 -17zM1440 358q23 -25 22 -53v0q0 -49 -49 -74t-88 17 q-23 25 -22 53v0q0 51 47 74q51 26 90 -17zM1022 152q23 -25 22 -54v0q0 -49 -49 -73q-49 -25 -88 16q-23 25 -22 53v0q0 51 47 74q51 27 90 -16zM813 152q23 -25 23 -54v0q0 -49 -50 -73q-49 -25 -88 16q-23 25 -22 53v0q0 51 47 74q51 27 90 -16zM604 152q23 -25 23 -54v0 q0 -49 -49 -73q-49 -25 -89 16q-23 25 -22 53v0q0 51 47 74q51 27 90 -16zM395 152q23 -25 23 -54v0q0 -49 -49 -73q-49 -25 -88 16q-23 25 -23 53v0q0 51 47 74q51 27 90 -16zM1231 150q23 -25 22 -54v0q0 -49 -49 -73q-49 -25 -88 16q-23 25 -22 53v0q0 51 47 74 q51 27 90 -16z" />
<glyph unicode=":" horiz-adv-x="327" d="M135 874q-25 -27 -55 -26q-33 0 -57.5 26.5t-24.5 57.5q0 29 25.5 53.5t52.5 24.5v0q49 0 74 -45q24 -50 -15 -91zM135 31q-25 -27 -55 -27q-33 0 -57.5 26.5t-24.5 57.5q0 29 25.5 53.5t52.5 24.5v0q49 0 74 -45q24 -49 -15 -90z" />
<glyph unicode=";" horiz-adv-x="522" d="M399 870q-25 -27 -55 -26q-33 0 -57.5 26.5t-24.5 57.5q0 29 25.5 53.5t52.5 24.5v0q49 0 74 -45q24 -50 -15 -91zM399 31q-25 -27 -55 -27q-33 0 -57.5 26.5t-24.5 57.5q0 29 25.5 53.5t52.5 24.5v0q49 0 74 -45q24 -49 -15 -90zM190 -178q-25 -27 -55 -27 q-33 0 -57.5 26.5t-24.5 57.5q0 29 25.5 53.5t52.5 24.5v0q49 0 74 -45q24 -49 -15 -90z" />
<glyph unicode="&#x3c;" horiz-adv-x="911" d="M778 1288q-25 -27 -55 -26q-33 0 -57.5 26.5t-24.5 57.5q0 29 25.5 53t52.5 24v0q49 0 74 -45q24 -49 -15 -90zM547 1081q-25 -27 -55 -26q-33 0 -57.5 26.5t-24.5 57.5q0 29 25.5 53.5t51.5 24.5v0q49 0 74 -46q25 -49 -14 -90zM360 872q-25 -27 -55 -26 q-33 0 -57.5 26.5t-24.5 57.5q0 29 25.5 53.5t52.5 24.5v0q49 0 74 -45q24 -50 -15 -91zM152 662q-25 -27 -56 -27q-33 0 -57.5 26.5t-24.5 59.5q0 27 24.5 51.5t53.5 24.5v0q47 0 72 -47q27 -47 -12 -88zM360 451q-25 -27 -55 -27q-33 0 -57.5 26.5t-24.5 57.5 q0 29 25.5 53.5t52.5 24.5v0q49 0 74 -45q24 -49 -15 -90zM569 240q-25 -27 -55 -27q-33 0 -57.5 26.5t-24.5 57.5q0 29 25.5 53.5t52.5 24.5v0q49 0 74 -45q24 -49 -15 -90zM778 27q-25 -27 -55 -27q-33 0 -57.5 26.5t-24.5 57.5q0 29 25.5 53.5t52.5 24.5v0q49 0 74 -45 q24 -49 -15 -90z" />
<glyph unicode="=" horiz-adv-x="1218" d="M406 739q-25 -27 -56 -26q-33 0 -57.5 26.5t-24.5 57.5q0 29 25.5 53t52.5 24v0q49 0 74 -45q25 -49 -14 -90zM197 739q-25 -27 -56 -26q-33 0 -57.5 26.5t-24.5 57.5q0 29 26 53t52 24v0q49 0 74 -45q25 -49 -14 -90zM1032 737q-25 -27 -55 -26q-33 0 -57.5 26.5 t-24.5 57.5q0 29 25.5 53t52.5 24v0q49 0 74 -45q24 -49 -15 -90zM823 737q-25 -27 -55 -26q-33 0 -57.5 26.5t-24.5 57.5q0 29 25.5 53t52.5 24v0q49 0 74 -45q24 -49 -15 -90zM614 737q-25 -27 -55 -26q-33 0 -57.5 26.5t-24.5 57.5q0 29 25.5 53t52.5 24v0q49 0 74 -45 q24 -49 -15 -90zM406 317q-25 -27 -56 -26q-33 0 -57.5 26.5t-24.5 57.5q0 29 25.5 53.5t52.5 24.5v0q49 0 74 -45q25 -50 -14 -91zM197 317q-25 -27 -56 -26q-33 0 -57.5 26.5t-24.5 57.5q0 29 26 53.5t52 24.5v0q49 0 74 -45q25 -50 -14 -91zM1032 315q-25 -27 -55 -26 q-33 0 -57.5 26.5t-24.5 57.5q0 29 25.5 53.5t52.5 24.5v0q49 0 74 -45q24 -50 -15 -91zM823 315q-25 -27 -55 -26q-33 0 -57.5 26.5t-24.5 57.5q0 29 25.5 53.5t52.5 24.5v0q49 0 74 -45q24 -50 -15 -91zM614 315q-25 -27 -55 -26q-33 0 -57.5 26.5t-24.5 57.5 q0 29 25.5 53.5t52.5 24.5v0q49 0 74 -45q24 -50 -15 -91z" />
<glyph unicode="&#x3e;" horiz-adv-x="942" d="M172 1298q-25 -27 -55 -26q-33 0 -57.5 25.5t-24.5 58.5q0 27 24.5 52.5t53.5 25.5v0q47 0 73 -45q25 -48 -14 -91zM403 1092q-25 -27 -55 -27q-33 0 -57.5 25.5t-24.5 58.5q0 27 24.5 52.5t53.5 25.5v0q47 0 74 -45q24 -47 -15 -90zM590 883q-25 -27 -55 -27 q-33 0 -57.5 25.5t-24.5 58.5q0 27 24.5 52.5t52.5 25.5v0q47 0 74 -45q25 -47 -14 -90zM799 672q-25 -27 -56 -27q-33 0 -57 25.5t-24 56.5q0 29 25.5 54.5t53.5 25.5v0q47 0 72 -47t-14 -88zM590 461q-25 -27 -55 -27q-33 0 -57.5 25.5t-24.5 58.5q0 27 24.5 52.5 t52.5 25.5v0q47 0 74 -45q25 -47 -14 -90zM381 250q-25 -27 -55 -27q-33 0 -57.5 25.5t-24.5 58.5q0 27 24.5 52.5t53.5 25.5v0q47 0 73 -45q25 -47 -14 -90zM172 37q-25 -27 -55 -27q-33 0 -57.5 25.5t-24.5 58.5q0 27 24.5 52.5t53.5 25.5v0q47 0 73 -45q25 -47 -14 -90z " />
<glyph unicode="?" d="M344 1501q-25 -27 -55 -26q-33 0 -57.5 26.5t-24.5 57.5q0 29 25.5 53t52.5 24v0q49 0 73 -45q25 -49 -14 -90zM1180 1499q-25 -27 -56 -26q-33 0 -57.5 26.5t-24.5 56.5q0 29 26 53.5t52 24.5v0q49 0 74 -45q25 -49 -14 -90zM971 1499q-25 -27 -56 -26q-33 0 -57 26.5 t-24 56.5q0 29 25.5 53.5t51.5 24.5v0q49 0 74 -45q25 -49 -14 -90zM762 1499q-25 -27 -55 -26q-33 0 -57.5 26.5t-24.5 56.5q0 29 25.5 53.5t51.5 24.5v0q49 0 74 -45q25 -49 -14 -90zM553 1499q-25 -27 -55 -26q-33 0 -57.5 26.5t-24.5 56.5q0 29 25.5 53.5t52.5 24.5v0 q49 0 73 -45q25 -49 -14 -90zM135 1292q-25 -27 -55 -26q-33 0 -57.5 26.5t-24.5 57.5q0 29 25.5 53t52.5 24v0q49 0 74 -45q24 -49 -15 -90zM1389 1288q-25 -27 -56 -26q-33 0 -57.5 26.5t-24.5 57.5q0 29 26 53t52 24v0q49 0 74 -45q25 -49 -14 -90zM1391 1079 q-25 -27 -56 -26q-33 0 -57.5 26.5t-24.5 57.5q0 29 26 53t52 24v0q49 0 74 -45q25 -49 -14 -90zM1180 872q-25 -27 -56 -26q-33 0 -57.5 26.5t-24.5 57.5q0 29 26 53.5t52 24.5v0q49 0 74 -45q25 -50 -14 -91zM971 662q-25 -27 -56 -27q-33 0 -57 26.5t-24 59.5 q0 27 24.5 51.5t52.5 24.5v0q47 0 72 -47q27 -47 -12 -88zM762 451q-25 -27 -55 -27q-33 0 -57.5 26.5t-24.5 57.5q0 29 25.5 53.5t51.5 24.5v0q49 0 74 -45q25 -49 -14 -90zM762 240q-25 -27 -55 -27q-33 0 -57.5 26.5t-24.5 57.5q0 29 25.5 53.5t51.5 24.5v0q49 0 74 -45 q25 -49 -14 -90zM772 -176q-25 -27 -55 -27q-33 0 -57.5 26.5t-24.5 57.5q0 29 25.5 53.5t52.5 24.5v0q49 0 73 -45q25 -49 -14 -90z" />
<glyph unicode="@" d="M344 1501q-25 -27 -55 -26q-33 0 -57.5 26.5t-24.5 57.5q0 29 25.5 53t52.5 24v0q49 0 73 -45q25 -49 -14 -90zM971 1499q-25 -27 -56 -26q-33 0 -57 26.5t-24 56.5q0 29 25.5 53.5t51.5 24.5v0q49 0 74 -45q25 -49 -14 -90zM762 1499q-25 -27 -55 -26q-33 0 -57.5 26.5 t-24.5 56.5q0 29 25.5 53.5t51.5 24.5v0q49 0 74 -45q25 -49 -14 -90zM553 1499q-25 -27 -55 -26q-33 0 -57.5 26.5t-24.5 56.5q0 29 25.5 53.5t52.5 24.5v0q49 0 73 -45q25 -49 -14 -90zM135 1292q-25 -27 -55 -26q-33 0 -57.5 26.5t-24.5 57.5q0 29 25.5 53t52.5 24v0 q49 0 74 -45q24 -49 -15 -90zM971 1290q-25 -27 -56 -26q-33 0 -57 26.5t-24 57.5q0 29 25.5 53t51.5 24v0q49 0 74 -45q25 -49 -14 -90zM1389 1288q-25 -27 -56 -26q-33 0 -57.5 26.5t-24.5 57.5q0 29 26 53t52 24v0q49 0 74 -45q25 -49 -14 -90zM137 1083q-25 -27 -55 -26 q-33 0 -57.5 26.5t-24.5 57.5q0 29 25.5 53.5t52.5 24.5v0q49 0 74 -45q24 -50 -15 -91zM973 1081q-25 -27 -55 -26q-33 0 -57.5 26.5t-24.5 57.5q0 29 25.5 53.5t51.5 24.5v0q49 0 74 -46q25 -49 -14 -90zM764 1081q-25 -27 -55 -26q-33 0 -57.5 26.5t-24.5 57.5 q0 29 25.5 53.5t52.5 24.5v0q49 0 73 -46q25 -49 -14 -90zM1391 1079q-25 -27 -56 -26q-33 0 -57.5 26.5t-24.5 57.5q0 29 26 53t52 24v0q49 0 74 -45q25 -49 -14 -90zM135 874q-25 -27 -55 -26q-33 0 -57.5 26.5t-24.5 57.5q0 29 25.5 53.5t52.5 24.5v0q49 0 74 -45 q24 -50 -15 -91zM971 872q-25 -27 -56 -26q-33 0 -57 26.5t-24 57.5q0 29 25.5 53.5t51.5 24.5v0q49 0 74 -45q25 -50 -14 -91zM553 872q-25 -27 -55 -26q-33 0 -57.5 26.5t-24.5 57.5q0 29 25.5 53.5t52.5 24.5v0q49 0 73 -45q25 -50 -14 -91zM1389 870q-25 -27 -56 -26 q-33 0 -57.5 26.5t-24.5 57.5q0 29 26 53.5t52 24.5v0q49 0 74 -45q25 -50 -14 -91zM135 664q-25 -27 -55 -27q-33 0 -57.5 26.5t-24.5 59.5q0 27 24.5 51.5t53.5 24.5v0q47 0 71 -47q27 -47 -12 -88zM971 662q-25 -27 -56 -27q-33 0 -57 26.5t-24 59.5q0 27 24.5 51.5 t52.5 24.5v0q47 0 72 -47q27 -47 -12 -88zM553 662q-25 -27 -55 -27q-33 0 -57.5 26.5t-24.5 59.5q0 27 24.5 51.5t53.5 24.5v0q47 0 71 -47q27 -47 -12 -88zM1389 659q-25 -27 -56 -26q-33 0 -57.5 26.5t-24.5 59.5q0 27 24.5 51.5t53.5 24.5v0q47 0 72 -47q27 -48 -12 -89 zM135 453q-25 -27 -55 -27q-33 0 -57.5 26.5t-24.5 57.5q0 29 25.5 53.5t52.5 24.5v0q49 0 74 -45q24 -49 -15 -90zM971 451q-25 -27 -56 -27q-33 0 -57 26.5t-24 57.5q0 29 25.5 53.5t51.5 24.5v0q49 0 74 -45q25 -49 -14 -90zM762 451q-25 -27 -55 -27q-33 0 -57.5 26.5 t-24.5 57.5q0 29 25.5 53.5t51.5 24.5v0q49 0 74 -45q25 -49 -14 -90zM1389 449q-25 -27 -56 -27q-33 0 -57.5 26.5t-24.5 57.5q0 29 26 53.5t52 24.5v0q49 0 74 -45q25 -49 -14 -90zM135 242q-25 -27 -55 -27q-33 0 -57.5 26.5t-24.5 57.5q0 29 25.5 53.5t52.5 24.5v0 q49 0 74 -45q24 -49 -15 -90zM1389 238q-25 -27 -56 -27q-33 0 -57.5 26.5t-24.5 57.5q0 29 26 53.5t52 24.5v0q49 0 74 -45q25 -49 -14 -90zM344 31q-25 -27 -55 -27q-33 0 -57.5 26.5t-24.5 57.5q0 29 25.5 53.5t52.5 24.5v0q49 0 73 -45q25 -49 -14 -90zM1180 29 q-25 -27 -56 -27q-33 0 -57.5 26.5t-24.5 57.5q0 29 26 53.5t52 24.5v0q49 0 74 -45q25 -49 -14 -90zM971 29q-25 -27 -56 -27q-33 0 -57 26.5t-24 57.5q0 29 25.5 53.5t51.5 24.5v0q49 0 74 -45q25 -49 -14 -90zM762 29q-25 -27 -55 -27q-33 0 -57.5 26.5t-24.5 57.5 q0 29 25.5 53.5t51.5 24.5v0q49 0 74 -45q25 -49 -14 -90zM553 29q-25 -27 -55 -27q-33 0 -57.5 26.5t-24.5 57.5q0 29 25.5 53.5t52.5 24.5v0q49 0 73 -45q25 -49 -14 -90z" />
<glyph unicode="A" d="M344 1501q-25 -27 -55 -26q-33 0 -57.5 26.5t-24.5 57.5q0 29 25.5 53t52.5 24v0q49 0 73 -45q25 -49 -14 -90zM1180 1499q-25 -27 -56 -26q-33 0 -57.5 26.5t-24.5 56.5q0 29 26 53.5t52 24.5v0q49 0 74 -45q25 -49 -14 -90zM971 1499q-25 -27 -56 -26q-33 0 -57 26.5 t-24 56.5q0 29 25.5 53.5t51.5 24.5v0q49 0 74 -45q25 -49 -14 -90zM762 1499q-25 -27 -55 -26q-33 0 -57.5 26.5t-24.5 56.5q0 29 25.5 53.5t51.5 24.5v0q49 0 74 -45q25 -49 -14 -90zM553 1499q-25 -27 -55 -26q-33 0 -57.5 26.5t-24.5 56.5q0 29 25.5 53.5t52.5 24.5v0 q49 0 73 -45q25 -49 -14 -90zM135 1292q-25 -27 -55 -26q-33 0 -57.5 26.5t-24.5 57.5q0 29 25.5 53t52.5 24v0q49 0 74 -45q24 -49 -15 -90zM1389 1288q-25 -27 -56 -26q-33 0 -57.5 26.5t-24.5 57.5q0 29 26 53t52 24v0q49 0 74 -45q25 -49 -14 -90zM137 1083 q-25 -27 -55 -26q-33 0 -57.5 26.5t-24.5 57.5q0 29 25.5 53.5t52.5 24.5v0q49 0 74 -45q24 -50 -15 -91zM1391 1079q-25 -27 -56 -26q-33 0 -57.5 26.5t-24.5 57.5q0 29 26 53t52 24v0q49 0 74 -45q25 -49 -14 -90zM135 874q-25 -27 -55 -26q-33 0 -57.5 26.5t-24.5 57.5 q0 29 25.5 53.5t52.5 24.5v0q49 0 74 -45q24 -50 -15 -91zM1389 870q-25 -27 -56 -26q-33 0 -57.5 26.5t-24.5 57.5q0 29 26 53.5t52 24.5v0q49 0 74 -45q25 -50 -14 -91zM344 664q-25 -27 -55 -27q-33 0 -57.5 26.5t-24.5 59.5q0 27 24.5 51.5t53.5 24.5v0q47 0 71 -47 q27 -47 -12 -88zM135 664q-25 -27 -55 -27q-33 0 -57.5 26.5t-24.5 59.5q0 27 24.5 51.5t53.5 24.5v0q47 0 71 -47q27 -47 -12 -88zM1180 662q-25 -27 -56 -27q-33 0 -57.5 26.5t-24.5 59.5q0 27 25 51.5t53 24.5v0q47 0 72 -47q27 -47 -12 -88zM971 662q-25 -27 -56 -27 q-33 0 -57 26.5t-24 59.5q0 27 24.5 51.5t52.5 24.5v0q47 0 72 -47q27 -47 -12 -88zM762 662q-25 -27 -55 -27q-33 0 -57.5 26.5t-24.5 59.5q0 27 24.5 51.5t52.5 24.5v0q47 0 72 -47q27 -47 -12 -88zM553 662q-25 -27 -55 -27q-33 0 -57.5 26.5t-24.5 59.5q0 27 24.5 51.5 t53.5 24.5v0q47 0 71 -47q27 -47 -12 -88zM1389 659q-25 -27 -56 -26q-33 0 -57.5 26.5t-24.5 59.5q0 27 24.5 51.5t53.5 24.5v0q47 0 72 -47q27 -48 -12 -89zM135 453q-25 -27 -55 -27q-33 0 -57.5 26.5t-24.5 57.5q0 29 25.5 53.5t52.5 24.5v0q49 0 74 -45q24 -49 -15 -90 zM1389 449q-25 -27 -56 -27q-33 0 -57.5 26.5t-24.5 57.5q0 29 26 53.5t52 24.5v0q49 0 74 -45q25 -49 -14 -90zM135 242q-25 -27 -55 -27q-33 0 -57.5 26.5t-24.5 57.5q0 29 25.5 53.5t52.5 24.5v0q49 0 74 -45q24 -49 -15 -90zM1389 238q-25 -27 -56 -27q-33 0 -57.5 26.5 t-24.5 57.5q0 29 26 53.5t52 24.5v0q49 0 74 -45q25 -49 -14 -90zM135 31q-25 -27 -55 -27q-33 0 -57.5 26.5t-24.5 57.5q0 29 25.5 53.5t52.5 24.5v0q49 0 74 -45q24 -49 -15 -90zM1389 27q-25 -27 -56 -27q-33 0 -57.5 26.5t-24.5 57.5q0 29 26 53.5t52 24.5v0 q49 0 74 -45q25 -49 -14 -90z" />
<glyph unicode="B" d="M344 1501q-25 -27 -55 -26q-33 0 -57.5 26.5t-24.5 57.5q0 29 25.5 53t52.5 24v0q49 0 73 -45q25 -49 -14 -90zM135 1501q-25 -27 -55 -26q-33 0 -57.5 26.5t-24.5 57.5q0 29 25.5 53t52.5 24v0q49 0 74 -45q24 -49 -15 -90zM1180 1499q-25 -27 -56 -26q-33 0 -57.5 26.5 t-24.5 56.5q0 29 26 53.5t52 24.5v0q49 0 74 -45q25 -49 -14 -90zM971 1499q-25 -27 -56 -26q-33 0 -57 26.5t-24 56.5q0 29 25.5 53.5t51.5 24.5v0q49 0 74 -45q25 -49 -14 -90zM762 1499q-25 -27 -55 -26q-33 0 -57.5 26.5t-24.5 56.5q0 29 25.5 53.5t51.5 24.5v0 q49 0 74 -45q25 -49 -14 -90zM553 1499q-25 -27 -55 -26q-33 0 -57.5 26.5t-24.5 56.5q0 29 25.5 53.5t52.5 24.5v0q49 0 73 -45q25 -49 -14 -90zM135 1292q-25 -27 -55 -26q-33 0 -57.5 26.5t-24.5 57.5q0 29 25.5 53t52.5 24v0q49 0 74 -45q24 -49 -15 -90zM1389 1288 q-25 -27 -56 -26q-33 0 -57.5 26.5t-24.5 57.5q0 29 26 53t52 24v0q49 0 74 -45q25 -49 -14 -90zM137 1083q-25 -27 -55 -26q-33 0 -57.5 26.5t-24.5 57.5q0 29 25.5 53.5t52.5 24.5v0q49 0 74 -45q24 -50 -15 -91zM1391 1079q-25 -27 -56 -26q-33 0 -57.5 26.5t-24.5 57.5 q0 29 26 53t52 24v0q49 0 74 -45q25 -49 -14 -90zM344 874q-25 -27 -55 -26q-33 0 -57.5 26.5t-24.5 57.5q0 29 25.5 53.5t52.5 24.5v0q49 0 73 -45q25 -50 -14 -91zM135 874q-25 -27 -55 -26q-33 0 -57.5 26.5t-24.5 57.5q0 29 25.5 53.5t52.5 24.5v0q49 0 74 -45 q24 -50 -15 -91zM1180 872q-25 -27 -56 -26q-33 0 -57.5 26.5t-24.5 57.5q0 29 26 53.5t52 24.5v0q49 0 74 -45q25 -50 -14 -91zM971 872q-25 -27 -56 -26q-33 0 -57 26.5t-24 57.5q0 29 25.5 53.5t51.5 24.5v0q49 0 74 -45q25 -50 -14 -91zM762 872q-25 -27 -55 -26 q-33 0 -57.5 26.5t-24.5 57.5q0 29 25.5 53.5t51.5 24.5v0q49 0 74 -45q25 -50 -14 -91zM553 872q-25 -27 -55 -26q-33 0 -57.5 26.5t-24.5 57.5q0 29 25.5 53.5t52.5 24.5v0q49 0 73 -45q25 -50 -14 -91zM135 664q-25 -27 -55 -27q-33 0 -57.5 26.5t-24.5 59.5 q0 27 24.5 51.5t53.5 24.5v0q47 0 71 -47q27 -47 -12 -88zM1389 659q-25 -27 -56 -26q-33 0 -57.5 26.5t-24.5 59.5q0 27 24.5 51.5t53.5 24.5v0q47 0 72 -47q27 -48 -12 -89zM135 453q-25 -27 -55 -27q-33 0 -57.5 26.5t-24.5 57.5q0 29 25.5 53.5t52.5 24.5v0q49 0 74 -45 q24 -49 -15 -90zM1389 449q-25 -27 -56 -27q-33 0 -57.5 26.5t-24.5 57.5q0 29 26 53.5t52 24.5v0q49 0 74 -45q25 -49 -14 -90zM135 242q-25 -27 -55 -27q-33 0 -57.5 26.5t-24.5 57.5q0 29 25.5 53.5t52.5 24.5v0q49 0 74 -45q24 -49 -15 -90zM1389 238q-25 -27 -56 -27 q-33 0 -57.5 26.5t-24.5 57.5q0 29 26 53.5t52 24.5v0q49 0 74 -45q25 -49 -14 -90zM344 31q-25 -27 -55 -27q-33 0 -57.5 26.5t-24.5 57.5q0 29 25.5 53.5t52.5 24.5v0q49 0 73 -45q25 -49 -14 -90zM135 31q-25 -27 -55 -27q-33 0 -57.5 26.5t-24.5 57.5q0 29 25.5 53.5 t52.5 24.5v0q49 0 74 -45q24 -49 -15 -90zM1180 29q-25 -27 -56 -27q-33 0 -57.5 26.5t-24.5 57.5q0 29 26 53.5t52 24.5v0q49 0 74 -45q25 -49 -14 -90zM971 29q-25 -27 -56 -27q-33 0 -57 26.5t-24 57.5q0 29 25.5 53.5t51.5 24.5v0q49 0 74 -45q25 -49 -14 -90zM762 29 q-25 -27 -55 -27q-33 0 -57.5 26.5t-24.5 57.5q0 29 25.5 53.5t51.5 24.5v0q49 0 74 -45q25 -49 -14 -90zM553 29q-25 -27 -55 -27q-33 0 -57.5 26.5t-24.5 57.5q0 29 25.5 53.5t52.5 24.5v0q49 0 73 -45q25 -49 -14 -90z" />
<glyph unicode="C" d="M344 1501q-25 -27 -55 -26q-33 0 -57.5 26.5t-24.5 57.5q0 29 25.5 53t52.5 24v0q49 0 73 -45q25 -49 -14 -90zM1180 1499q-25 -27 -56 -26q-33 0 -57.5 26.5t-24.5 56.5q0 29 26 53.5t52 24.5v0q49 0 74 -45q25 -49 -14 -90zM971 1499q-25 -27 -56 -26q-33 0 -57 26.5 t-24 56.5q0 29 25.5 53.5t51.5 24.5v0q49 0 74 -45q25 -49 -14 -90zM762 1499q-25 -27 -55 -26q-33 0 -57.5 26.5t-24.5 56.5q0 29 25.5 53.5t51.5 24.5v0q49 0 74 -45q25 -49 -14 -90zM553 1499q-25 -27 -55 -26q-33 0 -57.5 26.5t-24.5 56.5q0 29 25.5 53.5t52.5 24.5v0 q49 0 73 -45q25 -49 -14 -90zM135 1292q-25 -27 -55 -26q-33 0 -57.5 26.5t-24.5 57.5q0 29 25.5 53t52.5 24v0q49 0 74 -45q24 -49 -15 -90zM1389 1288q-25 -27 -56 -26q-33 0 -57.5 26.5t-24.5 57.5q0 29 26 53t52 24v0q49 0 74 -45q25 -49 -14 -90zM137 1083 q-25 -27 -55 -26q-33 0 -57.5 26.5t-24.5 57.5q0 29 25.5 53.5t52.5 24.5v0q49 0 74 -45q24 -50 -15 -91zM135 874q-25 -27 -55 -26q-33 0 -57.5 26.5t-24.5 57.5q0 29 25.5 53.5t52.5 24.5v0q49 0 74 -45q24 -50 -15 -91zM135 664q-25 -27 -55 -27q-33 0 -57.5 26.5 t-24.5 59.5q0 27 24.5 51.5t53.5 24.5v0q47 0 71 -47q27 -47 -12 -88zM135 453q-25 -27 -55 -27q-33 0 -57.5 26.5t-24.5 57.5q0 29 25.5 53.5t52.5 24.5v0q49 0 74 -45q24 -49 -15 -90zM135 242q-25 -27 -55 -27q-33 0 -57.5 26.5t-24.5 57.5q0 29 25.5 53.5t52.5 24.5v0 q49 0 74 -45q24 -49 -15 -90zM1389 238q-25 -27 -56 -27q-33 0 -57.5 26.5t-24.5 57.5q0 29 26 53.5t52 24.5v0q49 0 74 -45q25 -49 -14 -90zM344 31q-25 -27 -55 -27q-33 0 -57.5 26.5t-24.5 57.5q0 29 25.5 53.5t52.5 24.5v0q49 0 73 -45q25 -49 -14 -90zM1180 29 q-25 -27 -56 -27q-33 0 -57.5 26.5t-24.5 57.5q0 29 26 53.5t52 24.5v0q49 0 74 -45q25 -49 -14 -90zM971 29q-25 -27 -56 -27q-33 0 -57 26.5t-24 57.5q0 29 25.5 53.5t51.5 24.5v0q49 0 74 -45q25 -49 -14 -90zM762 29q-25 -27 -55 -27q-33 0 -57.5 26.5t-24.5 57.5 q0 29 25.5 53.5t51.5 24.5v0q49 0 74 -45q25 -49 -14 -90zM553 29q-25 -27 -55 -27q-33 0 -57.5 26.5t-24.5 57.5q0 29 25.5 53.5t52.5 24.5v0q49 0 73 -45q25 -49 -14 -90z" />
<glyph unicode="D" d="M344 1501q-25 -27 -55 -26q-33 0 -57.5 26.5t-24.5 57.5q0 29 25.5 53t52.5 24v0q49 0 73 -45q25 -49 -14 -90zM135 1501q-25 -27 -55 -26q-33 0 -57.5 26.5t-24.5 57.5q0 29 25.5 53t52.5 24v0q49 0 74 -45q24 -49 -15 -90zM1180 1499q-25 -27 -56 -26q-33 0 -57.5 26.5 t-24.5 56.5q0 29 26 53.5t52 24.5v0q49 0 74 -45q25 -49 -14 -90zM971 1499q-25 -27 -56 -26q-33 0 -57 26.5t-24 56.5q0 29 25.5 53.5t51.5 24.5v0q49 0 74 -45q25 -49 -14 -90zM762 1499q-25 -27 -55 -26q-33 0 -57.5 26.5t-24.5 56.5q0 29 25.5 53.5t51.5 24.5v0 q49 0 74 -45q25 -49 -14 -90zM553 1499q-25 -27 -55 -26q-33 0 -57.5 26.5t-24.5 56.5q0 29 25.5 53.5t52.5 24.5v0q49 0 73 -45q25 -49 -14 -90zM135 1292q-25 -27 -55 -26q-33 0 -57.5 26.5t-24.5 57.5q0 29 25.5 53t52.5 24v0q49 0 74 -45q24 -49 -15 -90zM1389 1288 q-25 -27 -56 -26q-33 0 -57.5 26.5t-24.5 57.5q0 29 26 53t52 24v0q49 0 74 -45q25 -49 -14 -90zM137 1083q-25 -27 -55 -26q-33 0 -57.5 26.5t-24.5 57.5q0 29 25.5 53.5t52.5 24.5v0q49 0 74 -45q24 -50 -15 -91zM1391 1079q-25 -27 -56 -26q-33 0 -57.5 26.5t-24.5 57.5 q0 29 26 53t52 24v0q49 0 74 -45q25 -49 -14 -90zM135 874q-25 -27 -55 -26q-33 0 -57.5 26.5t-24.5 57.5q0 29 25.5 53.5t52.5 24.5v0q49 0 74 -45q24 -50 -15 -91zM1389 870q-25 -27 -56 -26q-33 0 -57.5 26.5t-24.5 57.5q0 29 26 53.5t52 24.5v0q49 0 74 -45 q25 -50 -14 -91zM135 664q-25 -27 -55 -27q-33 0 -57.5 26.5t-24.5 59.5q0 27 24.5 51.5t53.5 24.5v0q47 0 71 -47q27 -47 -12 -88zM1389 659q-25 -27 -56 -26q-33 0 -57.5 26.5t-24.5 59.5q0 27 24.5 51.5t53.5 24.5v0q47 0 72 -47q27 -48 -12 -89zM135 453 q-25 -27 -55 -27q-33 0 -57.5 26.5t-24.5 57.5q0 29 25.5 53.5t52.5 24.5v0q49 0 74 -45q24 -49 -15 -90zM1389 449q-25 -27 -56 -27q-33 0 -57.5 26.5t-24.5 57.5q0 29 26 53.5t52 24.5v0q49 0 74 -45q25 -49 -14 -90zM135 242q-25 -27 -55 -27q-33 0 -57.5 26.5 t-24.5 57.5q0 29 25.5 53.5t52.5 24.5v0q49 0 74 -45q24 -49 -15 -90zM1389 238q-25 -27 -56 -27q-33 0 -57.5 26.5t-24.5 57.5q0 29 26 53.5t52 24.5v0q49 0 74 -45q25 -49 -14 -90zM344 31q-25 -27 -55 -27q-33 0 -57.5 26.5t-24.5 57.5q0 29 25.5 53.5t52.5 24.5v0 q49 0 73 -45q25 -49 -14 -90zM135 31q-25 -27 -55 -27q-33 0 -57.5 26.5t-24.5 57.5q0 29 25.5 53.5t52.5 24.5v0q49 0 74 -45q24 -49 -15 -90zM1180 29q-25 -27 -56 -27q-33 0 -57.5 26.5t-24.5 57.5q0 29 26 53.5t52 24.5v0q49 0 74 -45q25 -49 -14 -90zM971 29 q-25 -27 -56 -27q-33 0 -57 26.5t-24 57.5q0 29 25.5 53.5t51.5 24.5v0q49 0 74 -45q25 -49 -14 -90zM762 29q-25 -27 -55 -27q-33 0 -57.5 26.5t-24.5 57.5q0 29 25.5 53.5t51.5 24.5v0q49 0 74 -45q25 -49 -14 -90zM553 29q-25 -27 -55 -27q-33 0 -57.5 26.5t-24.5 57.5 q0 29 25.5 53.5t52.5 24.5v0q49 0 73 -45q25 -49 -14 -90z" />
<glyph unicode="E" d="M344 1501q-25 -27 -55 -26q-33 0 -57.5 26.5t-24.5 57.5q0 29 25.5 53t52.5 24v0q49 0 73 -45q25 -49 -14 -90zM135 1501q-25 -27 -55 -26q-33 0 -57.5 26.5t-24.5 57.5q0 29 25.5 53t52.5 24v0q49 0 74 -45q24 -49 -15 -90zM1180 1499q-25 -27 -56 -26q-33 0 -57.5 26.5 t-24.5 56.5q0 29 26 53.5t52 24.5v0q49 0 74 -45q25 -49 -14 -90zM971 1499q-25 -27 -56 -26q-33 0 -57 26.5t-24 56.5q0 29 25.5 53.5t51.5 24.5v0q49 0 74 -45q25 -49 -14 -90zM762 1499q-25 -27 -55 -26q-33 0 -57.5 26.5t-24.5 56.5q0 29 25.5 53.5t51.5 24.5v0 q49 0 74 -45q25 -49 -14 -90zM553 1499q-25 -27 -55 -26q-33 0 -57.5 26.5t-24.5 56.5q0 29 25.5 53.5t52.5 24.5v0q49 0 73 -45q25 -49 -14 -90zM1389 1497q-25 -27 -56 -27q-33 0 -57.5 27t-24.5 57q0 29 26 53.5t52 24.5v0q49 0 74 -45q25 -49 -14 -90zM135 1292 q-25 -27 -55 -26q-33 0 -57.5 26.5t-24.5 57.5q0 29 25.5 53t52.5 24v0q49 0 74 -45q24 -49 -15 -90zM1389 1288q-25 -27 -56 -26q-33 0 -57.5 26.5t-24.5 57.5q0 29 26 53t52 24v0q49 0 74 -45q25 -49 -14 -90zM137 1083q-25 -27 -55 -26q-33 0 -57.5 26.5t-24.5 57.5 q0 29 25.5 53.5t52.5 24.5v0q49 0 74 -45q24 -50 -15 -91zM344 874q-25 -27 -55 -26q-33 0 -57.5 26.5t-24.5 57.5q0 29 25.5 53.5t52.5 24.5v0q49 0 73 -45q25 -50 -14 -91zM135 874q-25 -27 -55 -26q-33 0 -57.5 26.5t-24.5 57.5q0 29 25.5 53.5t52.5 24.5v0q49 0 74 -45 q24 -50 -15 -91zM971 872q-25 -27 -56 -26q-33 0 -57 26.5t-24 57.5q0 29 25.5 53.5t51.5 24.5v0q49 0 74 -45q25 -50 -14 -91zM762 872q-25 -27 -55 -26q-33 0 -57.5 26.5t-24.5 57.5q0 29 25.5 53.5t51.5 24.5v0q49 0 74 -45q25 -50 -14 -91zM553 872q-25 -27 -55 -26 q-33 0 -57.5 26.5t-24.5 57.5q0 29 25.5 53.5t52.5 24.5v0q49 0 73 -45q25 -50 -14 -91zM135 664q-25 -27 -55 -27q-33 0 -57.5 26.5t-24.5 59.5q0 27 24.5 51.5t53.5 24.5v0q47 0 71 -47q27 -47 -12 -88zM135 453q-25 -27 -55 -27q-33 0 -57.5 26.5t-24.5 57.5 q0 29 25.5 53.5t52.5 24.5v0q49 0 74 -45q24 -49 -15 -90zM135 242q-25 -27 -55 -27q-33 0 -57.5 26.5t-24.5 57.5q0 29 25.5 53.5t52.5 24.5v0q49 0 74 -45q24 -49 -15 -90zM1389 238q-25 -27 -56 -27q-33 0 -57.5 26.5t-24.5 57.5q0 29 26 53.5t52 24.5v0q49 0 74 -45 q25 -49 -14 -90zM344 31q-25 -27 -55 -27q-33 0 -57.5 26.5t-24.5 57.5q0 29 25.5 53.5t52.5 24.5v0q49 0 73 -45q25 -49 -14 -90zM135 31q-25 -27 -55 -27q-33 0 -57.5 26.5t-24.5 57.5q0 29 25.5 53.5t52.5 24.5v0q49 0 74 -45q24 -49 -15 -90zM1180 29q-25 -27 -56 -27 q-33 0 -57.5 26.5t-24.5 57.5q0 29 26 53.5t52 24.5v0q49 0 74 -45q25 -49 -14 -90zM971 29q-25 -27 -56 -27q-33 0 -57 26.5t-24 57.5q0 29 25.5 53.5t51.5 24.5v0q49 0 74 -45q25 -49 -14 -90zM762 29q-25 -27 -55 -27q-33 0 -57.5 26.5t-24.5 57.5q0 29 25.5 53.5 t51.5 24.5v0q49 0 74 -45q25 -49 -14 -90zM553 29q-25 -27 -55 -27q-33 0 -57.5 26.5t-24.5 57.5q0 29 25.5 53.5t52.5 24.5v0q49 0 73 -45q25 -49 -14 -90zM1389 27q-25 -27 -56 -27q-33 0 -57.5 26.5t-24.5 57.5q0 29 26 53.5t52 24.5v0q49 0 74 -45q25 -49 -14 -90z" />
<glyph unicode="F" d="M344 1501q-25 -27 -55 -26q-33 0 -57.5 26.5t-24.5 57.5q0 29 25.5 53t52.5 24v0q49 0 73 -45q25 -49 -14 -90zM135 1501q-25 -27 -55 -26q-33 0 -57.5 26.5t-24.5 57.5q0 29 25.5 53t52.5 24v0q49 0 74 -45q24 -49 -15 -90zM1180 1499q-25 -27 -56 -26q-33 0 -57.5 26.5 t-24.5 56.5q0 29 26 53.5t52 24.5v0q49 0 74 -45q25 -49 -14 -90zM971 1499q-25 -27 -56 -26q-33 0 -57 26.5t-24 56.5q0 29 25.5 53.5t51.5 24.5v0q49 0 74 -45q25 -49 -14 -90zM762 1499q-25 -27 -55 -26q-33 0 -57.5 26.5t-24.5 56.5q0 29 25.5 53.5t51.5 24.5v0 q49 0 74 -45q25 -49 -14 -90zM553 1499q-25 -27 -55 -26q-33 0 -57.5 26.5t-24.5 56.5q0 29 25.5 53.5t52.5 24.5v0q49 0 73 -45q25 -49 -14 -90zM1389 1497q-25 -27 -56 -27q-33 0 -57.5 27t-24.5 57q0 29 26 53.5t52 24.5v0q49 0 74 -45q25 -49 -14 -90zM135 1292 q-25 -27 -55 -26q-33 0 -57.5 26.5t-24.5 57.5q0 29 25.5 53t52.5 24v0q49 0 74 -45q24 -49 -15 -90zM1389 1288q-25 -27 -56 -26q-33 0 -57.5 26.5t-24.5 57.5q0 29 26 53t52 24v0q49 0 74 -45q25 -49 -14 -90zM137 1083q-25 -27 -55 -26q-33 0 -57.5 26.5t-24.5 57.5 q0 29 25.5 53.5t52.5 24.5v0q49 0 74 -45q24 -50 -15 -91zM344 874q-25 -27 -55 -26q-33 0 -57.5 26.5t-24.5 57.5q0 29 25.5 53.5t52.5 24.5v0q49 0 73 -45q25 -50 -14 -91zM135 874q-25 -27 -55 -26q-33 0 -57.5 26.5t-24.5 57.5q0 29 25.5 53.5t52.5 24.5v0q49 0 74 -45 q24 -50 -15 -91zM971 872q-25 -27 -56 -26q-33 0 -57 26.5t-24 57.5q0 29 25.5 53.5t51.5 24.5v0q49 0 74 -45q25 -50 -14 -91zM762 872q-25 -27 -55 -26q-33 0 -57.5 26.5t-24.5 57.5q0 29 25.5 53.5t51.5 24.5v0q49 0 74 -45q25 -50 -14 -91zM553 872q-25 -27 -55 -26 q-33 0 -57.5 26.5t-24.5 57.5q0 29 25.5 53.5t52.5 24.5v0q49 0 73 -45q25 -50 -14 -91zM135 664q-25 -27 -55 -27q-33 0 -57.5 26.5t-24.5 59.5q0 27 24.5 51.5t53.5 24.5v0q47 0 71 -47q27 -47 -12 -88zM135 453q-25 -27 -55 -27q-33 0 -57.5 26.5t-24.5 57.5 q0 29 25.5 53.5t52.5 24.5v0q49 0 74 -45q24 -49 -15 -90zM135 242q-25 -27 -55 -27q-33 0 -57.5 26.5t-24.5 57.5q0 29 25.5 53.5t52.5 24.5v0q49 0 74 -45q24 -49 -15 -90zM135 31q-25 -27 -55 -27q-33 0 -57.5 26.5t-24.5 57.5q0 29 25.5 53.5t52.5 24.5v0q49 0 74 -45 q24 -49 -15 -90z" />
<glyph unicode="G" d="M344 1501q-25 -27 -55 -26q-33 0 -57.5 26.5t-24.5 57.5q0 29 25.5 53t52.5 24v0q49 0 73 -45q25 -49 -14 -90zM1180 1499q-25 -27 -56 -26q-33 0 -57.5 26.5t-24.5 56.5q0 29 26 53.5t52 24.5v0q49 0 74 -45q25 -49 -14 -90zM971 1499q-25 -27 -56 -26q-33 0 -57 26.5 t-24 56.5q0 29 25.5 53.5t51.5 24.5v0q49 0 74 -45q25 -49 -14 -90zM762 1499q-25 -27 -55 -26q-33 0 -57.5 26.5t-24.5 56.5q0 29 25.5 53.5t51.5 24.5v0q49 0 74 -45q25 -49 -14 -90zM553 1499q-25 -27 -55 -26q-33 0 -57.5 26.5t-24.5 56.5q0 29 25.5 53.5t52.5 24.5v0 q49 0 73 -45q25 -49 -14 -90zM135 1292q-25 -27 -55 -26q-33 0 -57.5 26.5t-24.5 57.5q0 29 25.5 53t52.5 24v0q49 0 74 -45q24 -49 -15 -90zM1389 1288q-25 -27 -56 -26q-33 0 -57.5 26.5t-24.5 57.5q0 29 26 53t52 24v0q49 0 74 -45q25 -49 -14 -90zM137 1083 q-25 -27 -55 -26q-33 0 -57.5 26.5t-24.5 57.5q0 29 25.5 53.5t52.5 24.5v0q49 0 74 -45q24 -50 -15 -91zM135 874q-25 -27 -55 -26q-33 0 -57.5 26.5t-24.5 57.5q0 29 25.5 53.5t52.5 24.5v0q49 0 74 -45q24 -50 -15 -91zM135 664q-25 -27 -55 -27q-33 0 -57.5 26.5 t-24.5 59.5q0 27 24.5 51.5t53.5 24.5v0q47 0 71 -47q27 -47 -12 -88zM1180 662q-25 -27 -56 -27q-33 0 -57.5 26.5t-24.5 59.5q0 27 25 51.5t53 24.5v0q47 0 72 -47q27 -47 -12 -88zM1389 659q-25 -27 -56 -26q-33 0 -57.5 26.5t-24.5 59.5q0 27 24.5 51.5t53.5 24.5v0 q47 0 72 -47q27 -48 -12 -89zM135 453q-25 -27 -55 -27q-33 0 -57.5 26.5t-24.5 57.5q0 29 25.5 53.5t52.5 24.5v0q49 0 74 -45q24 -49 -15 -90zM1389 449q-25 -27 -56 -27q-33 0 -57.5 26.5t-24.5 57.5q0 29 26 53.5t52 24.5v0q49 0 74 -45q25 -49 -14 -90zM135 242 q-25 -27 -55 -27q-33 0 -57.5 26.5t-24.5 57.5q0 29 25.5 53.5t52.5 24.5v0q49 0 74 -45q24 -49 -15 -90zM1389 238q-25 -27 -56 -27q-33 0 -57.5 26.5t-24.5 57.5q0 29 26 53.5t52 24.5v0q49 0 74 -45q25 -49 -14 -90zM344 31q-25 -27 -55 -27q-33 0 -57.5 26.5t-24.5 57.5 q0 29 25.5 53.5t52.5 24.5v0q49 0 73 -45q25 -49 -14 -90zM1180 29q-25 -27 -56 -27q-33 0 -57.5 26.5t-24.5 57.5q0 29 26 53.5t52 24.5v0q49 0 74 -45q25 -49 -14 -90zM971 29q-25 -27 -56 -27q-33 0 -57 26.5t-24 57.5q0 29 25.5 53.5t51.5 24.5v0q49 0 74 -45 q25 -49 -14 -90zM762 29q-25 -27 -55 -27q-33 0 -57.5 26.5t-24.5 57.5q0 29 25.5 53.5t51.5 24.5v0q49 0 74 -45q25 -49 -14 -90zM553 29q-25 -27 -55 -27q-33 0 -57.5 26.5t-24.5 57.5q0 29 25.5 53.5t52.5 24.5v0q49 0 73 -45q25 -49 -14 -90z" />
<glyph unicode="H" d="M135 1501q-25 -27 -55 -26q-33 0 -57.5 26.5t-24.5 57.5q0 29 25.5 53t52.5 24v0q49 0 74 -45q24 -49 -15 -90zM1389 1497q-25 -27 -56 -27q-33 0 -57.5 27t-24.5 57q0 29 26 53.5t52 24.5v0q49 0 74 -45q25 -49 -14 -90zM135 1292q-25 -27 -55 -26q-33 0 -57.5 26.5 t-24.5 57.5q0 29 25.5 53t52.5 24v0q49 0 74 -45q24 -49 -15 -90zM1389 1288q-25 -27 -56 -26q-33 0 -57.5 26.5t-24.5 57.5q0 29 26 53t52 24v0q49 0 74 -45q25 -49 -14 -90zM137 1083q-25 -27 -55 -26q-33 0 -57.5 26.5t-24.5 57.5q0 29 25.5 53.5t52.5 24.5v0 q49 0 74 -45q24 -50 -15 -91zM1391 1079q-25 -27 -56 -26q-33 0 -57.5 26.5t-24.5 57.5q0 29 26 53t52 24v0q49 0 74 -45q25 -49 -14 -90zM135 874q-25 -27 -55 -26q-33 0 -57.5 26.5t-24.5 57.5q0 29 25.5 53.5t52.5 24.5v0q49 0 74 -45q24 -50 -15 -91zM1389 870 q-25 -27 -56 -26q-33 0 -57.5 26.5t-24.5 57.5q0 29 26 53.5t52 24.5v0q49 0 74 -45q25 -50 -14 -91zM344 664q-25 -27 -55 -27q-33 0 -57.5 26.5t-24.5 59.5q0 27 24.5 51.5t53.5 24.5v0q47 0 71 -47q27 -47 -12 -88zM135 664q-25 -27 -55 -27q-33 0 -57.5 26.5t-24.5 59.5 q0 27 24.5 51.5t53.5 24.5v0q47 0 71 -47q27 -47 -12 -88zM1180 662q-25 -27 -56 -27q-33 0 -57.5 26.5t-24.5 59.5q0 27 25 51.5t53 24.5v0q47 0 72 -47q27 -47 -12 -88zM971 662q-25 -27 -56 -27q-33 0 -57 26.5t-24 59.5q0 27 24.5 51.5t52.5 24.5v0q47 0 72 -47 q27 -47 -12 -88zM762 662q-25 -27 -55 -27q-33 0 -57.5 26.5t-24.5 59.5q0 27 24.5 51.5t52.5 24.5v0q47 0 72 -47q27 -47 -12 -88zM553 662q-25 -27 -55 -27q-33 0 -57.5 26.5t-24.5 59.5q0 27 24.5 51.5t53.5 24.5v0q47 0 71 -47q27 -47 -12 -88zM1389 659 q-25 -27 -56 -26q-33 0 -57.5 26.5t-24.5 59.5q0 27 24.5 51.5t53.5 24.5v0q47 0 72 -47q27 -48 -12 -89zM135 453q-25 -27 -55 -27q-33 0 -57.5 26.5t-24.5 57.5q0 29 25.5 53.5t52.5 24.5v0q49 0 74 -45q24 -49 -15 -90zM1389 449q-25 -27 -56 -27q-33 0 -57.5 26.5 t-24.5 57.5q0 29 26 53.5t52 24.5v0q49 0 74 -45q25 -49 -14 -90zM135 242q-25 -27 -55 -27q-33 0 -57.5 26.5t-24.5 57.5q0 29 25.5 53.5t52.5 24.5v0q49 0 74 -45q24 -49 -15 -90zM1389 238q-25 -27 -56 -27q-33 0 -57.5 26.5t-24.5 57.5q0 29 26 53.5t52 24.5v0 q49 0 74 -45q25 -49 -14 -90zM135 31q-25 -27 -55 -27q-33 0 -57.5 26.5t-24.5 57.5q0 29 25.5 53.5t52.5 24.5v0q49 0 74 -45q24 -49 -15 -90zM1389 27q-25 -27 -56 -27q-33 0 -57.5 26.5t-24.5 57.5q0 29 26 53.5t52 24.5v0q49 0 74 -45q25 -49 -14 -90z" />
<glyph unicode="I" horiz-adv-x="737" d="M344 1501q-25 -27 -55 -26q-33 0 -57.5 26.5t-24.5 57.5q0 29 25.5 53t52.5 24v0q49 0 73 -45q25 -49 -14 -90zM135 1501q-25 -27 -55 -26q-33 0 -57.5 26.5t-24.5 57.5q0 29 25.5 53t52.5 24v0q49 0 74 -45q24 -49 -15 -90zM553 1499q-25 -27 -55 -26q-33 0 -57.5 26.5 t-24.5 56.5q0 29 25.5 53.5t52.5 24.5v0q49 0 73 -45q25 -49 -14 -90zM344 1292q-25 -27 -55 -26q-33 0 -57.5 26.5t-24.5 57.5q0 29 25.5 53t52.5 24v0q49 0 73 -45q25 -49 -14 -90zM346 1083q-25 -27 -55 -26q-33 0 -57.5 26.5t-24.5 57.5q0 29 25.5 53.5t52.5 24.5v0 q49 0 73 -45q25 -50 -14 -91zM344 874q-25 -27 -55 -26q-33 0 -57.5 26.5t-24.5 57.5q0 29 25.5 53.5t52.5 24.5v0q49 0 73 -45q25 -50 -14 -91zM344 664q-25 -27 -55 -27q-33 0 -57.5 26.5t-24.5 59.5q0 27 24.5 51.5t53.5 24.5v0q47 0 71 -47q27 -47 -12 -88zM344 453 q-25 -27 -55 -27q-33 0 -57.5 26.5t-24.5 57.5q0 29 25.5 53.5t52.5 24.5v0q49 0 73 -45q25 -49 -14 -90zM344 242q-25 -27 -55 -27q-33 0 -57.5 26.5t-24.5 57.5q0 29 25.5 53.5t52.5 24.5v0q49 0 73 -45q25 -49 -14 -90zM344 31q-25 -27 -55 -27q-33 0 -57.5 26.5 t-24.5 57.5q0 29 25.5 53.5t52.5 24.5v0q49 0 73 -45q25 -49 -14 -90zM135 31q-25 -27 -55 -27q-33 0 -57.5 26.5t-24.5 57.5q0 29 25.5 53.5t52.5 24.5v0q49 0 74 -45q24 -49 -15 -90zM553 29q-25 -27 -55 -27q-33 0 -57.5 26.5t-24.5 57.5q0 29 25.5 53.5t52.5 24.5v0 q49 0 73 -45q25 -49 -14 -90z" />
<glyph unicode="J" d="M1389 1497q-25 -27 -56 -27q-33 0 -57.5 27t-24.5 57q0 29 26 53.5t52 24.5v0q49 0 74 -45q25 -49 -14 -90zM1389 1288q-25 -27 -56 -26q-33 0 -57.5 26.5t-24.5 57.5q0 29 26 53t52 24v0q49 0 74 -45q25 -49 -14 -90zM1391 1079q-25 -27 -56 -26q-33 0 -57.5 26.5 t-24.5 57.5q0 29 26 53t52 24v0q49 0 74 -45q25 -49 -14 -90zM1389 870q-25 -27 -56 -26q-33 0 -57.5 26.5t-24.5 57.5q0 29 26 53.5t52 24.5v0q49 0 74 -45q25 -50 -14 -91zM1389 659q-25 -27 -56 -26q-33 0 -57.5 26.5t-24.5 59.5q0 27 24.5 51.5t53.5 24.5v0q47 0 72 -47 q27 -48 -12 -89zM135 453q-25 -27 -55 -27q-33 0 -57.5 26.5t-24.5 57.5q0 29 25.5 53.5t52.5 24.5v0q49 0 74 -45q24 -49 -15 -90zM1389 449q-25 -27 -56 -27q-33 0 -57.5 26.5t-24.5 57.5q0 29 26 53.5t52 24.5v0q49 0 74 -45q25 -49 -14 -90zM135 242q-25 -27 -55 -27 q-33 0 -57.5 26.5t-24.5 57.5q0 29 25.5 53.5t52.5 24.5v0q49 0 74 -45q24 -49 -15 -90zM1389 238q-25 -27 -56 -27q-33 0 -57.5 26.5t-24.5 57.5q0 29 26 53.5t52 24.5v0q49 0 74 -45q25 -49 -14 -90zM344 31q-25 -27 -55 -27q-33 0 -57.5 26.5t-24.5 57.5q0 29 25.5 53.5 t52.5 24.5v0q49 0 73 -45q25 -49 -14 -90zM1180 29q-25 -27 -56 -27q-33 0 -57.5 26.5t-24.5 57.5q0 29 26 53.5t52 24.5v0q49 0 74 -45q25 -49 -14 -90zM971 29q-25 -27 -56 -27q-33 0 -57 26.5t-24 57.5q0 29 25.5 53.5t51.5 24.5v0q49 0 74 -45q25 -49 -14 -90zM762 29 q-25 -27 -55 -27q-33 0 -57.5 26.5t-24.5 57.5q0 29 25.5 53.5t51.5 24.5v0q49 0 74 -45q25 -49 -14 -90zM553 29q-25 -27 -55 -27q-33 0 -57.5 26.5t-24.5 57.5q0 29 25.5 53.5t52.5 24.5v0q49 0 73 -45q25 -49 -14 -90z" />
<glyph unicode="K" d="M135 1501q-25 -27 -55 -26q-33 0 -57.5 26.5t-24.5 57.5q0 29 25.5 53t52.5 24v0q49 0 74 -45q24 -49 -15 -90zM1389 1497q-25 -27 -56 -27q-33 0 -57.5 27t-24.5 57q0 29 26 53.5t52 24.5v0q49 0 74 -45q25 -49 -14 -90zM135 1292q-25 -27 -55 -26q-33 0 -57.5 26.5 t-24.5 57.5q0 29 25.5 53t52.5 24v0q49 0 74 -45q24 -49 -15 -90zM1180 1290q-25 -27 -56 -26q-33 0 -57.5 26.5t-24.5 57.5q0 29 26 53t52 24v0q49 0 74 -45q25 -49 -14 -90zM137 1083q-25 -27 -55 -26q-33 0 -57.5 26.5t-24.5 57.5q0 29 25.5 53.5t52.5 24.5v0 q49 0 74 -45q24 -50 -15 -91zM973 1081q-25 -27 -55 -26q-33 0 -57.5 26.5t-24.5 57.5q0 29 25.5 53.5t51.5 24.5v0q49 0 74 -46q25 -49 -14 -90zM344 874q-25 -27 -55 -26q-33 0 -57.5 26.5t-24.5 57.5q0 29 25.5 53.5t52.5 24.5v0q49 0 73 -45q25 -50 -14 -91zM135 874 q-25 -27 -55 -26q-33 0 -57.5 26.5t-24.5 57.5q0 29 25.5 53.5t52.5 24.5v0q49 0 74 -45q24 -50 -15 -91zM762 872q-25 -27 -55 -26q-33 0 -57.5 26.5t-24.5 57.5q0 29 25.5 53.5t51.5 24.5v0q49 0 74 -45q25 -50 -14 -91zM553 872q-25 -27 -55 -26q-33 0 -57.5 26.5 t-24.5 57.5q0 29 25.5 53.5t52.5 24.5v0q49 0 73 -45q25 -50 -14 -91zM135 664q-25 -27 -55 -27q-33 0 -57.5 26.5t-24.5 59.5q0 27 24.5 51.5t53.5 24.5v0q47 0 71 -47q27 -47 -12 -88zM762 662q-25 -27 -55 -27q-33 0 -57.5 26.5t-24.5 59.5q0 27 24.5 51.5t52.5 24.5v0 q47 0 72 -47q27 -47 -12 -88zM135 453q-25 -27 -55 -27q-33 0 -57.5 26.5t-24.5 57.5q0 29 25.5 53.5t52.5 24.5v0q49 0 74 -45q24 -49 -15 -90zM971 451q-25 -27 -56 -27q-33 0 -57 26.5t-24 57.5q0 29 25.5 53.5t51.5 24.5v0q49 0 74 -45q25 -49 -14 -90zM135 242 q-25 -27 -55 -27q-33 0 -57.5 26.5t-24.5 57.5q0 29 25.5 53.5t52.5 24.5v0q49 0 74 -45q24 -49 -15 -90zM1180 240q-25 -27 -56 -27q-33 0 -57.5 26.5t-24.5 57.5q0 29 26 53.5t52 24.5v0q49 0 74 -45q25 -49 -14 -90zM135 31q-25 -27 -55 -27q-33 0 -57.5 26.5t-24.5 57.5 q0 29 25.5 53.5t52.5 24.5v0q49 0 74 -45q24 -49 -15 -90zM1389 27q-25 -27 -56 -27q-33 0 -57.5 26.5t-24.5 57.5q0 29 26 53.5t52 24.5v0q49 0 74 -45q25 -49 -14 -90z" />
<glyph unicode="L" d="M344 1501q-25 -27 -55 -26q-33 0 -57.5 26.5t-24.5 57.5q0 29 25.5 53t52.5 24v0q49 0 73 -45q25 -49 -14 -90zM135 1501q-25 -27 -55 -26q-33 0 -57.5 26.5t-24.5 57.5q0 29 25.5 53t52.5 24v0q49 0 74 -45q24 -49 -15 -90zM553 1499q-25 -27 -55 -26q-33 0 -57.5 26.5 t-24.5 56.5q0 29 25.5 53.5t52.5 24.5v0q49 0 73 -45q25 -49 -14 -90zM344 1292q-25 -27 -55 -26q-33 0 -57.5 26.5t-24.5 57.5q0 29 25.5 53t52.5 24v0q49 0 73 -45q25 -49 -14 -90zM346 1083q-25 -27 -55 -26q-33 0 -57.5 26.5t-24.5 57.5q0 29 25.5 53.5t52.5 24.5v0 q49 0 73 -45q25 -50 -14 -91zM344 874q-25 -27 -55 -26q-33 0 -57.5 26.5t-24.5 57.5q0 29 25.5 53.5t52.5 24.5v0q49 0 73 -45q25 -50 -14 -91zM344 664q-25 -27 -55 -27q-33 0 -57.5 26.5t-24.5 59.5q0 27 24.5 51.5t53.5 24.5v0q47 0 71 -47q27 -47 -12 -88zM344 453 q-25 -27 -55 -27q-33 0 -57.5 26.5t-24.5 57.5q0 29 25.5 53.5t52.5 24.5v0q49 0 73 -45q25 -49 -14 -90zM344 242q-25 -27 -55 -27q-33 0 -57.5 26.5t-24.5 57.5q0 29 25.5 53.5t52.5 24.5v0q49 0 73 -45q25 -49 -14 -90zM344 31q-25 -27 -55 -27q-33 0 -57.5 26.5 t-24.5 57.5q0 29 25.5 53.5t52.5 24.5v0q49 0 73 -45q25 -49 -14 -90zM135 31q-25 -27 -55 -27q-33 0 -57.5 26.5t-24.5 57.5q0 29 25.5 53.5t52.5 24.5v0q49 0 74 -45q24 -49 -15 -90zM1180 29q-25 -27 -56 -27q-33 0 -57.5 26.5t-24.5 57.5q0 29 26 53.5t52 24.5v0 q49 0 74 -45q25 -49 -14 -90zM971 29q-25 -27 -56 -27q-33 0 -57 26.5t-24 57.5q0 29 25.5 53.5t51.5 24.5v0q49 0 74 -45q25 -49 -14 -90zM762 29q-25 -27 -55 -27q-33 0 -57.5 26.5t-24.5 57.5q0 29 25.5 53.5t51.5 24.5v0q49 0 74 -45q25 -49 -14 -90zM553 29 q-25 -27 -55 -27q-33 0 -57.5 26.5t-24.5 57.5q0 29 25.5 53.5t52.5 24.5v0q49 0 73 -45q25 -49 -14 -90zM1389 27q-25 -27 -56 -27q-33 0 -57.5 26.5t-24.5 57.5q0 29 26 53.5t52 24.5v0q49 0 74 -45q25 -49 -14 -90z" />
<glyph unicode="M" d="M135 1501q-25 -27 -55 -26q-33 0 -57.5 26.5t-24.5 57.5q0 29 25.5 53t52.5 24v0q49 0 74 -45q24 -49 -15 -90zM1389 1497q-25 -27 -56 -27q-33 0 -57.5 27t-24.5 57q0 29 26 53.5t52 24.5v0q49 0 74 -45q25 -49 -14 -90zM344 1292q-25 -27 -55 -26q-33 0 -57.5 26.5 t-24.5 57.5q0 29 25.5 53t52.5 24v0q49 0 73 -45q25 -49 -14 -90zM135 1292q-25 -27 -55 -26q-33 0 -57.5 26.5t-24.5 57.5q0 29 25.5 53t52.5 24v0q49 0 74 -45q24 -49 -15 -90zM1180 1290q-25 -27 -56 -26q-33 0 -57.5 26.5t-24.5 57.5q0 29 26 53t52 24v0q49 0 74 -45 q25 -49 -14 -90zM1389 1288q-25 -27 -56 -26q-33 0 -57.5 26.5t-24.5 57.5q0 29 26 53t52 24v0q49 0 74 -45q25 -49 -14 -90zM137 1083q-25 -27 -55 -26q-33 0 -57.5 26.5t-24.5 57.5q0 29 25.5 53.5t52.5 24.5v0q49 0 74 -45q24 -50 -15 -91zM973 1081q-25 -27 -55 -26 q-33 0 -57.5 26.5t-24.5 57.5q0 29 25.5 53.5t51.5 24.5v0q49 0 74 -46q25 -49 -14 -90zM555 1081q-25 -27 -55 -26q-33 0 -57.5 26.5t-24.5 57.5q0 29 25.5 53.5t52.5 24.5v0q49 0 73 -46q25 -49 -14 -90zM1391 1079q-25 -27 -56 -26q-33 0 -57.5 26.5t-24.5 57.5 q0 29 26 53t52 24v0q49 0 74 -45q25 -49 -14 -90zM135 874q-25 -27 -55 -26q-33 0 -57.5 26.5t-24.5 57.5q0 29 25.5 53.5t52.5 24.5v0q49 0 74 -45q24 -50 -15 -91zM762 872q-25 -27 -55 -26q-33 0 -57.5 26.5t-24.5 57.5q0 29 25.5 53.5t51.5 24.5v0q49 0 74 -45 q25 -50 -14 -91zM1389 870q-25 -27 -56 -26q-33 0 -57.5 26.5t-24.5 57.5q0 29 26 53.5t52 24.5v0q49 0 74 -45q25 -50 -14 -91zM135 664q-25 -27 -55 -27q-33 0 -57.5 26.5t-24.5 59.5q0 27 24.5 51.5t53.5 24.5v0q47 0 71 -47q27 -47 -12 -88zM1389 659q-25 -27 -56 -26 q-33 0 -57.5 26.5t-24.5 59.5q0 27 24.5 51.5t53.5 24.5v0q47 0 72 -47q27 -48 -12 -89zM135 453q-25 -27 -55 -27q-33 0 -57.5 26.5t-24.5 57.5q0 29 25.5 53.5t52.5 24.5v0q49 0 74 -45q24 -49 -15 -90zM1389 449q-25 -27 -56 -27q-33 0 -57.5 26.5t-24.5 57.5 q0 29 26 53.5t52 24.5v0q49 0 74 -45q25 -49 -14 -90zM135 242q-25 -27 -55 -27q-33 0 -57.5 26.5t-24.5 57.5q0 29 25.5 53.5t52.5 24.5v0q49 0 74 -45q24 -49 -15 -90zM1389 238q-25 -27 -56 -27q-33 0 -57.5 26.5t-24.5 57.5q0 29 26 53.5t52 24.5v0q49 0 74 -45 q25 -49 -14 -90zM135 31q-25 -27 -55 -27q-33 0 -57.5 26.5t-24.5 57.5q0 29 25.5 53.5t52.5 24.5v0q49 0 74 -45q24 -49 -15 -90zM1389 27q-25 -27 -56 -27q-33 0 -57.5 26.5t-24.5 57.5q0 29 26 53.5t52 24.5v0q49 0 74 -45q25 -49 -14 -90z" />
<glyph unicode="N" d="M135 1501q-25 -27 -55 -26q-33 0 -57.5 26.5t-24.5 57.5q0 29 25.5 53t52.5 24v0q49 0 74 -45q24 -49 -15 -90zM1389 1497q-25 -27 -56 -27q-33 0 -57.5 27t-24.5 57q0 29 26 53.5t52 24.5v0q49 0 74 -45q25 -49 -14 -90zM344 1292q-25 -27 -55 -26q-33 0 -57.5 26.5 t-24.5 57.5q0 29 25.5 53t52.5 24v0q49 0 73 -45q25 -49 -14 -90zM135 1292q-25 -27 -55 -26q-33 0 -57.5 26.5t-24.5 57.5q0 29 25.5 53t52.5 24v0q49 0 74 -45q24 -49 -15 -90zM1389 1288q-25 -27 -56 -26q-33 0 -57.5 26.5t-24.5 57.5q0 29 26 53t52 24v0q49 0 74 -45 q25 -49 -14 -90zM137 1083q-25 -27 -55 -26q-33 0 -57.5 26.5t-24.5 57.5q0 29 25.5 53.5t52.5 24.5v0q49 0 74 -45q24 -50 -15 -91zM555 1081q-25 -27 -55 -26q-33 0 -57.5 26.5t-24.5 57.5q0 29 25.5 53.5t52.5 24.5v0q49 0 73 -46q25 -49 -14 -90zM1391 1079 q-25 -27 -56 -26q-33 0 -57.5 26.5t-24.5 57.5q0 29 26 53t52 24v0q49 0 74 -45q25 -49 -14 -90zM135 874q-25 -27 -55 -26q-33 0 -57.5 26.5t-24.5 57.5q0 29 25.5 53.5t52.5 24.5v0q49 0 74 -45q24 -50 -15 -91zM762 872q-25 -27 -55 -26q-33 0 -57.5 26.5t-24.5 57.5 q0 29 25.5 53.5t51.5 24.5v0q49 0 74 -45q25 -50 -14 -91zM1389 870q-25 -27 -56 -26q-33 0 -57.5 26.5t-24.5 57.5q0 29 26 53.5t52 24.5v0q49 0 74 -45q25 -50 -14 -91zM135 664q-25 -27 -55 -27q-33 0 -57.5 26.5t-24.5 59.5q0 27 24.5 51.5t53.5 24.5v0q47 0 71 -47 q27 -47 -12 -88zM971 662q-25 -27 -56 -27q-33 0 -57 26.5t-24 59.5q0 27 24.5 51.5t52.5 24.5v0q47 0 72 -47q27 -47 -12 -88zM1389 659q-25 -27 -56 -26q-33 0 -57.5 26.5t-24.5 59.5q0 27 24.5 51.5t53.5 24.5v0q47 0 72 -47q27 -48 -12 -89zM135 453q-25 -27 -55 -27 q-33 0 -57.5 26.5t-24.5 57.5q0 29 25.5 53.5t52.5 24.5v0q49 0 74 -45q24 -49 -15 -90zM1180 451q-25 -27 -56 -27q-33 0 -57.5 26.5t-24.5 57.5q0 29 26 53.5t52 24.5v0q49 0 74 -45q25 -49 -14 -90zM1389 449q-25 -27 -56 -27q-33 0 -57.5 26.5t-24.5 57.5q0 29 26 53.5 t52 24.5v0q49 0 74 -45q25 -49 -14 -90zM135 242q-25 -27 -55 -27q-33 0 -57.5 26.5t-24.5 57.5q0 29 25.5 53.5t52.5 24.5v0q49 0 74 -45q24 -49 -15 -90zM1389 238q-25 -27 -56 -27q-33 0 -57.5 26.5t-24.5 57.5q0 29 26 53.5t52 24.5v0q49 0 74 -45q25 -49 -14 -90z M135 31q-25 -27 -55 -27q-33 0 -57.5 26.5t-24.5 57.5q0 29 25.5 53.5t52.5 24.5v0q49 0 74 -45q24 -49 -15 -90zM1389 27q-25 -27 -56 -27q-33 0 -57.5 26.5t-24.5 57.5q0 29 26 53.5t52 24.5v0q49 0 74 -45q25 -49 -14 -90z" />
<glyph unicode="O" d="M344 1501q-25 -27 -55 -26q-33 0 -57.5 26.5t-24.5 57.5q0 29 25.5 53t52.5 24v0q49 0 73 -45q25 -49 -14 -90zM1180 1499q-25 -27 -56 -26q-33 0 -57.5 26.5t-24.5 56.5q0 29 26 53.5t52 24.5v0q49 0 74 -45q25 -49 -14 -90zM971 1499q-25 -27 -56 -26q-33 0 -57 26.5 t-24 56.5q0 29 25.5 53.5t51.5 24.5v0q49 0 74 -45q25 -49 -14 -90zM762 1499q-25 -27 -55 -26q-33 0 -57.5 26.5t-24.5 56.5q0 29 25.5 53.5t51.5 24.5v0q49 0 74 -45q25 -49 -14 -90zM553 1499q-25 -27 -55 -26q-33 0 -57.5 26.5t-24.5 56.5q0 29 25.5 53.5t52.5 24.5v0 q49 0 73 -45q25 -49 -14 -90zM135 1292q-25 -27 -55 -26q-33 0 -57.5 26.5t-24.5 57.5q0 29 25.5 53t52.5 24v0q49 0 74 -45q24 -49 -15 -90zM1389 1288q-25 -27 -56 -26q-33 0 -57.5 26.5t-24.5 57.5q0 29 26 53t52 24v0q49 0 74 -45q25 -49 -14 -90zM137 1083 q-25 -27 -55 -26q-33 0 -57.5 26.5t-24.5 57.5q0 29 25.5 53.5t52.5 24.5v0q49 0 74 -45q24 -50 -15 -91zM1391 1079q-25 -27 -56 -26q-33 0 -57.5 26.5t-24.5 57.5q0 29 26 53t52 24v0q49 0 74 -45q25 -49 -14 -90zM135 874q-25 -27 -55 -26q-33 0 -57.5 26.5t-24.5 57.5 q0 29 25.5 53.5t52.5 24.5v0q49 0 74 -45q24 -50 -15 -91zM1389 870q-25 -27 -56 -26q-33 0 -57.5 26.5t-24.5 57.5q0 29 26 53.5t52 24.5v0q49 0 74 -45q25 -50 -14 -91zM135 664q-25 -27 -55 -27q-33 0 -57.5 26.5t-24.5 59.5q0 27 24.5 51.5t53.5 24.5v0q47 0 71 -47 q27 -47 -12 -88zM1389 659q-25 -27 -56 -26q-33 0 -57.5 26.5t-24.5 59.5q0 27 24.5 51.5t53.5 24.5v0q47 0 72 -47q27 -48 -12 -89zM135 453q-25 -27 -55 -27q-33 0 -57.5 26.5t-24.5 57.5q0 29 25.5 53.5t52.5 24.5v0q49 0 74 -45q24 -49 -15 -90zM1389 449 q-25 -27 -56 -27q-33 0 -57.5 26.5t-24.5 57.5q0 29 26 53.5t52 24.5v0q49 0 74 -45q25 -49 -14 -90zM135 242q-25 -27 -55 -27q-33 0 -57.5 26.5t-24.5 57.5q0 29 25.5 53.5t52.5 24.5v0q49 0 74 -45q24 -49 -15 -90zM1389 238q-25 -27 -56 -27q-33 0 -57.5 26.5 t-24.5 57.5q0 29 26 53.5t52 24.5v0q49 0 74 -45q25 -49 -14 -90zM344 31q-25 -27 -55 -27q-33 0 -57.5 26.5t-24.5 57.5q0 29 25.5 53.5t52.5 24.5v0q49 0 73 -45q25 -49 -14 -90zM1180 29q-25 -27 -56 -27q-33 0 -57.5 26.5t-24.5 57.5q0 29 26 53.5t52 24.5v0 q49 0 74 -45q25 -49 -14 -90zM971 29q-25 -27 -56 -27q-33 0 -57 26.5t-24 57.5q0 29 25.5 53.5t51.5 24.5v0q49 0 74 -45q25 -49 -14 -90zM762 29q-25 -27 -55 -27q-33 0 -57.5 26.5t-24.5 57.5q0 29 25.5 53.5t51.5 24.5v0q49 0 74 -45q25 -49 -14 -90zM553 29 q-25 -27 -55 -27q-33 0 -57.5 26.5t-24.5 57.5q0 29 25.5 53.5t52.5 24.5v0q49 0 73 -45q25 -49 -14 -90z" />
<glyph unicode="P" d="M344 1501q-25 -27 -55 -26q-33 0 -57.5 26.5t-24.5 57.5q0 29 25.5 53t52.5 24v0q49 0 73 -45q25 -49 -14 -90zM1180 1499q-25 -27 -56 -26q-33 0 -57.5 26.5t-24.5 56.5q0 29 26 53.5t52 24.5v0q49 0 74 -45q25 -49 -14 -90zM971 1499q-25 -27 -56 -26q-33 0 -57 26.5 t-24 56.5q0 29 25.5 53.5t51.5 24.5v0q49 0 74 -45q25 -49 -14 -90zM762 1499q-25 -27 -55 -26q-33 0 -57.5 26.5t-24.5 56.5q0 29 25.5 53.5t51.5 24.5v0q49 0 74 -45q25 -49 -14 -90zM553 1499q-25 -27 -55 -26q-33 0 -57.5 26.5t-24.5 56.5q0 29 25.5 53.5t52.5 24.5v0 q49 0 73 -45q25 -49 -14 -90zM145 1495q-25 -27 -55 -27q-33 0 -57.5 27t-24.5 57q0 29 25.5 53.5t52.5 24.5v0q49 0 74 -45q24 -49 -15 -90zM344 1292q-25 -27 -55 -26q-33 0 -57.5 26.5t-24.5 57.5q0 29 25.5 53t52.5 24v0q49 0 73 -45q25 -49 -14 -90zM1389 1288 q-25 -27 -56 -26q-33 0 -57.5 26.5t-24.5 57.5q0 29 26 53t52 24v0q49 0 74 -45q25 -49 -14 -90zM346 1083q-25 -27 -55 -26q-33 0 -57.5 26.5t-24.5 57.5q0 29 25.5 53.5t52.5 24.5v0q49 0 73 -45q25 -50 -14 -91zM1391 1079q-25 -27 -56 -26q-33 0 -57.5 26.5t-24.5 57.5 q0 29 26 53t52 24v0q49 0 74 -45q25 -49 -14 -90zM344 874q-25 -27 -55 -26q-33 0 -57.5 26.5t-24.5 57.5q0 29 25.5 53.5t52.5 24.5v0q49 0 73 -45q25 -50 -14 -91zM1180 872q-25 -27 -56 -26q-33 0 -57.5 26.5t-24.5 57.5q0 29 26 53.5t52 24.5v0q49 0 74 -45 q25 -50 -14 -91zM971 872q-25 -27 -56 -26q-33 0 -57 26.5t-24 57.5q0 29 25.5 53.5t51.5 24.5v0q49 0 74 -45q25 -50 -14 -91zM762 872q-25 -27 -55 -26q-33 0 -57.5 26.5t-24.5 57.5q0 29 25.5 53.5t51.5 24.5v0q49 0 74 -45q25 -50 -14 -91zM553 872q-25 -27 -55 -26 q-33 0 -57.5 26.5t-24.5 57.5q0 29 25.5 53.5t52.5 24.5v0q49 0 73 -45q25 -50 -14 -91zM344 664q-25 -27 -55 -27q-33 0 -57.5 26.5t-24.5 59.5q0 27 24.5 51.5t53.5 24.5v0q47 0 71 -47q27 -47 -12 -88zM344 453q-25 -27 -55 -27q-33 0 -57.5 26.5t-24.5 57.5 q0 29 25.5 53.5t52.5 24.5v0q49 0 73 -45q25 -49 -14 -90zM344 242q-25 -27 -55 -27q-33 0 -57.5 26.5t-24.5 57.5q0 29 25.5 53.5t52.5 24.5v0q49 0 73 -45q25 -49 -14 -90zM344 31q-25 -27 -55 -27q-33 0 -57.5 26.5t-24.5 57.5q0 29 25.5 53.5t52.5 24.5v0q49 0 73 -45 q25 -49 -14 -90zM135 31q-25 -27 -55 -27q-33 0 -57.5 26.5t-24.5 57.5q0 29 25.5 53.5t52.5 24.5v0q49 0 74 -45q24 -49 -15 -90zM553 29q-25 -27 -55 -27q-33 0 -57.5 26.5t-24.5 57.5q0 29 25.5 53.5t52.5 24.5v0q49 0 73 -45q25 -49 -14 -90z" />
<glyph unicode="Q" d="M344 1501q-25 -27 -55 -26q-33 0 -57.5 26.5t-24.5 57.5q0 29 25.5 53t52.5 24v0q49 0 73 -45q25 -49 -14 -90zM1180 1499q-25 -27 -56 -26q-33 0 -57.5 26.5t-24.5 56.5q0 29 26 53.5t52 24.5v0q49 0 74 -45q25 -49 -14 -90zM971 1499q-25 -27 -56 -26q-33 0 -57 26.5 t-24 56.5q0 29 25.5 53.5t51.5 24.5v0q49 0 74 -45q25 -49 -14 -90zM762 1499q-25 -27 -55 -26q-33 0 -57.5 26.5t-24.5 56.5q0 29 25.5 53.5t51.5 24.5v0q49 0 74 -45q25 -49 -14 -90zM553 1499q-25 -27 -55 -26q-33 0 -57.5 26.5t-24.5 56.5q0 29 25.5 53.5t52.5 24.5v0 q49 0 73 -45q25 -49 -14 -90zM135 1292q-25 -27 -55 -26q-33 0 -57.5 26.5t-24.5 57.5q0 29 25.5 53t52.5 24v0q49 0 74 -45q24 -49 -15 -90zM1389 1288q-25 -27 -56 -26q-33 0 -57.5 26.5t-24.5 57.5q0 29 26 53t52 24v0q49 0 74 -45q25 -49 -14 -90zM137 1083 q-25 -27 -55 -26q-33 0 -57.5 26.5t-24.5 57.5q0 29 25.5 53.5t52.5 24.5v0q49 0 74 -45q24 -50 -15 -91zM1391 1079q-25 -27 -56 -26q-33 0 -57.5 26.5t-24.5 57.5q0 29 26 53t52 24v0q49 0 74 -45q25 -49 -14 -90zM135 874q-25 -27 -55 -26q-33 0 -57.5 26.5t-24.5 57.5 q0 29 25.5 53.5t52.5 24.5v0q49 0 74 -45q24 -50 -15 -91zM1389 870q-25 -27 -56 -26q-33 0 -57.5 26.5t-24.5 57.5q0 29 26 53.5t52 24.5v0q49 0 74 -45q25 -50 -14 -91zM135 664q-25 -27 -55 -27q-33 0 -57.5 26.5t-24.5 59.5q0 27 24.5 51.5t53.5 24.5v0q47 0 71 -47 q27 -47 -12 -88zM1389 659q-25 -27 -56 -26q-33 0 -57.5 26.5t-24.5 59.5q0 27 24.5 51.5t53.5 24.5v0q47 0 72 -47q27 -48 -12 -89zM135 453q-25 -27 -55 -27q-33 0 -57.5 26.5t-24.5 57.5q0 29 25.5 53.5t52.5 24.5v0q49 0 74 -45q24 -49 -15 -90zM1389 449 q-25 -27 -56 -27q-33 0 -57.5 26.5t-24.5 57.5q0 29 26 53.5t52 24.5v0q49 0 74 -45q25 -49 -14 -90zM135 242q-25 -27 -55 -27q-33 0 -57.5 26.5t-24.5 57.5q0 29 25.5 53.5t52.5 24.5v0q49 0 74 -45q24 -49 -15 -90zM971 240q-25 -27 -56 -27q-33 0 -57 26.5t-24 57.5 q0 29 25.5 53.5t51.5 24.5v0q49 0 74 -45q25 -49 -14 -90zM1389 238q-25 -27 -56 -27q-33 0 -57.5 26.5t-24.5 57.5q0 29 26 53.5t52 24.5v0q49 0 74 -45q25 -49 -14 -90zM344 31q-25 -27 -55 -27q-33 0 -57.5 26.5t-24.5 57.5q0 29 25.5 53.5t52.5 24.5v0q49 0 73 -45 q25 -49 -14 -90zM1180 29q-25 -27 -56 -27q-33 0 -57.5 26.5t-24.5 57.5q0 29 26 53.5t52 24.5v0q49 0 74 -45q25 -49 -14 -90zM971 29q-25 -27 -56 -27q-33 0 -57 26.5t-24 57.5q0 29 25.5 53.5t51.5 24.5v0q49 0 74 -45q25 -49 -14 -90zM762 29q-25 -27 -55 -27 q-33 0 -57.5 26.5t-24.5 57.5q0 29 25.5 53.5t51.5 24.5v0q49 0 74 -45q25 -49 -14 -90zM553 29q-25 -27 -55 -27q-33 0 -57.5 26.5t-24.5 57.5q0 29 25.5 53.5t52.5 24.5v0q49 0 73 -45q25 -49 -14 -90zM1184 -199q-25 -27 -56 -26q-33 0 -57 26.5t-24 57.5q0 29 25.5 53.5 t51.5 24.5v0q49 0 74 -46q25 -49 -14 -90z" />
<glyph unicode="R" d="M344 1501q-25 -27 -55 -26q-33 0 -57.5 26.5t-24.5 57.5q0 29 25.5 53t52.5 24v0q49 0 73 -45q25 -49 -14 -90zM135 1501q-25 -27 -55 -26q-33 0 -57.5 26.5t-24.5 57.5q0 29 25.5 53t52.5 24v0q49 0 74 -45q24 -49 -15 -90zM1180 1499q-25 -27 -56 -26q-33 0 -57.5 26.5 t-24.5 56.5q0 29 26 53.5t52 24.5v0q49 0 74 -45q25 -49 -14 -90zM971 1499q-25 -27 -56 -26q-33 0 -57 26.5t-24 56.5q0 29 25.5 53.5t51.5 24.5v0q49 0 74 -45q25 -49 -14 -90zM762 1499q-25 -27 -55 -26q-33 0 -57.5 26.5t-24.5 56.5q0 29 25.5 53.5t51.5 24.5v0 q49 0 74 -45q25 -49 -14 -90zM553 1499q-25 -27 -55 -26q-33 0 -57.5 26.5t-24.5 56.5q0 29 25.5 53.5t52.5 24.5v0q49 0 73 -45q25 -49 -14 -90zM344 1292q-25 -27 -55 -26q-33 0 -57.5 26.5t-24.5 57.5q0 29 25.5 53t52.5 24v0q49 0 73 -45q25 -49 -14 -90zM1389 1288 q-25 -27 -56 -26q-33 0 -57.5 26.5t-24.5 57.5q0 29 26 53t52 24v0q49 0 74 -45q25 -49 -14 -90zM346 1083q-25 -27 -55 -26q-33 0 -57.5 26.5t-24.5 57.5q0 29 25.5 53.5t52.5 24.5v0q49 0 73 -45q25 -50 -14 -91zM1391 1079q-25 -27 -56 -26q-33 0 -57.5 26.5t-24.5 57.5 q0 29 26 53t52 24v0q49 0 74 -45q25 -49 -14 -90zM344 874q-25 -27 -55 -26q-33 0 -57.5 26.5t-24.5 57.5q0 29 25.5 53.5t52.5 24.5v0q49 0 73 -45q25 -50 -14 -91zM1180 872q-25 -27 -56 -26q-33 0 -57.5 26.5t-24.5 57.5q0 29 26 53.5t52 24.5v0q49 0 74 -45 q25 -50 -14 -91zM971 872q-25 -27 -56 -26q-33 0 -57 26.5t-24 57.5q0 29 25.5 53.5t51.5 24.5v0q49 0 74 -45q25 -50 -14 -91zM762 872q-25 -27 -55 -26q-33 0 -57.5 26.5t-24.5 57.5q0 29 25.5 53.5t51.5 24.5v0q49 0 74 -45q25 -50 -14 -91zM553 872q-25 -27 -55 -26 q-33 0 -57.5 26.5t-24.5 57.5q0 29 25.5 53.5t52.5 24.5v0q49 0 73 -45q25 -50 -14 -91zM344 664q-25 -27 -55 -27q-33 0 -57.5 26.5t-24.5 59.5q0 27 24.5 51.5t53.5 24.5v0q47 0 71 -47q27 -47 -12 -88zM762 662q-25 -27 -55 -27q-33 0 -57.5 26.5t-24.5 59.5 q0 27 24.5 51.5t52.5 24.5v0q47 0 72 -47q27 -47 -12 -88zM344 453q-25 -27 -55 -27q-33 0 -57.5 26.5t-24.5 57.5q0 29 25.5 53.5t52.5 24.5v0q49 0 73 -45q25 -49 -14 -90zM971 451q-25 -27 -56 -27q-33 0 -57 26.5t-24 57.5q0 29 25.5 53.5t51.5 24.5v0q49 0 74 -45 q25 -49 -14 -90zM344 242q-25 -27 -55 -27q-33 0 -57.5 26.5t-24.5 57.5q0 29 25.5 53.5t52.5 24.5v0q49 0 73 -45q25 -49 -14 -90zM1180 240q-25 -27 -56 -27q-33 0 -57.5 26.5t-24.5 57.5q0 29 26 53.5t52 24.5v0q49 0 74 -45q25 -49 -14 -90zM344 31q-25 -27 -55 -27 q-33 0 -57.5 26.5t-24.5 57.5q0 29 25.5 53.5t52.5 24.5v0q49 0 73 -45q25 -49 -14 -90zM135 31q-25 -27 -55 -27q-33 0 -57.5 26.5t-24.5 57.5q0 29 25.5 53.5t52.5 24.5v0q49 0 74 -45q24 -49 -15 -90zM553 29q-25 -27 -55 -27q-33 0 -57.5 26.5t-24.5 57.5 q0 29 25.5 53.5t52.5 24.5v0q49 0 73 -45q25 -49 -14 -90zM1389 27q-25 -27 -56 -27q-33 0 -57.5 26.5t-24.5 57.5q0 29 26 53.5t52 24.5v0q49 0 74 -45q25 -49 -14 -90z" />
<glyph unicode="S" d="M344 1501q-25 -27 -55 -26q-33 0 -57.5 26.5t-24.5 57.5q0 29 25.5 53t52.5 24v0q49 0 73 -45q25 -49 -14 -90zM1180 1499q-25 -27 -56 -26q-33 0 -57.5 26.5t-24.5 56.5q0 29 26 53.5t52 24.5v0q49 0 74 -45q25 -49 -14 -90zM971 1499q-25 -27 -56 -26q-33 0 -57 26.5 t-24 56.5q0 29 25.5 53.5t51.5 24.5v0q49 0 74 -45q25 -49 -14 -90zM762 1499q-25 -27 -55 -26q-33 0 -57.5 26.5t-24.5 56.5q0 29 25.5 53.5t51.5 24.5v0q49 0 74 -45q25 -49 -14 -90zM553 1499q-25 -27 -55 -26q-33 0 -57.5 26.5t-24.5 56.5q0 29 25.5 53.5t52.5 24.5v0 q49 0 73 -45q25 -49 -14 -90zM135 1292q-25 -27 -55 -26q-33 0 -57.5 26.5t-24.5 57.5q0 29 25.5 53t52.5 24v0q49 0 74 -45q24 -49 -15 -90zM1389 1288q-25 -27 -56 -26q-33 0 -57.5 26.5t-24.5 57.5q0 29 26 53t52 24v0q49 0 74 -45q25 -49 -14 -90zM137 1083 q-25 -27 -55 -26q-33 0 -57.5 26.5t-24.5 57.5q0 29 25.5 53.5t52.5 24.5v0q49 0 74 -45q24 -50 -15 -91zM344 874q-25 -27 -55 -26q-33 0 -57.5 26.5t-24.5 57.5q0 29 25.5 53.5t52.5 24.5v0q49 0 73 -45q25 -50 -14 -91zM1180 662q-25 -27 -56 -27q-33 0 -57.5 26.5 t-24.5 59.5q0 27 25 51.5t53 24.5v0q47 0 72 -47q27 -47 -12 -88zM971 662q-25 -27 -56 -27q-33 0 -57 26.5t-24 59.5q0 27 24.5 51.5t52.5 24.5v0q47 0 72 -47q27 -47 -12 -88zM762 662q-25 -27 -55 -27q-33 0 -57.5 26.5t-24.5 59.5q0 27 24.5 51.5t52.5 24.5v0 q47 0 72 -47q27 -47 -12 -88zM553 662q-25 -27 -55 -27q-33 0 -57.5 26.5t-24.5 59.5q0 27 24.5 51.5t53.5 24.5v0q47 0 71 -47q27 -47 -12 -88zM1389 449q-25 -27 -56 -27q-33 0 -57.5 26.5t-24.5 57.5q0 29 26 53.5t52 24.5v0q49 0 74 -45q25 -49 -14 -90zM135 242 q-25 -27 -55 -27q-33 0 -57.5 26.5t-24.5 57.5q0 29 25.5 53.5t52.5 24.5v0q49 0 74 -45q24 -49 -15 -90zM1389 238q-25 -27 -56 -27q-33 0 -57.5 26.5t-24.5 57.5q0 29 26 53.5t52 24.5v0q49 0 74 -45q25 -49 -14 -90zM344 31q-25 -27 -55 -27q-33 0 -57.5 26.5t-24.5 57.5 q0 29 25.5 53.5t52.5 24.5v0q49 0 73 -45q25 -49 -14 -90zM1180 29q-25 -27 -56 -27q-33 0 -57.5 26.5t-24.5 57.5q0 29 26 53.5t52 24.5v0q49 0 74 -45q25 -49 -14 -90zM971 29q-25 -27 -56 -27q-33 0 -57 26.5t-24 57.5q0 29 25.5 53.5t51.5 24.5v0q49 0 74 -45 q25 -49 -14 -90zM762 29q-25 -27 -55 -27q-33 0 -57.5 26.5t-24.5 57.5q0 29 25.5 53.5t51.5 24.5v0q49 0 74 -45q25 -49 -14 -90zM553 29q-25 -27 -55 -27q-33 0 -57.5 26.5t-24.5 57.5q0 29 25.5 53.5t52.5 24.5v0q49 0 73 -45q25 -49 -14 -90z" />
<glyph unicode="T" d="M344 1501q-25 -27 -55 -26q-33 0 -57.5 26.5t-24.5 57.5q0 29 25.5 53t52.5 24v0q49 0 73 -45q25 -49 -14 -90zM135 1501q-25 -27 -55 -26q-33 0 -57.5 26.5t-24.5 57.5q0 29 25.5 53t52.5 24v0q49 0 74 -45q24 -49 -15 -90zM1180 1499q-25 -27 -56 -26q-33 0 -57.5 26.5 t-24.5 56.5q0 29 26 53.5t52 24.5v0q49 0 74 -45q25 -49 -14 -90zM971 1499q-25 -27 -56 -26q-33 0 -57 26.5t-24 56.5q0 29 25.5 53.5t51.5 24.5v0q49 0 74 -45q25 -49 -14 -90zM762 1499q-25 -27 -55 -26q-33 0 -57.5 26.5t-24.5 56.5q0 29 25.5 53.5t51.5 24.5v0 q49 0 74 -45q25 -49 -14 -90zM553 1499q-25 -27 -55 -26q-33 0 -57.5 26.5t-24.5 56.5q0 29 25.5 53.5t52.5 24.5v0q49 0 73 -45q25 -49 -14 -90zM1389 1497q-25 -27 -56 -27q-33 0 -57.5 27t-24.5 57q0 29 26 53.5t52 24.5v0q49 0 74 -45q25 -49 -14 -90zM135 1292 q-25 -27 -55 -26q-33 0 -57.5 26.5t-24.5 57.5q0 29 25.5 53t52.5 24v0q49 0 74 -45q24 -49 -15 -90zM762 1290q-25 -27 -55 -26q-33 0 -57.5 26.5t-24.5 57.5q0 29 25.5 53t51.5 24v0q49 0 74 -45q25 -49 -14 -90zM1389 1288q-25 -27 -56 -26q-33 0 -57.5 26.5t-24.5 57.5 q0 29 26 53t52 24v0q49 0 74 -45q25 -49 -14 -90zM764 1081q-25 -27 -55 -26q-33 0 -57.5 26.5t-24.5 57.5q0 29 25.5 53.5t52.5 24.5v0q49 0 73 -46q25 -49 -14 -90zM762 872q-25 -27 -55 -26q-33 0 -57.5 26.5t-24.5 57.5q0 29 25.5 53.5t51.5 24.5v0q49 0 74 -45 q25 -50 -14 -91zM762 662q-25 -27 -55 -27q-33 0 -57.5 26.5t-24.5 59.5q0 27 24.5 51.5t52.5 24.5v0q47 0 72 -47q27 -47 -12 -88zM762 451q-25 -27 -55 -27q-33 0 -57.5 26.5t-24.5 57.5q0 29 25.5 53.5t51.5 24.5v0q49 0 74 -45q25 -49 -14 -90zM762 240q-25 -27 -55 -27 q-33 0 -57.5 26.5t-24.5 57.5q0 29 25.5 53.5t51.5 24.5v0q49 0 74 -45q25 -49 -14 -90zM971 29q-25 -27 -56 -27q-33 0 -57 26.5t-24 57.5q0 29 25.5 53.5t51.5 24.5v0q49 0 74 -45q25 -49 -14 -90zM762 29q-25 -27 -55 -27q-33 0 -57.5 26.5t-24.5 57.5q0 29 25.5 53.5 t51.5 24.5v0q49 0 74 -45q25 -49 -14 -90zM553 29q-25 -27 -55 -27q-33 0 -57.5 26.5t-24.5 57.5q0 29 25.5 53.5t52.5 24.5v0q49 0 73 -45q25 -49 -14 -90z" />
<glyph unicode="U" d="M135 1501q-25 -27 -55 -26q-33 0 -57.5 26.5t-24.5 57.5q0 29 25.5 53t52.5 24v0q49 0 74 -45q24 -49 -15 -90zM1389 1497q-25 -27 -56 -27q-33 0 -57.5 27t-24.5 57q0 29 26 53.5t52 24.5v0q49 0 74 -45q25 -49 -14 -90zM135 1292q-25 -27 -55 -26q-33 0 -57.5 26.5 t-24.5 57.5q0 29 25.5 53t52.5 24v0q49 0 74 -45q24 -49 -15 -90zM1389 1288q-25 -27 -56 -26q-33 0 -57.5 26.5t-24.5 57.5q0 29 26 53t52 24v0q49 0 74 -45q25 -49 -14 -90zM137 1083q-25 -27 -55 -26q-33 0 -57.5 26.5t-24.5 57.5q0 29 25.5 53.5t52.5 24.5v0 q49 0 74 -45q24 -50 -15 -91zM1391 1079q-25 -27 -56 -26q-33 0 -57.5 26.5t-24.5 57.5q0 29 26 53t52 24v0q49 0 74 -45q25 -49 -14 -90zM135 874q-25 -27 -55 -26q-33 0 -57.5 26.5t-24.5 57.5q0 29 25.5 53.5t52.5 24.5v0q49 0 74 -45q24 -50 -15 -91zM1389 870 q-25 -27 -56 -26q-33 0 -57.5 26.5t-24.5 57.5q0 29 26 53.5t52 24.5v0q49 0 74 -45q25 -50 -14 -91zM135 664q-25 -27 -55 -27q-33 0 -57.5 26.5t-24.5 59.5q0 27 24.5 51.5t53.5 24.5v0q47 0 71 -47q27 -47 -12 -88zM1389 659q-25 -27 -56 -26q-33 0 -57.5 26.5 t-24.5 59.5q0 27 24.5 51.5t53.5 24.5v0q47 0 72 -47q27 -48 -12 -89zM135 453q-25 -27 -55 -27q-33 0 -57.5 26.5t-24.5 57.5q0 29 25.5 53.5t52.5 24.5v0q49 0 74 -45q24 -49 -15 -90zM1389 449q-25 -27 -56 -27q-33 0 -57.5 26.5t-24.5 57.5q0 29 26 53.5t52 24.5v0 q49 0 74 -45q25 -49 -14 -90zM135 242q-25 -27 -55 -27q-33 0 -57.5 26.5t-24.5 57.5q0 29 25.5 53.5t52.5 24.5v0q49 0 74 -45q24 -49 -15 -90zM1389 238q-25 -27 -56 -27q-33 0 -57.5 26.5t-24.5 57.5q0 29 26 53.5t52 24.5v0q49 0 74 -45q25 -49 -14 -90zM344 31 q-25 -27 -55 -27q-33 0 -57.5 26.5t-24.5 57.5q0 29 25.5 53.5t52.5 24.5v0q49 0 73 -45q25 -49 -14 -90zM1180 29q-25 -27 -56 -27q-33 0 -57.5 26.5t-24.5 57.5q0 29 26 53.5t52 24.5v0q49 0 74 -45q25 -49 -14 -90zM971 29q-25 -27 -56 -27q-33 0 -57 26.5t-24 57.5 q0 29 25.5 53.5t51.5 24.5v0q49 0 74 -45q25 -49 -14 -90zM762 29q-25 -27 -55 -27q-33 0 -57.5 26.5t-24.5 57.5q0 29 25.5 53.5t51.5 24.5v0q49 0 74 -45q25 -49 -14 -90zM553 29q-25 -27 -55 -27q-33 0 -57.5 26.5t-24.5 57.5q0 29 25.5 53.5t52.5 24.5v0q49 0 73 -45 q25 -49 -14 -90z" />
<glyph unicode="V" d="M135 1501q-25 -27 -55 -26q-33 0 -57.5 26.5t-24.5 57.5q0 29 25.5 53t52.5 24v0q49 0 74 -45q24 -49 -15 -90zM1389 1497q-25 -27 -56 -27q-33 0 -57.5 27t-24.5 57q0 29 26 53.5t52 24.5v0q49 0 74 -45q25 -49 -14 -90zM135 1292q-25 -27 -55 -26q-33 0 -57.5 26.5 t-24.5 57.5q0 29 25.5 53t52.5 24v0q49 0 74 -45q24 -49 -15 -90zM1389 1288q-25 -27 -56 -26q-33 0 -57.5 26.5t-24.5 57.5q0 29 26 53t52 24v0q49 0 74 -45q25 -49 -14 -90zM137 1083q-25 -27 -55 -26q-33 0 -57.5 26.5t-24.5 57.5q0 29 25.5 53.5t52.5 24.5v0 q49 0 74 -45q24 -50 -15 -91zM1391 1079q-25 -27 -56 -26q-33 0 -57.5 26.5t-24.5 57.5q0 29 26 53t52 24v0q49 0 74 -45q25 -49 -14 -90zM135 874q-25 -27 -55 -26q-33 0 -57.5 26.5t-24.5 57.5q0 29 25.5 53.5t52.5 24.5v0q49 0 74 -45q24 -50 -15 -91zM1389 870 q-25 -27 -56 -26q-33 0 -57.5 26.5t-24.5 57.5q0 29 26 53.5t52 24.5v0q49 0 74 -45q25 -50 -14 -91zM135 664q-25 -27 -55 -27q-33 0 -57.5 26.5t-24.5 59.5q0 27 24.5 51.5t53.5 24.5v0q47 0 71 -47q27 -47 -12 -88zM1389 659q-25 -27 -56 -26q-33 0 -57.5 26.5 t-24.5 59.5q0 27 24.5 51.5t53.5 24.5v0q47 0 72 -47q27 -48 -12 -89zM344 453q-25 -27 -55 -27q-33 0 -57.5 26.5t-24.5 57.5q0 29 25.5 53.5t52.5 24.5v0q49 0 73 -45q25 -49 -14 -90zM1180 451q-25 -27 -56 -27q-33 0 -57.5 26.5t-24.5 57.5q0 29 26 53.5t52 24.5v0 q49 0 74 -45q25 -49 -14 -90zM971 240q-25 -27 -56 -27q-33 0 -57 26.5t-24 57.5q0 29 25.5 53.5t51.5 24.5v0q49 0 74 -45q25 -49 -14 -90zM553 240q-25 -27 -55 -27q-33 0 -57.5 26.5t-24.5 57.5q0 29 25.5 53.5t52.5 24.5v0q49 0 73 -45q25 -49 -14 -90zM762 29 q-25 -27 -55 -27q-33 0 -57.5 26.5t-24.5 57.5q0 29 25.5 53.5t51.5 24.5v0q49 0 74 -45q25 -49 -14 -90z" />
<glyph unicode="W" d="M135 1501q-25 -27 -55 -26q-33 0 -57.5 26.5t-24.5 57.5q0 29 25.5 53t52.5 24v0q49 0 74 -45q24 -49 -15 -90zM1389 1497q-25 -27 -56 -27q-33 0 -57.5 27t-24.5 57q0 29 26 53.5t52 24.5v0q49 0 74 -45q25 -49 -14 -90zM135 1292q-25 -27 -55 -26q-33 0 -57.5 26.5 t-24.5 57.5q0 29 25.5 53t52.5 24v0q49 0 74 -45q24 -49 -15 -90zM1389 1288q-25 -27 -56 -26q-33 0 -57.5 26.5t-24.5 57.5q0 29 26 53t52 24v0q49 0 74 -45q25 -49 -14 -90zM137 1083q-25 -27 -55 -26q-33 0 -57.5 26.5t-24.5 57.5q0 29 25.5 53.5t52.5 24.5v0 q49 0 74 -45q24 -50 -15 -91zM1391 1079q-25 -27 -56 -26q-33 0 -57.5 26.5t-24.5 57.5q0 29 26 53t52 24v0q49 0 74 -45q25 -49 -14 -90zM135 874q-25 -27 -55 -26q-33 0 -57.5 26.5t-24.5 57.5q0 29 25.5 53.5t52.5 24.5v0q49 0 74 -45q24 -50 -15 -91zM1389 870 q-25 -27 -56 -26q-33 0 -57.5 26.5t-24.5 57.5q0 29 26 53.5t52 24.5v0q49 0 74 -45q25 -50 -14 -91zM135 664q-25 -27 -55 -27q-33 0 -57.5 26.5t-24.5 59.5q0 27 24.5 51.5t53.5 24.5v0q47 0 71 -47q27 -47 -12 -88zM1389 659q-25 -27 -56 -26q-33 0 -57.5 26.5 t-24.5 59.5q0 27 24.5 51.5t53.5 24.5v0q47 0 72 -47q27 -48 -12 -89zM135 453q-25 -27 -55 -27q-33 0 -57.5 26.5t-24.5 57.5q0 29 25.5 53.5t52.5 24.5v0q49 0 74 -45q24 -49 -15 -90zM971 451q-25 -27 -56 -27q-33 0 -57 26.5t-24 57.5q0 29 25.5 53.5t51.5 24.5v0 q49 0 74 -45q25 -49 -14 -90zM553 451q-25 -27 -55 -27q-33 0 -57.5 26.5t-24.5 57.5q0 29 25.5 53.5t52.5 24.5v0q49 0 73 -45q25 -49 -14 -90zM1389 449q-25 -27 -56 -27q-33 0 -57.5 26.5t-24.5 57.5q0 29 26 53.5t52 24.5v0q49 0 74 -45q25 -49 -14 -90zM344 242 q-25 -27 -55 -27q-33 0 -57.5 26.5t-24.5 57.5q0 29 25.5 53.5t52.5 24.5v0q49 0 73 -45q25 -49 -14 -90zM1180 240q-25 -27 -56 -27q-33 0 -57.5 26.5t-24.5 57.5q0 29 26 53.5t52 24.5v0q49 0 74 -45q25 -49 -14 -90zM971 240q-25 -27 -56 -27q-33 0 -57 26.5t-24 57.5 q0 29 25.5 53.5t51.5 24.5v0q49 0 74 -45q25 -49 -14 -90zM553 240q-25 -27 -55 -27q-33 0 -57.5 26.5t-24.5 57.5q0 29 25.5 53.5t52.5 24.5v0q49 0 73 -45q25 -49 -14 -90zM762 223q-25 -27 -55 -26q-33 0 -57.5 26.5t-24.5 57.5q0 29 25.5 53t51.5 24v0q49 0 74 -45 q25 -49 -14 -90zM971 29q-25 -27 -56 -27q-33 0 -57 26.5t-24 57.5q0 29 25.5 53.5t51.5 24.5v0q49 0 74 -45q25 -49 -14 -90zM553 29q-25 -27 -55 -27q-33 0 -57.5 26.5t-24.5 57.5q0 29 25.5 53.5t52.5 24.5v0q49 0 73 -45q25 -49 -14 -90z" />
<glyph unicode="X" d="M135 1501q-25 -27 -55 -26q-33 0 -57.5 26.5t-24.5 57.5q0 29 25.5 53t52.5 24v0q49 0 74 -45q24 -49 -15 -90zM1389 1497q-25 -27 -56 -27q-33 0 -57.5 27t-24.5 57q0 29 26 53.5t52 24.5v0q49 0 74 -45q25 -49 -14 -90zM344 1292q-25 -27 -55 -26q-33 0 -57.5 26.5 t-24.5 57.5q0 29 25.5 53t52.5 24v0q49 0 73 -45q25 -49 -14 -90zM1180 1290q-25 -27 -56 -26q-33 0 -57.5 26.5t-24.5 57.5q0 29 26 53t52 24v0q49 0 74 -45q25 -49 -14 -90zM973 1081q-25 -27 -55 -26q-33 0 -57.5 26.5t-24.5 57.5q0 29 25.5 53.5t51.5 24.5v0 q49 0 74 -46q25 -49 -14 -90zM555 1081q-25 -27 -55 -26q-33 0 -57.5 26.5t-24.5 57.5q0 29 25.5 53.5t52.5 24.5v0q49 0 73 -46q25 -49 -14 -90zM762 872q-25 -27 -55 -26q-33 0 -57.5 26.5t-24.5 57.5q0 29 25.5 53.5t51.5 24.5v0q49 0 74 -45q25 -50 -14 -91zM762 662 q-25 -27 -55 -27q-33 0 -57.5 26.5t-24.5 59.5q0 27 24.5 51.5t52.5 24.5v0q47 0 72 -47q27 -47 -12 -88zM971 451q-25 -27 -56 -27q-33 0 -57 26.5t-24 57.5q0 29 25.5 53.5t51.5 24.5v0q49 0 74 -45q25 -49 -14 -90zM553 451q-25 -27 -55 -27q-33 0 -57.5 26.5t-24.5 57.5 q0 29 25.5 53.5t52.5 24.5v0q49 0 73 -45q25 -49 -14 -90zM344 242q-25 -27 -55 -27q-33 0 -57.5 26.5t-24.5 57.5q0 29 25.5 53.5t52.5 24.5v0q49 0 73 -45q25 -49 -14 -90zM1180 240q-25 -27 -56 -27q-33 0 -57.5 26.5t-24.5 57.5q0 29 26 53.5t52 24.5v0q49 0 74 -45 q25 -49 -14 -90zM135 31q-25 -27 -55 -27q-33 0 -57.5 26.5t-24.5 57.5q0 29 25.5 53.5t52.5 24.5v0q49 0 74 -45q24 -49 -15 -90zM1389 27q-25 -27 -56 -27q-33 0 -57.5 26.5t-24.5 57.5q0 29 26 53.5t52 24.5v0q49 0 74 -45q25 -49 -14 -90z" />
<glyph unicode="Y" d="M125 1491q-25 -27 -55 -27q-33 0 -57.5 27t-24.5 57q0 29 25.5 53.5t52.5 24.5v0q49 0 73 -45q25 -49 -14 -90zM1378 1487q-25 -27 -55 -27q-33 0 -57.5 26.5t-24.5 57.5q0 29 25.5 53.5t52.5 24.5v0q49 0 74 -45q24 -49 -15 -90zM125 1276q-25 -27 -55 -27 q-33 0 -57.5 27t-24.5 57q0 29 25.5 53.5t52.5 24.5v0q49 0 73 -45q25 -49 -14 -90zM1378 1272q-25 -27 -55 -27q-33 0 -57.5 26.5t-24.5 57.5q0 29 25.5 53.5t52.5 24.5v0q49 0 74 -45q24 -49 -15 -90zM334 1067q-25 -27 -55 -27q-33 0 -57.5 27t-24.5 57q0 29 25.5 53.5 t51.5 24.5v0q49 0 74 -45q25 -49 -14 -90zM1169 1065q-25 -27 -55 -27q-33 0 -57.5 27t-24.5 57q0 29 25.5 53.5t52.5 24.5v0q49 0 74 -45q24 -49 -15 -90zM963 856q-25 -27 -56 -27q-33 0 -57.5 27t-24.5 57q0 29 26 53.5t52 24.5v0q49 0 74 -45q25 -49 -14 -90zM545 856 q-25 -27 -56 -27q-33 0 -57 27t-24 57q0 29 25.5 53.5t51.5 24.5v0q49 0 74 -45q25 -49 -14 -90zM762 662q-25 -27 -55 -27q-33 0 -57.5 26.5t-24.5 59.5q0 27 24.5 51.5t52.5 24.5v0q47 0 72 -47q27 -47 -12 -88zM762 451q-25 -27 -55 -27q-33 0 -57.5 26.5t-24.5 57.5 q0 29 25.5 53.5t51.5 24.5v0q49 0 74 -45q25 -49 -14 -90zM762 240q-25 -27 -55 -27q-33 0 -57.5 26.5t-24.5 57.5q0 29 25.5 53.5t51.5 24.5v0q49 0 74 -45q25 -49 -14 -90zM762 29q-25 -27 -55 -27q-33 0 -57.5 26.5t-24.5 57.5q0 29 25.5 53.5t51.5 24.5v0q49 0 74 -45 q25 -49 -14 -90z" />
<glyph unicode="Z" d="M344 1501q-25 -27 -55 -26q-33 0 -57.5 26.5t-24.5 57.5q0 29 25.5 53t52.5 24v0q49 0 73 -45q25 -49 -14 -90zM135 1501q-25 -27 -55 -26q-33 0 -57.5 26.5t-24.5 57.5q0 29 25.5 53t52.5 24v0q49 0 74 -45q24 -49 -15 -90zM1180 1499q-25 -27 -56 -26q-33 0 -57.5 26.5 t-24.5 56.5q0 29 26 53.5t52 24.5v0q49 0 74 -45q25 -49 -14 -90zM971 1499q-25 -27 -56 -26q-33 0 -57 26.5t-24 56.5q0 29 25.5 53.5t51.5 24.5v0q49 0 74 -45q25 -49 -14 -90zM762 1499q-25 -27 -55 -26q-33 0 -57.5 26.5t-24.5 56.5q0 29 25.5 53.5t51.5 24.5v0 q49 0 74 -45q25 -49 -14 -90zM553 1499q-25 -27 -55 -26q-33 0 -57.5 26.5t-24.5 56.5q0 29 25.5 53.5t52.5 24.5v0q49 0 73 -45q25 -49 -14 -90zM1389 1497q-25 -27 -56 -27q-33 0 -57.5 27t-24.5 57q0 29 26 53.5t52 24.5v0q49 0 74 -45q25 -49 -14 -90zM135 1292 q-25 -27 -55 -26q-33 0 -57.5 26.5t-24.5 57.5q0 29 25.5 53t52.5 24v0q49 0 74 -45q24 -49 -15 -90zM1180 1290q-25 -27 -56 -26q-33 0 -57.5 26.5t-24.5 57.5q0 29 26 53t52 24v0q49 0 74 -45q25 -49 -14 -90zM973 1081q-25 -27 -55 -26q-33 0 -57.5 26.5t-24.5 57.5 q0 29 25.5 53.5t51.5 24.5v0q49 0 74 -46q25 -49 -14 -90zM762 872q-25 -27 -55 -26q-33 0 -57.5 26.5t-24.5 57.5q0 29 25.5 53.5t51.5 24.5v0q49 0 74 -45q25 -50 -14 -91zM553 662q-25 -27 -55 -27q-33 0 -57.5 26.5t-24.5 59.5q0 27 24.5 51.5t53.5 24.5v0q47 0 71 -47 q27 -47 -12 -88zM344 453q-25 -27 -55 -27q-33 0 -57.5 26.5t-24.5 57.5q0 29 25.5 53.5t52.5 24.5v0q49 0 73 -45q25 -49 -14 -90zM135 242q-25 -27 -55 -27q-33 0 -57.5 26.5t-24.5 57.5q0 29 25.5 53.5t52.5 24.5v0q49 0 74 -45q24 -49 -15 -90zM1389 238 q-25 -27 -56 -27q-33 0 -57.5 26.5t-24.5 57.5q0 29 26 53.5t52 24.5v0q49 0 74 -45q25 -49 -14 -90zM344 31q-25 -27 -55 -27q-33 0 -57.5 26.5t-24.5 57.5q0 29 25.5 53.5t52.5 24.5v0q49 0 73 -45q25 -49 -14 -90zM135 31q-25 -27 -55 -27q-33 0 -57.5 26.5t-24.5 57.5 q0 29 25.5 53.5t52.5 24.5v0q49 0 74 -45q24 -49 -15 -90zM1180 29q-25 -27 -56 -27q-33 0 -57.5 26.5t-24.5 57.5q0 29 26 53.5t52 24.5v0q49 0 74 -45q25 -49 -14 -90zM971 29q-25 -27 -56 -27q-33 0 -57 26.5t-24 57.5q0 29 25.5 53.5t51.5 24.5v0q49 0 74 -45 q25 -49 -14 -90zM762 29q-25 -27 -55 -27q-33 0 -57.5 26.5t-24.5 57.5q0 29 25.5 53.5t51.5 24.5v0q49 0 74 -45q25 -49 -14 -90zM553 29q-25 -27 -55 -27q-33 0 -57.5 26.5t-24.5 57.5q0 29 25.5 53.5t52.5 24.5v0q49 0 73 -45q25 -49 -14 -90zM1389 27q-25 -27 -56 -27 q-33 0 -57.5 26.5t-24.5 57.5q0 29 26 53.5t52 24.5v0q49 0 74 -45q25 -49 -14 -90z" />
<glyph unicode="[" horiz-adv-x="747" d="M344 1501q-25 -27 -55 -26q-33 0 -57.5 26.5t-24.5 57.5q0 29 25.5 53t52.5 24v0q49 0 73 -45q25 -49 -14 -90zM135 1501q-25 -27 -55 -26q-33 0 -57.5 26.5t-24.5 57.5q0 29 25.5 53t52.5 24v0q49 0 74 -45q24 -49 -15 -90zM553 1499q-25 -27 -55 -26q-33 0 -57.5 26.5 t-24.5 56.5q0 29 25.5 53.5t52.5 24.5v0q49 0 73 -45q25 -49 -14 -90zM135 1292q-25 -27 -55 -26q-33 0 -57.5 26.5t-24.5 57.5q0 29 25.5 53t52.5 24v0q49 0 74 -45q24 -49 -15 -90zM137 1083q-25 -27 -55 -26q-33 0 -57.5 26.5t-24.5 57.5q0 29 25.5 53.5t52.5 24.5v0 q49 0 74 -45q24 -50 -15 -91zM135 874q-25 -27 -55 -26q-33 0 -57.5 26.5t-24.5 57.5q0 29 25.5 53.5t52.5 24.5v0q49 0 74 -45q24 -50 -15 -91zM135 664q-25 -27 -55 -27q-33 0 -57.5 26.5t-24.5 59.5q0 27 24.5 51.5t53.5 24.5v0q47 0 71 -47q27 -47 -12 -88zM135 453 q-25 -27 -55 -27q-33 0 -57.5 26.5t-24.5 57.5q0 29 25.5 53.5t52.5 24.5v0q49 0 74 -45q24 -49 -15 -90zM135 242q-25 -27 -55 -27q-33 0 -57.5 26.5t-24.5 57.5q0 29 25.5 53.5t52.5 24.5v0q49 0 74 -45q24 -49 -15 -90zM344 31q-25 -27 -55 -27q-33 0 -57.5 26.5 t-24.5 57.5q0 29 25.5 53.5t52.5 24.5v0q49 0 73 -45q25 -49 -14 -90zM135 31q-25 -27 -55 -27q-33 0 -57.5 26.5t-24.5 57.5q0 29 25.5 53.5t52.5 24.5v0q49 0 74 -45q24 -49 -15 -90zM553 29q-25 -27 -55 -27q-33 0 -57.5 26.5t-24.5 57.5q0 29 25.5 53.5t52.5 24.5v0 q49 0 73 -45q25 -49 -14 -90z" />
<glyph unicode="\" d="M135 1288q-25 -27 -55 -26q-33 0 -57.5 25.5t-24.5 58.5q0 27 24.5 52t53.5 25v0q47 0 74 -45q24 -47 -15 -90zM342 1081q-25 -27 -55 -26q-33 0 -57.5 25.5t-24.5 58.5q0 27 24.5 52.5t53.5 25.5v0q47 0 73 -46q25 -47 -14 -90zM553 872q-25 -27 -55 -26 q-33 0 -57.5 25.5t-24.5 58.5q0 27 24.5 52.5t53.5 25.5v0q47 0 73 -45q25 -48 -14 -91zM762 662q-25 -27 -55 -27q-33 0 -57.5 25.5t-24.5 56.5q0 29 25.5 54.5t54.5 25.5v0q47 0 71 -47q25 -47 -14 -88zM971 451q-25 -27 -56 -27q-33 0 -57 25.5t-24 58.5q0 27 24.5 52.5 t52.5 25.5v0q47 0 74 -45q25 -47 -14 -90zM1180 242q-25 -27 -56 -27q-33 0 -57.5 25.5t-24.5 58.5q0 27 25 52.5t53 25.5v0q47 0 74 -45q25 -47 -14 -90zM1389 31q-25 -27 -56 -27q-33 0 -57.5 25.5t-24.5 58.5q0 27 24.5 52.5t53.5 25.5v0q47 0 74 -45q25 -47 -14 -90z " />
<glyph unicode="]" horiz-adv-x="747" d="M580 1491q-25 -27 -56 -27q-33 0 -57.5 26t-24.5 58q0 27 25 52.5t53 25.5v0q47 0 74 -45q25 -47 -14 -90zM371 1491q-25 -27 -56 -27q-33 0 -57.5 26t-24.5 58q0 27 25 52.5t53 25.5v0q47 0 74 -45q25 -47 -14 -90zM162 1489q-25 -27 -56 -27q-33 0 -57 25.5t-24 58.5 q0 27 24.5 52.5t52.5 25.5v0q47 0 74 -45q25 -47 -14 -90zM580 1282q-25 -27 -56 -27q-33 0 -57.5 26t-24.5 58q0 27 25 52.5t53 25.5v0q47 0 74 -45q25 -47 -14 -90zM578 1073q-25 -27 -56 -26q-33 0 -57.5 25.5t-24.5 57.5q0 27 24.5 52.5t53.5 25.5v0q47 0 74 -45 q25 -47 -14 -90zM580 864q-25 -27 -56 -26q-33 0 -57.5 25.5t-24.5 58.5q0 27 25 52t53 25v0q47 0 74 -45q25 -47 -14 -90zM580 653q-25 -27 -56 -26q-33 0 -57.5 25.5t-24.5 56.5q0 29 26 54t54 25v0q47 0 72 -47t-14 -88zM580 442q-25 -27 -56 -26q-33 0 -57.5 25.5 t-24.5 58.5q0 27 25 52.5t53 25.5v0q47 0 74 -46q25 -47 -14 -90zM580 231q-25 -27 -56 -26q-33 0 -57.5 25.5t-24.5 58.5q0 27 25 52.5t53 25.5v0q47 0 74 -45q25 -48 -14 -91zM580 20q-25 -27 -56 -26q-33 0 -57.5 25.5t-24.5 58.5q0 27 25 52.5t53 25.5v0q47 0 74 -45 q25 -48 -14 -91zM371 20q-25 -27 -56 -26q-33 0 -57.5 25.5t-24.5 58.5q0 27 25 52.5t53 25.5v0q47 0 74 -45q25 -48 -14 -91zM162 18q-25 -27 -56 -26q-33 0 -57 25.5t-24 58.5q0 27 24.5 52.5t52.5 25.5v0q47 0 74 -45q25 -48 -14 -91z" />
<glyph unicode="^" horiz-adv-x="51" d="M-666 1530q-25 -27 -55 -27q-33 0 -57.5 26.5t-24.5 57.5q0 29 25.5 53.5t52.5 24.5v0q49 0 74 -45q24 -49 -15 -90zM-874 1323q-25 -27 -56 -27q-33 0 -57.5 27t-24.5 57q0 29 25.5 53.5t52.5 24.5v0q49 0 74 -45q25 -49 -14 -90zM-457 1321q-25 -27 -55 -27 q-33 0 -57.5 27t-24.5 57q0 29 25.5 53.5t52.5 24.5v0q49 0 74 -45q24 -49 -15 -90zM-1081 1114q-25 -27 -56 -27q-33 0 -57.5 27t-24.5 57q0 29 26 53.5t52 24.5v0q49 0 74 -45q25 -49 -14 -90zM-246 1112q-25 -27 -55 -27q-33 0 -57.5 27t-24.5 57q0 29 25.5 53.5 t52.5 24.5v0q49 0 74 -45q24 -49 -15 -90z" />
<glyph unicode="_" horiz-adv-x="1433" d="M365 -195q-25 -27 -56 -26q-33 0 -57.5 26.5t-24.5 57.5q0 29 26 53.5t52 24.5v0q49 0 74 -45q25 -50 -14 -91zM156 -195q-25 -27 -56 -26q-33 0 -57.5 26.5t-24.5 57.5q0 29 26 53.5t52 24.5v0q49 0 74 -45q25 -50 -14 -91zM1200 -197q-25 -27 -55 -26q-33 0 -57.5 26.5 t-24.5 57.5q0 29 25.5 53.5t52.5 24.5v0q49 0 73 -45q25 -50 -14 -91zM991 -197q-25 -27 -55 -26q-33 0 -57.5 26.5t-24.5 57.5q0 29 25.5 53.5t52.5 24.5v0q49 0 74 -45q24 -50 -15 -91zM782 -197q-25 -27 -55 -26q-33 0 -57.5 26.5t-24.5 57.5q0 29 25.5 53.5t52.5 24.5v0 q49 0 74 -45q24 -50 -15 -91zM573 -197q-25 -27 -55 -26q-33 0 -57.5 26.5t-24.5 57.5q0 29 25.5 53.5t52.5 24.5v0q49 0 74 -45q24 -50 -15 -91zM1409 -199q-25 -27 -55 -26q-33 0 -57.5 26.5t-24.5 57.5q0 29 25.5 53.5t52.5 24.5v0q49 0 73 -46q25 -49 -14 -90z" />
<glyph unicode="`" horiz-adv-x="51" d="M-653 1511q-25 -27 -56 -26q-33 0 -57.5 26.5t-24.5 57.5q0 29 26 53.5t52 24.5v0q49 0 74 -45q25 -50 -14 -91zM-444 1303q-25 -27 -56 -27q-33 0 -57.5 26.5t-24.5 57.5q0 29 26 53.5t52 24.5v0q49 0 74 -45q25 -49 -14 -90zM-233 1092q-25 -27 -56 -27 q-33 0 -57.5 26.5t-24.5 57.5q0 29 26 53.5t52 24.5v0q49 0 74 -45q25 -49 -14 -90z" />
<glyph unicode="a" d="M346 1083q-25 -27 -55 -26q-33 0 -57.5 26.5t-24.5 57.5q0 29 25.5 53.5t52.5 24.5v0q49 0 73 -45q25 -50 -14 -91zM1182 1081q-25 -27 -56 -26q-33 0 -57.5 26.5t-24.5 57.5q0 29 26 53.5t52 24.5v0q49 0 74 -46q25 -49 -14 -90zM764 1081q-25 -27 -55 -26 q-33 0 -57.5 26.5t-24.5 57.5q0 29 25.5 53.5t52.5 24.5v0q49 0 73 -46q25 -49 -14 -90zM555 1081q-25 -27 -55 -26q-33 0 -57.5 26.5t-24.5 57.5q0 29 25.5 53.5t52.5 24.5v0q49 0 73 -46q25 -49 -14 -90zM963 887q-25 -27 -56 -27q-33 0 -57.5 26.5t-24.5 57.5 q0 29 26 53.5t52 24.5v0q49 0 74 -45q25 -49 -14 -90zM135 874q-25 -27 -55 -26q-33 0 -57.5 26.5t-24.5 57.5q0 29 25.5 53.5t52.5 24.5v0q49 0 74 -45q24 -50 -15 -91zM1180 872q-25 -27 -56 -26q-33 0 -57.5 26.5t-24.5 57.5q0 29 26 53.5t52 24.5v0q49 0 74 -45 q25 -50 -14 -91zM135 664q-25 -27 -55 -27q-33 0 -57.5 26.5t-24.5 59.5q0 27 24.5 51.5t53.5 24.5v0q47 0 71 -47q27 -47 -12 -88zM1180 662q-25 -27 -56 -27q-33 0 -57.5 26.5t-24.5 59.5q0 27 25 51.5t53 24.5v0q47 0 72 -47q27 -47 -12 -88zM135 453q-25 -27 -55 -27 q-33 0 -57.5 26.5t-24.5 57.5q0 29 25.5 53.5t52.5 24.5v0q49 0 74 -45q24 -49 -15 -90zM1180 451q-25 -27 -56 -27q-33 0 -57.5 26.5t-24.5 57.5q0 29 26 53.5t52 24.5v0q49 0 74 -45q25 -49 -14 -90zM135 242q-25 -27 -55 -27q-33 0 -57.5 26.5t-24.5 57.5q0 29 25.5 53.5 t52.5 24.5v0q49 0 74 -45q24 -49 -15 -90zM1180 240q-25 -27 -56 -27q-33 0 -57.5 26.5t-24.5 57.5q0 29 26 53.5t52 24.5v0q49 0 74 -45q25 -49 -14 -90zM950 233q-25 -27 -55 -26q-33 0 -57.5 26.5t-24.5 57.5q0 29 25.5 53.5t52.5 24.5v0q49 0 74 -45q24 -50 -15 -91z M344 31q-25 -27 -55 -27q-33 0 -57.5 26.5t-24.5 57.5q0 29 25.5 53.5t52.5 24.5v0q49 0 73 -45q25 -49 -14 -90zM1180 29q-25 -27 -56 -27q-33 0 -57.5 26.5t-24.5 57.5q0 29 26 53.5t52 24.5v0q49 0 74 -45q25 -49 -14 -90zM762 29q-25 -27 -55 -27q-33 0 -57.5 26.5 t-24.5 57.5q0 29 25.5 53.5t51.5 24.5v0q49 0 74 -45q25 -49 -14 -90zM553 29q-25 -27 -55 -27q-33 0 -57.5 26.5t-24.5 57.5q0 29 25.5 53.5t52.5 24.5v0q49 0 73 -45q25 -49 -14 -90zM1389 27q-25 -27 -56 -27q-33 0 -57.5 26.5t-24.5 57.5q0 29 26 53.5t52 24.5v0 q49 0 74 -45q25 -49 -14 -90z" />
<glyph unicode="b" d="M344 1501q-25 -27 -55 -26q-33 0 -57.5 26.5t-24.5 57.5q0 29 25.5 53t52.5 24v0q49 0 73 -45q25 -49 -14 -90zM135 1501q-25 -27 -55 -26q-33 0 -57.5 26.5t-24.5 57.5q0 29 25.5 53t52.5 24v0q49 0 74 -45q24 -49 -15 -90zM344 1292q-25 -27 -55 -26q-33 0 -57.5 26.5 t-24.5 57.5q0 29 25.5 53t52.5 24v0q49 0 73 -45q25 -49 -14 -90zM346 1083q-25 -27 -55 -26q-33 0 -57.5 26.5t-24.5 57.5q0 29 25.5 53.5t52.5 24.5v0q49 0 73 -45q25 -50 -14 -91zM1182 1081q-25 -27 -56 -26q-33 0 -57.5 26.5t-24.5 57.5q0 29 26 53.5t52 24.5v0 q49 0 74 -46q25 -49 -14 -90zM973 1081q-25 -27 -55 -26q-33 0 -57.5 26.5t-24.5 57.5q0 29 25.5 53.5t51.5 24.5v0q49 0 74 -46q25 -49 -14 -90zM764 1081q-25 -27 -55 -26q-33 0 -57.5 26.5t-24.5 57.5q0 29 25.5 53.5t52.5 24.5v0q49 0 73 -46q25 -49 -14 -90zM344 874 q-25 -27 -55 -26q-33 0 -57.5 26.5t-24.5 57.5q0 29 25.5 53.5t52.5 24.5v0q49 0 73 -45q25 -50 -14 -91zM1389 870q-25 -27 -56 -26q-33 0 -57.5 26.5t-24.5 57.5q0 29 26 53.5t52 24.5v0q49 0 74 -45q25 -50 -14 -91zM575 866q-25 -27 -55 -26q-33 0 -57.5 26.5 t-24.5 57.5q0 29 25.5 53t52.5 24v0q49 0 74 -45q24 -49 -15 -90zM344 664q-25 -27 -55 -27q-33 0 -57.5 26.5t-24.5 59.5q0 27 24.5 51.5t53.5 24.5v0q47 0 71 -47q27 -47 -12 -88zM1389 659q-25 -27 -56 -26q-33 0 -57.5 26.5t-24.5 59.5q0 27 24.5 51.5t53.5 24.5v0 q47 0 72 -47q27 -48 -12 -89zM344 453q-25 -27 -55 -27q-33 0 -57.5 26.5t-24.5 57.5q0 29 25.5 53.5t52.5 24.5v0q49 0 73 -45q25 -49 -14 -90zM1389 449q-25 -27 -56 -27q-33 0 -57.5 26.5t-24.5 57.5q0 29 26 53.5t52 24.5v0q49 0 74 -45q25 -49 -14 -90zM344 242 q-25 -27 -55 -27q-33 0 -57.5 26.5t-24.5 57.5q0 29 25.5 53.5t52.5 24.5v0q49 0 73 -45q25 -49 -14 -90zM1389 238q-25 -27 -56 -27q-33 0 -57.5 26.5t-24.5 57.5q0 29 26 53.5t52 24.5v0q49 0 74 -45q25 -49 -14 -90zM563 233q-25 -27 -55 -26q-33 0 -57.5 26.5 t-24.5 57.5q0 29 25.5 53.5t52.5 24.5v0q49 0 74 -45q24 -50 -15 -91zM344 31q-25 -27 -55 -27q-33 0 -57.5 26.5t-24.5 57.5q0 29 25.5 53.5t52.5 24.5v0q49 0 73 -45q25 -49 -14 -90zM135 31q-25 -27 -55 -27q-33 0 -57.5 26.5t-24.5 57.5q0 29 25.5 53.5t52.5 24.5v0 q49 0 74 -45q24 -49 -15 -90zM1180 29q-25 -27 -56 -27q-33 0 -57.5 26.5t-24.5 57.5q0 29 26 53.5t52 24.5v0q49 0 74 -45q25 -49 -14 -90zM971 29q-25 -27 -56 -27q-33 0 -57 26.5t-24 57.5q0 29 25.5 53.5t51.5 24.5v0q49 0 74 -45q25 -49 -14 -90zM762 29 q-25 -27 -55 -27q-33 0 -57.5 26.5t-24.5 57.5q0 29 25.5 53.5t51.5 24.5v0q49 0 74 -45q25 -49 -14 -90z" />
<glyph unicode="c" d="M346 1083q-25 -27 -55 -26q-33 0 -57.5 26.5t-24.5 57.5q0 29 25.5 53.5t52.5 24.5v0q49 0 73 -45q25 -50 -14 -91zM1182 1081q-25 -27 -56 -26q-33 0 -57.5 26.5t-24.5 57.5q0 29 26 53.5t52 24.5v0q49 0 74 -46q25 -49 -14 -90zM973 1081q-25 -27 -55 -26 q-33 0 -57.5 26.5t-24.5 57.5q0 29 25.5 53.5t51.5 24.5v0q49 0 74 -46q25 -49 -14 -90zM764 1081q-25 -27 -55 -26q-33 0 -57.5 26.5t-24.5 57.5q0 29 25.5 53.5t52.5 24.5v0q49 0 73 -46q25 -49 -14 -90zM555 1081q-25 -27 -55 -26q-33 0 -57.5 26.5t-24.5 57.5 q0 29 25.5 53.5t52.5 24.5v0q49 0 73 -46q25 -49 -14 -90zM135 874q-25 -27 -55 -26q-33 0 -57.5 26.5t-24.5 57.5q0 29 25.5 53.5t52.5 24.5v0q49 0 74 -45q24 -50 -15 -91zM1389 870q-25 -27 -56 -26q-33 0 -57.5 26.5t-24.5 57.5q0 29 26 53.5t52 24.5v0q49 0 74 -45 q25 -50 -14 -91zM135 664q-25 -27 -55 -27q-33 0 -57.5 26.5t-24.5 59.5q0 27 24.5 51.5t53.5 24.5v0q47 0 71 -47q27 -47 -12 -88zM135 453q-25 -27 -55 -27q-33 0 -57.5 26.5t-24.5 57.5q0 29 25.5 53.5t52.5 24.5v0q49 0 74 -45q24 -49 -15 -90zM135 242q-25 -27 -55 -27 q-33 0 -57.5 26.5t-24.5 57.5q0 29 25.5 53.5t52.5 24.5v0q49 0 74 -45q24 -49 -15 -90zM1389 238q-25 -27 -56 -27q-33 0 -57.5 26.5t-24.5 57.5q0 29 26 53.5t52 24.5v0q49 0 74 -45q25 -49 -14 -90zM344 31q-25 -27 -55 -27q-33 0 -57.5 26.5t-24.5 57.5q0 29 25.5 53.5 t52.5 24.5v0q49 0 73 -45q25 -49 -14 -90zM1180 29q-25 -27 -56 -27q-33 0 -57.5 26.5t-24.5 57.5q0 29 26 53.5t52 24.5v0q49 0 74 -45q25 -49 -14 -90zM971 29q-25 -27 -56 -27q-33 0 -57 26.5t-24 57.5q0 29 25.5 53.5t51.5 24.5v0q49 0 74 -45q25 -49 -14 -90zM762 29 q-25 -27 -55 -27q-33 0 -57.5 26.5t-24.5 57.5q0 29 25.5 53.5t51.5 24.5v0q49 0 74 -45q25 -49 -14 -90zM553 29q-25 -27 -55 -27q-33 0 -57.5 26.5t-24.5 57.5q0 29 25.5 53.5t52.5 24.5v0q49 0 73 -45q25 -49 -14 -90z" />
<glyph unicode="d" d="M1180 1499q-25 -27 -56 -26q-33 0 -57.5 26.5t-24.5 56.5q0 29 26 53.5t52 24.5v0q49 0 74 -45q25 -49 -14 -90zM1389 1497q-25 -27 -56 -27q-33 0 -57.5 27t-24.5 57q0 29 26 53.5t52 24.5v0q49 0 74 -45q25 -49 -14 -90zM1180 1290q-25 -27 -56 -26q-33 0 -57.5 26.5 t-24.5 57.5q0 29 26 53t52 24v0q49 0 74 -45q25 -49 -14 -90zM346 1083q-25 -27 -55 -26q-33 0 -57.5 26.5t-24.5 57.5q0 29 25.5 53.5t52.5 24.5v0q49 0 73 -45q25 -50 -14 -91zM1182 1081q-25 -27 -56 -26q-33 0 -57.5 26.5t-24.5 57.5q0 29 26 53.5t52 24.5v0 q49 0 74 -46q25 -49 -14 -90zM764 1081q-25 -27 -55 -26q-33 0 -57.5 26.5t-24.5 57.5q0 29 25.5 53.5t52.5 24.5v0q49 0 73 -46q25 -49 -14 -90zM555 1081q-25 -27 -55 -26q-33 0 -57.5 26.5t-24.5 57.5q0 29 25.5 53.5t52.5 24.5v0q49 0 73 -46q25 -49 -14 -90zM952 877 q-25 -27 -55 -27q-33 0 -57.5 26.5t-24.5 57.5q0 29 25.5 53.5t52.5 24.5v0q49 0 74 -45q24 -49 -15 -90zM135 874q-25 -27 -55 -26q-33 0 -57.5 26.5t-24.5 57.5q0 29 25.5 53.5t52.5 24.5v0q49 0 74 -45q24 -50 -15 -91zM1180 872q-25 -27 -56 -26q-33 0 -57.5 26.5 t-24.5 57.5q0 29 26 53.5t52 24.5v0q49 0 74 -45q25 -50 -14 -91zM135 664q-25 -27 -55 -27q-33 0 -57.5 26.5t-24.5 59.5q0 27 24.5 51.5t53.5 24.5v0q47 0 71 -47q27 -47 -12 -88zM1180 662q-25 -27 -56 -27q-33 0 -57.5 26.5t-24.5 59.5q0 27 25 51.5t53 24.5v0 q47 0 72 -47q27 -47 -12 -88zM135 453q-25 -27 -55 -27q-33 0 -57.5 26.5t-24.5 57.5q0 29 25.5 53.5t52.5 24.5v0q49 0 74 -45q24 -49 -15 -90zM1180 451q-25 -27 -56 -27q-33 0 -57.5 26.5t-24.5 57.5q0 29 26 53.5t52 24.5v0q49 0 74 -45q25 -49 -14 -90zM135 242 q-25 -27 -55 -27q-33 0 -57.5 26.5t-24.5 57.5q0 29 25.5 53.5t52.5 24.5v0q49 0 74 -45q24 -49 -15 -90zM1180 240q-25 -27 -56 -27q-33 0 -57.5 26.5t-24.5 57.5q0 29 26 53.5t52 24.5v0q49 0 74 -45q25 -49 -14 -90zM950 233q-25 -27 -55 -26q-33 0 -57.5 26.5 t-24.5 57.5q0 29 25.5 53.5t52.5 24.5v0q49 0 74 -45q24 -50 -15 -91zM344 31q-25 -27 -55 -27q-33 0 -57.5 26.5t-24.5 57.5q0 29 25.5 53.5t52.5 24.5v0q49 0 73 -45q25 -49 -14 -90zM1180 29q-25 -27 -56 -27q-33 0 -57.5 26.5t-24.5 57.5q0 29 26 53.5t52 24.5v0 q49 0 74 -45q25 -49 -14 -90zM762 29q-25 -27 -55 -27q-33 0 -57.5 26.5t-24.5 57.5q0 29 25.5 53.5t51.5 24.5v0q49 0 74 -45q25 -49 -14 -90zM553 29q-25 -27 -55 -27q-33 0 -57.5 26.5t-24.5 57.5q0 29 25.5 53.5t52.5 24.5v0q49 0 73 -45q25 -49 -14 -90zM1389 27 q-25 -27 -56 -27q-33 0 -57.5 26.5t-24.5 57.5q0 29 26 53.5t52 24.5v0q49 0 74 -45q25 -49 -14 -90z" />
<glyph unicode="e" d="M346 1083q-25 -27 -55 -26q-33 0 -57.5 26.5t-24.5 57.5q0 29 25.5 53.5t52.5 24.5v0q49 0 73 -45q25 -50 -14 -91zM1182 1081q-25 -27 -56 -26q-33 0 -57.5 26.5t-24.5 57.5q0 29 26 53.5t52 24.5v0q49 0 74 -46q25 -49 -14 -90zM973 1081q-25 -27 -55 -26 q-33 0 -57.5 26.5t-24.5 57.5q0 29 25.5 53.5t51.5 24.5v0q49 0 74 -46q25 -49 -14 -90zM764 1081q-25 -27 -55 -26q-33 0 -57.5 26.5t-24.5 57.5q0 29 25.5 53.5t52.5 24.5v0q49 0 73 -46q25 -49 -14 -90zM555 1081q-25 -27 -55 -26q-33 0 -57.5 26.5t-24.5 57.5 q0 29 25.5 53.5t52.5 24.5v0q49 0 73 -46q25 -49 -14 -90zM135 874q-25 -27 -55 -26q-33 0 -57.5 26.5t-24.5 57.5q0 29 25.5 53.5t52.5 24.5v0q49 0 74 -45q24 -50 -15 -91zM1389 870q-25 -27 -56 -26q-33 0 -57.5 26.5t-24.5 57.5q0 29 26 53.5t52 24.5v0q49 0 74 -45 q25 -50 -14 -91zM344 664q-25 -27 -55 -27q-33 0 -57.5 26.5t-24.5 59.5q0 27 24.5 51.5t53.5 24.5v0q47 0 71 -47q27 -47 -12 -88zM135 664q-25 -27 -55 -27q-33 0 -57.5 26.5t-24.5 59.5q0 27 24.5 51.5t53.5 24.5v0q47 0 71 -47q27 -47 -12 -88zM1180 662 q-25 -27 -56 -27q-33 0 -57.5 26.5t-24.5 59.5q0 27 25 51.5t53 24.5v0q47 0 72 -47q27 -47 -12 -88zM971 662q-25 -27 -56 -27q-33 0 -57 26.5t-24 59.5q0 27 24.5 51.5t52.5 24.5v0q47 0 72 -47q27 -47 -12 -88zM762 662q-25 -27 -55 -27q-33 0 -57.5 26.5t-24.5 59.5 q0 27 24.5 51.5t52.5 24.5v0q47 0 72 -47q27 -47 -12 -88zM553 662q-25 -27 -55 -27q-33 0 -57.5 26.5t-24.5 59.5q0 27 24.5 51.5t53.5 24.5v0q47 0 71 -47q27 -47 -12 -88zM1389 659q-25 -27 -56 -26q-33 0 -57.5 26.5t-24.5 59.5q0 27 24.5 51.5t53.5 24.5v0q47 0 72 -47 q27 -48 -12 -89zM135 453q-25 -27 -55 -27q-33 0 -57.5 26.5t-24.5 57.5q0 29 25.5 53.5t52.5 24.5v0q49 0 74 -45q24 -49 -15 -90zM135 242q-25 -27 -55 -27q-33 0 -57.5 26.5t-24.5 57.5q0 29 25.5 53.5t52.5 24.5v0q49 0 74 -45q24 -49 -15 -90zM1389 238 q-25 -27 -56 -27q-33 0 -57.5 26.5t-24.5 57.5q0 29 26 53.5t52 24.5v0q49 0 74 -45q25 -49 -14 -90zM344 31q-25 -27 -55 -27q-33 0 -57.5 26.5t-24.5 57.5q0 29 25.5 53.5t52.5 24.5v0q49 0 73 -45q25 -49 -14 -90zM1180 29q-25 -27 -56 -27q-33 0 -57.5 26.5t-24.5 57.5 q0 29 26 53.5t52 24.5v0q49 0 74 -45q25 -49 -14 -90zM971 29q-25 -27 -56 -27q-33 0 -57 26.5t-24 57.5q0 29 25.5 53.5t51.5 24.5v0q49 0 74 -45q25 -49 -14 -90zM762 29q-25 -27 -55 -27q-33 0 -57.5 26.5t-24.5 57.5q0 29 25.5 53.5t51.5 24.5v0q49 0 74 -45 q25 -49 -14 -90zM553 29q-25 -27 -55 -27q-33 0 -57.5 26.5t-24.5 57.5q0 29 25.5 53.5t52.5 24.5v0q49 0 73 -45q25 -49 -14 -90z" />
<glyph unicode="f" d="M1180 1499q-25 -27 -56 -26q-33 0 -57.5 26.5t-24.5 56.5q0 29 26 53.5t52 24.5v0q49 0 74 -45q25 -49 -14 -90zM971 1499q-25 -27 -56 -26q-33 0 -57 26.5t-24 56.5q0 29 25.5 53.5t51.5 24.5v0q49 0 74 -45q25 -49 -14 -90zM762 1499q-25 -27 -55 -26q-33 0 -57.5 26.5 t-24.5 56.5q0 29 25.5 53.5t51.5 24.5v0q49 0 74 -45q25 -49 -14 -90zM553 1499q-25 -27 -55 -26q-33 0 -57.5 26.5t-24.5 56.5q0 29 25.5 53.5t52.5 24.5v0q49 0 73 -45q25 -49 -14 -90zM1378 1319q-25 -27 -55 -27q-33 0 -57.5 27t-24.5 57q0 29 25.5 53.5t52.5 24.5v0 q49 0 74 -45q24 -49 -15 -90zM344 1292q-25 -27 -55 -26q-33 0 -57.5 26.5t-24.5 57.5q0 29 25.5 53t52.5 24v0q49 0 73 -45q25 -49 -14 -90zM346 1083q-25 -27 -55 -26q-33 0 -57.5 26.5t-24.5 57.5q0 29 25.5 53.5t52.5 24.5v0q49 0 73 -45q25 -50 -14 -91zM344 874 q-25 -27 -55 -26q-33 0 -57.5 26.5t-24.5 57.5q0 29 25.5 53.5t52.5 24.5v0q49 0 73 -45q25 -50 -14 -91zM971 866q-25 -27 -56 -26q-33 0 -57 26.5t-24 59.5q0 27 24.5 51t52.5 24v0q47 0 72 -47q27 -47 -12 -88zM762 866q-25 -27 -55 -26q-33 0 -57.5 26.5t-24.5 59.5 q0 27 24.5 51t52.5 24v0q47 0 72 -47q27 -47 -12 -88zM553 866q-25 -27 -55 -26q-33 0 -57.5 26.5t-24.5 59.5q0 27 24.5 51t53.5 24v0q47 0 71 -47q27 -47 -12 -88zM344 664q-25 -27 -55 -27q-33 0 -57.5 26.5t-24.5 59.5q0 27 24.5 51.5t53.5 24.5v0q47 0 71 -47 q27 -47 -12 -88zM344 453q-25 -27 -55 -27q-33 0 -57.5 26.5t-24.5 57.5q0 29 25.5 53.5t52.5 24.5v0q49 0 73 -45q25 -49 -14 -90zM344 242q-25 -27 -55 -27q-33 0 -57.5 26.5t-24.5 57.5q0 29 25.5 53.5t52.5 24.5v0q49 0 73 -45q25 -49 -14 -90zM344 31q-25 -27 -55 -27 q-33 0 -57.5 26.5t-24.5 57.5q0 29 25.5 53.5t52.5 24.5v0q49 0 73 -45q25 -49 -14 -90zM135 31q-25 -27 -55 -27q-33 0 -57.5 26.5t-24.5 57.5q0 29 25.5 53.5t52.5 24.5v0q49 0 74 -45q24 -49 -15 -90zM553 29q-25 -27 -55 -27q-33 0 -57.5 26.5t-24.5 57.5 q0 29 25.5 53.5t52.5 24.5v0q49 0 73 -45q25 -49 -14 -90z" />
<glyph unicode="g" d="M346 1083q-25 -27 -55 -26q-33 0 -57.5 26.5t-24.5 57.5q0 29 25.5 53.5t52.5 24.5v0q49 0 73 -45q25 -50 -14 -91zM973 1081q-25 -27 -55 -26q-33 0 -57.5 26.5t-24.5 57.5q0 29 25.5 53.5t51.5 24.5v0q49 0 74 -46q25 -49 -14 -90zM764 1081q-25 -27 -55 -26 q-33 0 -57.5 26.5t-24.5 57.5q0 29 25.5 53.5t52.5 24.5v0q49 0 73 -46q25 -49 -14 -90zM555 1081q-25 -27 -55 -26q-33 0 -57.5 26.5t-24.5 57.5q0 29 25.5 53.5t52.5 24.5v0q49 0 73 -46q25 -49 -14 -90zM1391 1079q-25 -27 -56 -26q-33 0 -57.5 26.5t-24.5 57.5 q0 29 26 53t52 24v0q49 0 74 -45q25 -49 -14 -90zM135 874q-25 -27 -55 -26q-33 0 -57.5 26.5t-24.5 57.5q0 29 25.5 53.5t52.5 24.5v0q49 0 74 -45q24 -50 -15 -91zM1180 872q-25 -27 -56 -26q-33 0 -57.5 26.5t-24.5 57.5q0 29 26 53.5t52 24.5v0q49 0 74 -45 q25 -50 -14 -91zM1389 870q-25 -27 -56 -26q-33 0 -57.5 26.5t-24.5 57.5q0 29 26 53.5t52 24.5v0q49 0 74 -45q25 -50 -14 -91zM135 664q-25 -27 -55 -27q-33 0 -57.5 26.5t-24.5 59.5q0 27 24.5 51.5t53.5 24.5v0q47 0 71 -47q27 -47 -12 -88zM1389 659q-25 -27 -56 -26 q-33 0 -57.5 26.5t-24.5 59.5q0 27 24.5 51.5t53.5 24.5v0q47 0 72 -47q27 -48 -12 -89zM344 453q-25 -27 -55 -27q-33 0 -57.5 26.5t-24.5 57.5q0 29 25.5 53.5t52.5 24.5v0q49 0 73 -45q25 -49 -14 -90zM1180 451q-25 -27 -56 -27q-33 0 -57.5 26.5t-24.5 57.5 q0 29 26 53.5t52 24.5v0q49 0 74 -45q25 -49 -14 -90zM971 451q-25 -27 -56 -27q-33 0 -57 26.5t-24 57.5q0 29 25.5 53.5t51.5 24.5v0q49 0 74 -45q25 -49 -14 -90zM762 451q-25 -27 -55 -27q-33 0 -57.5 26.5t-24.5 57.5q0 29 25.5 53.5t51.5 24.5v0q49 0 74 -45 q25 -49 -14 -90zM553 451q-25 -27 -55 -27q-33 0 -57.5 26.5t-24.5 57.5q0 29 25.5 53.5t52.5 24.5v0q49 0 73 -45q25 -49 -14 -90zM1389 449q-25 -27 -56 -27q-33 0 -57.5 26.5t-24.5 57.5q0 29 26 53.5t52 24.5v0q49 0 74 -45q25 -49 -14 -90zM1389 238q-25 -27 -56 -27 q-33 0 -57.5 26.5t-24.5 57.5q0 29 26 53.5t52 24.5v0q49 0 74 -45q25 -49 -14 -90zM135 31q-25 -27 -55 -27q-33 0 -57.5 26.5t-24.5 57.5q0 29 25.5 53.5t52.5 24.5v0q49 0 74 -45q24 -49 -15 -90zM1389 27q-25 -27 -56 -27q-33 0 -57.5 26.5t-24.5 57.5q0 29 26 53.5 t52 24.5v0q49 0 74 -45q25 -49 -14 -90zM344 -188q-25 -27 -55 -27q-33 0 -57.5 26.5t-24.5 57.5q0 29 25.5 53.5t52.5 24.5v0q49 0 73 -45q25 -49 -14 -90zM1180 -190q-25 -27 -56 -27q-33 0 -57.5 26.5t-24.5 57.5q0 29 26 53.5t52 24.5v0q49 0 74 -45q25 -49 -14 -90z M971 -190q-25 -27 -56 -27q-33 0 -57 26.5t-24 57.5q0 29 25.5 53.5t51.5 24.5v0q49 0 74 -45q25 -49 -14 -90zM762 -190q-25 -27 -55 -27q-33 0 -57.5 26.5t-24.5 57.5q0 29 25.5 53.5t51.5 24.5v0q49 0 74 -45q25 -49 -14 -90zM553 -190q-25 -27 -55 -27q-33 0 -57.5 26.5 t-24.5 57.5q0 29 25.5 53.5t52.5 24.5v0q49 0 73 -45q25 -49 -14 -90z" />
<glyph unicode="h" d="M344 1501q-25 -27 -55 -26q-33 0 -57.5 26.5t-24.5 57.5q0 29 25.5 53t52.5 24v0q49 0 73 -45q25 -49 -14 -90zM135 1501q-25 -27 -55 -26q-33 0 -57.5 26.5t-24.5 57.5q0 29 25.5 53t52.5 24v0q49 0 74 -45q24 -49 -15 -90zM553 1499q-25 -27 -55 -26q-33 0 -57.5 26.5 t-24.5 56.5q0 29 25.5 53.5t52.5 24.5v0q49 0 73 -45q25 -49 -14 -90zM344 1292q-25 -27 -55 -26q-33 0 -57.5 26.5t-24.5 57.5q0 29 25.5 53t52.5 24v0q49 0 73 -45q25 -49 -14 -90zM346 1083q-25 -27 -55 -26q-33 0 -57.5 26.5t-24.5 57.5q0 29 25.5 53.5t52.5 24.5v0 q49 0 73 -45q25 -50 -14 -91zM1182 1081q-25 -27 -56 -26q-33 0 -57.5 26.5t-24.5 57.5q0 29 26 53.5t52 24.5v0q49 0 74 -46q25 -49 -14 -90zM973 1081q-25 -27 -55 -26q-33 0 -57.5 26.5t-24.5 57.5q0 29 25.5 53.5t51.5 24.5v0q49 0 74 -46q25 -49 -14 -90zM764 1081 q-25 -27 -55 -26q-33 0 -57.5 26.5t-24.5 57.5q0 29 25.5 53.5t52.5 24.5v0q49 0 73 -46q25 -49 -14 -90zM344 874q-25 -27 -55 -26q-33 0 -57.5 26.5t-24.5 57.5q0 29 25.5 53.5t52.5 24.5v0q49 0 73 -45q25 -50 -14 -91zM553 872q-25 -27 -55 -26q-33 0 -57.5 26.5 t-24.5 57.5q0 29 25.5 53.5t52.5 24.5v0q49 0 73 -45q25 -50 -14 -91zM1389 870q-25 -27 -56 -26q-33 0 -57.5 26.5t-24.5 57.5q0 29 26 53.5t52 24.5v0q49 0 74 -45q25 -50 -14 -91zM344 664q-25 -27 -55 -27q-33 0 -57.5 26.5t-24.5 59.5q0 27 24.5 51.5t53.5 24.5v0 q47 0 71 -47q27 -47 -12 -88zM1389 659q-25 -27 -56 -26q-33 0 -57.5 26.5t-24.5 59.5q0 27 24.5 51.5t53.5 24.5v0q47 0 72 -47q27 -48 -12 -89zM344 453q-25 -27 -55 -27q-33 0 -57.5 26.5t-24.5 57.5q0 29 25.5 53.5t52.5 24.5v0q49 0 73 -45q25 -49 -14 -90zM1389 449 q-25 -27 -56 -27q-33 0 -57.5 26.5t-24.5 57.5q0 29 26 53.5t52 24.5v0q49 0 74 -45q25 -49 -14 -90zM344 242q-25 -27 -55 -27q-33 0 -57.5 26.5t-24.5 57.5q0 29 25.5 53.5t52.5 24.5v0q49 0 73 -45q25 -49 -14 -90zM1389 238q-25 -27 -56 -27q-33 0 -57.5 26.5 t-24.5 57.5q0 29 26 53.5t52 24.5v0q49 0 74 -45q25 -49 -14 -90zM344 31q-25 -27 -55 -27q-33 0 -57.5 26.5t-24.5 57.5q0 29 25.5 53.5t52.5 24.5v0q49 0 73 -45q25 -49 -14 -90zM135 31q-25 -27 -55 -27q-33 0 -57.5 26.5t-24.5 57.5q0 29 25.5 53.5t52.5 24.5v0 q49 0 74 -45q24 -49 -15 -90zM553 29q-25 -27 -55 -27q-33 0 -57.5 26.5t-24.5 57.5q0 29 25.5 53.5t52.5 24.5v0q49 0 73 -45q25 -49 -14 -90zM1389 27q-25 -27 -56 -27q-33 0 -57.5 26.5t-24.5 57.5q0 29 26 53.5t52 24.5v0q49 0 74 -45q25 -49 -14 -90z" />
<glyph unicode="i" horiz-adv-x="737" d="M344 1501q-25 -27 -55 -26q-33 0 -57.5 26.5t-24.5 57.5q0 29 25.5 53t52.5 24v0q49 0 73 -45q25 -49 -14 -90zM346 1083q-25 -27 -55 -26q-33 0 -57.5 26.5t-24.5 57.5q0 29 25.5 53.5t52.5 24.5v0q49 0 73 -45q25 -50 -14 -91zM137 1083q-25 -27 -55 -26 q-33 0 -57.5 26.5t-24.5 57.5q0 29 25.5 53.5t52.5 24.5v0q49 0 74 -45q24 -50 -15 -91zM555 1081q-25 -27 -55 -26q-33 0 -57.5 26.5t-24.5 57.5q0 29 25.5 53.5t52.5 24.5v0q49 0 73 -46q25 -49 -14 -90zM344 874q-25 -27 -55 -26q-33 0 -57.5 26.5t-24.5 57.5 q0 29 25.5 53.5t52.5 24.5v0q49 0 73 -45q25 -50 -14 -91zM344 664q-25 -27 -55 -27q-33 0 -57.5 26.5t-24.5 59.5q0 27 24.5 51.5t53.5 24.5v0q47 0 71 -47q27 -47 -12 -88zM344 453q-25 -27 -55 -27q-33 0 -57.5 26.5t-24.5 57.5q0 29 25.5 53.5t52.5 24.5v0q49 0 73 -45 q25 -49 -14 -90zM344 242q-25 -27 -55 -27q-33 0 -57.5 26.5t-24.5 57.5q0 29 25.5 53.5t52.5 24.5v0q49 0 73 -45q25 -49 -14 -90zM344 31q-25 -27 -55 -27q-33 0 -57.5 26.5t-24.5 57.5q0 29 25.5 53.5t52.5 24.5v0q49 0 73 -45q25 -49 -14 -90zM135 31q-25 -27 -55 -27 q-33 0 -57.5 26.5t-24.5 57.5q0 29 25.5 53.5t52.5 24.5v0q49 0 74 -45q24 -49 -15 -90zM553 29q-25 -27 -55 -27q-33 0 -57.5 26.5t-24.5 57.5q0 29 25.5 53.5t52.5 24.5v0q49 0 73 -45q25 -49 -14 -90z" />
<glyph unicode="j" d="M1163 1462q-25 -27 -55 -26q-33 0 -57.5 26.5t-24.5 57.5q0 29 25.5 53t52.5 24v0q49 0 74 -45q24 -49 -15 -90zM1182 1081q-25 -27 -56 -26q-33 0 -57.5 26.5t-24.5 57.5q0 29 26 53.5t52 24.5v0q49 0 74 -46q25 -49 -14 -90zM973 1081q-25 -27 -55 -26 q-33 0 -57.5 26.5t-24.5 57.5q0 29 25.5 53.5t51.5 24.5v0q49 0 74 -46q25 -49 -14 -90zM1391 1079q-25 -27 -56 -26q-33 0 -57.5 26.5t-24.5 57.5q0 29 26 53t52 24v0q49 0 74 -45q25 -49 -14 -90zM1180 872q-25 -27 -56 -26q-33 0 -57.5 26.5t-24.5 57.5q0 29 26 53.5 t52 24.5v0q49 0 74 -45q25 -50 -14 -91zM1180 662q-25 -27 -56 -27q-33 0 -57.5 26.5t-24.5 59.5q0 27 25 51.5t53 24.5v0q47 0 72 -47q27 -47 -12 -88zM1180 451q-25 -27 -56 -27q-33 0 -57.5 26.5t-24.5 57.5q0 29 26 53.5t52 24.5v0q49 0 74 -45q25 -49 -14 -90z M1180 240q-25 -27 -56 -27q-33 0 -57.5 26.5t-24.5 57.5q0 29 26 53.5t52 24.5v0q49 0 74 -45q25 -49 -14 -90zM135 31q-25 -27 -55 -27q-33 0 -57.5 26.5t-24.5 57.5q0 29 25.5 53.5t52.5 24.5v0q49 0 74 -45q24 -49 -15 -90zM1180 29q-25 -27 -56 -27q-33 0 -57.5 26.5 t-24.5 57.5q0 29 26 53.5t52 24.5v0q49 0 74 -45q25 -49 -14 -90zM344 -199q-25 -27 -55 -26q-33 0 -57.5 26.5t-24.5 57.5q0 29 25.5 53.5t52.5 24.5v0q49 0 73 -46q25 -49 -14 -90zM971 -201q-25 -27 -56 -26q-33 0 -57 26.5t-24 57.5q0 29 25.5 53t51.5 24v0q49 0 74 -45 q25 -49 -14 -90zM762 -201q-25 -27 -55 -26q-33 0 -57.5 26.5t-24.5 57.5q0 29 25.5 53t51.5 24v0q49 0 74 -45q25 -49 -14 -90zM553 -201q-25 -27 -55 -26q-33 0 -57.5 26.5t-24.5 57.5q0 29 25.5 53t52.5 24v0q49 0 73 -45q25 -49 -14 -90z" />
<glyph unicode="k" horiz-adv-x="1341" d="M344 1501q-25 -27 -55 -26q-33 0 -57.5 26.5t-24.5 57.5q0 29 25.5 53t52.5 24v0q49 0 73 -45q25 -49 -14 -90zM135 1501q-25 -27 -55 -26q-33 0 -57.5 26.5t-24.5 57.5q0 29 25.5 53t52.5 24v0q49 0 74 -45q24 -49 -15 -90zM553 1499q-25 -27 -55 -26q-33 0 -57.5 26.5 t-24.5 56.5q0 29 25.5 53.5t52.5 24.5v0q49 0 73 -45q25 -49 -14 -90zM344 1292q-25 -27 -55 -26q-33 0 -57.5 26.5t-24.5 57.5q0 29 25.5 53t52.5 24v0q49 0 73 -45q25 -49 -14 -90zM1180 1290q-25 -27 -56 -26q-33 0 -57.5 26.5t-24.5 57.5q0 29 26 53t52 24v0 q49 0 74 -45q25 -49 -14 -90zM346 1083q-25 -27 -55 -26q-33 0 -57.5 26.5t-24.5 57.5q0 29 25.5 53.5t52.5 24.5v0q49 0 73 -45q25 -50 -14 -91zM973 1081q-25 -27 -55 -26q-33 0 -57.5 26.5t-24.5 57.5q0 29 25.5 53.5t51.5 24.5v0q49 0 74 -46q25 -49 -14 -90zM553 872 q23 23 22 56q0 33 -22 55v-111zM344 874q-25 -27 -55 -26q-33 0 -57.5 26.5t-24.5 57.5q0 29 25.5 53.5t52.5 24.5v0q49 0 73 -45q25 -50 -14 -91zM762 872q-25 -27 -55 -26q-33 0 -57.5 26.5t-24.5 57.5q0 29 25.5 53.5t51.5 24.5v0q49 0 74 -45q25 -50 -14 -91zM344 664 q-25 -27 -55 -27q-33 0 -57.5 26.5t-24.5 59.5q0 27 24.5 51.5t53.5 24.5v0q47 0 71 -47q27 -47 -12 -88zM553 662q-25 -27 -55 -27q-33 0 -57.5 26.5t-24.5 59.5q0 27 24.5 51.5t53.5 24.5v0q47 0 71 -47q27 -47 -12 -88zM344 453q-25 -27 -55 -27q-33 0 -57.5 26.5 t-24.5 57.5q0 29 25.5 53.5t52.5 24.5v0q49 0 73 -45q25 -49 -14 -90zM762 451q-25 -27 -55 -27q-33 0 -57.5 26.5t-24.5 57.5q0 29 25.5 53.5t51.5 24.5v0q49 0 74 -45q25 -49 -14 -90zM344 242q-25 -27 -55 -27q-33 0 -57.5 26.5t-24.5 57.5q0 29 25.5 53.5t52.5 24.5v0 q49 0 73 -45q25 -49 -14 -90zM971 240q-25 -27 -56 -27q-33 0 -57 26.5t-24 57.5q0 29 25.5 53.5t51.5 24.5v0q49 0 74 -45q25 -49 -14 -90zM344 31q-25 -27 -55 -27q-33 0 -57.5 26.5t-24.5 57.5q0 29 25.5 53.5t52.5 24.5v0q49 0 73 -45q25 -49 -14 -90zM135 31 q-25 -27 -55 -27q-33 0 -57.5 26.5t-24.5 57.5q0 29 25.5 53.5t52.5 24.5v0q49 0 74 -45q24 -49 -15 -90zM1180 29q-25 -27 -56 -27q-33 0 -57.5 26.5t-24.5 57.5q0 29 26 53.5t52 24.5v0q49 0 74 -45q25 -49 -14 -90zM553 29q-25 -27 -55 -27q-33 0 -57.5 26.5t-24.5 57.5 q0 29 25.5 53.5t52.5 24.5v0q49 0 73 -45q25 -49 -14 -90z" />
<glyph unicode="l" horiz-adv-x="686" d="M344 1501q-25 -27 -55 -26q-33 0 -57.5 26.5t-24.5 57.5q0 29 25.5 53t52.5 24v0q49 0 73 -45q25 -49 -14 -90zM135 1501q-25 -27 -55 -26q-33 0 -57.5 26.5t-24.5 57.5q0 29 25.5 53t52.5 24v0q49 0 74 -45q24 -49 -15 -90zM344 1292q-25 -27 -55 -26q-33 0 -57.5 26.5 t-24.5 57.5q0 29 25.5 53t52.5 24v0q49 0 73 -45q25 -49 -14 -90zM346 1083q-25 -27 -55 -26q-33 0 -57.5 26.5t-24.5 57.5q0 29 25.5 53.5t52.5 24.5v0q49 0 73 -45q25 -50 -14 -91zM344 874q-25 -27 -55 -26q-33 0 -57.5 26.5t-24.5 57.5q0 29 25.5 53.5t52.5 24.5v0 q49 0 73 -45q25 -50 -14 -91zM344 664q-25 -27 -55 -27q-33 0 -57.5 26.5t-24.5 59.5q0 27 24.5 51.5t53.5 24.5v0q47 0 71 -47q27 -47 -12 -88zM344 453q-25 -27 -55 -27q-33 0 -57.5 26.5t-24.5 57.5q0 29 25.5 53.5t52.5 24.5v0q49 0 73 -45q25 -49 -14 -90zM344 242 q-25 -27 -55 -27q-33 0 -57.5 26.5t-24.5 57.5q0 29 25.5 53.5t52.5 24.5v0q49 0 73 -45q25 -49 -14 -90zM344 31q-25 -27 -55 -27q-33 0 -57.5 26.5t-24.5 57.5q0 29 25.5 53.5t52.5 24.5v0q49 0 73 -45q25 -49 -14 -90zM135 31q-25 -27 -55 -27q-33 0 -57.5 26.5 t-24.5 57.5q0 29 25.5 53.5t52.5 24.5v0q49 0 74 -45q24 -49 -15 -90zM553 29q-25 -27 -55 -27q-33 0 -57.5 26.5t-24.5 57.5q0 29 25.5 53.5t52.5 24.5v0q49 0 73 -45q25 -49 -14 -90z" />
<glyph unicode="m" d="M997 1092q-25 -27 -55 -27q-33 0 -57.5 26.5t-24.5 57.5q0 29 25.5 53.5t52.5 24.5v0q49 0 74 -45q24 -49 -15 -90zM580 1092q-25 -27 -56 -27q-33 0 -57.5 26.5t-24.5 57.5q0 29 26 53.5t52 24.5v0q49 0 74 -45q25 -49 -14 -90zM137 1083q-25 -27 -55 -26 q-33 0 -57.5 26.5t-24.5 57.5q0 29 25.5 53.5t52.5 24.5v0q49 0 74 -45q24 -50 -15 -91zM786 883q-25 -27 -55 -27q-33 0 -57.5 26.5t-24.5 57.5q0 29 25.5 53.5t52.5 24.5v0q49 0 74 -45q24 -49 -15 -90zM1204 881q-25 -27 -55 -27q-33 0 -57.5 26.5t-24.5 57.5 q0 29 25.5 53.5t52.5 24.5v0q49 0 74 -45q24 -49 -15 -90zM344 874q-25 -27 -55 -26q-33 0 -57.5 26.5t-24.5 57.5q0 29 25.5 53.5t52.5 24.5v0q49 0 73 -45q25 -50 -14 -91zM786 672q-25 -27 -55 -27q-33 0 -57.5 26.5t-24.5 59.5q0 27 24.5 51.5t53.5 24.5v0q47 0 72 -47 q26 -47 -13 -88zM1204 670q-25 -27 -55 -27q-33 0 -57.5 26.5t-24.5 59.5q0 27 24.5 51.5t53.5 24.5v0q47 0 72 -47q26 -47 -13 -88zM344 664q-25 -27 -55 -27q-33 0 -57.5 26.5t-24.5 59.5q0 27 24.5 51.5t53.5 24.5v0q47 0 71 -47q27 -47 -12 -88zM786 461 q-25 -27 -55 -27q-33 0 -57.5 26.5t-24.5 57.5q0 29 25.5 53.5t52.5 24.5v0q49 0 74 -45q24 -49 -15 -90zM1204 459q-25 -27 -55 -27q-33 0 -57.5 26.5t-24.5 57.5q0 29 25.5 53.5t52.5 24.5v0q49 0 74 -45q24 -49 -15 -90zM344 453q-25 -27 -55 -27q-33 0 -57.5 26.5 t-24.5 57.5q0 29 25.5 53.5t52.5 24.5v0q49 0 73 -45q25 -49 -14 -90zM786 250q-25 -27 -55 -27q-33 0 -57.5 26.5t-24.5 57.5q0 29 25.5 53.5t52.5 24.5v0q49 0 74 -45q24 -49 -15 -90zM1204 248q-25 -27 -55 -27q-33 0 -57.5 26.5t-24.5 57.5q0 29 25.5 53.5t52.5 24.5v0 q49 0 74 -45q24 -49 -15 -90zM344 242q-25 -27 -55 -27q-33 0 -57.5 26.5t-24.5 57.5q0 29 25.5 53.5t52.5 24.5v0q49 0 73 -45q25 -49 -14 -90zM786 39q-25 -27 -55 -27q-33 0 -57.5 27t-24.5 57q0 29 25.5 53.5t52.5 24.5v0q49 0 74 -45q24 -49 -15 -90zM1204 37 q-25 -27 -55 -27q-33 0 -57.5 26.5t-24.5 57.5q0 29 25.5 53.5t52.5 24.5v0q49 0 74 -45q24 -49 -15 -90zM344 31q-25 -27 -55 -27q-33 0 -57.5 26.5t-24.5 57.5q0 29 25.5 53.5t52.5 24.5v0q49 0 73 -45q25 -49 -14 -90zM135 31q-25 -27 -55 -27q-33 0 -57.5 26.5 t-24.5 57.5q0 29 25.5 53.5t52.5 24.5v0q49 0 74 -45q24 -49 -15 -90zM1401 29q-25 -27 -55 -27q-33 0 -57.5 26.5t-24.5 57.5q0 29 25.5 53.5t51.5 24.5v0q49 0 74 -45q25 -49 -14 -90z" />
<glyph unicode="n" d="M346 1083q-25 -27 -55 -26q-33 0 -57.5 26.5t-24.5 57.5q0 29 25.5 53.5t52.5 24.5v0q49 0 73 -45q25 -50 -14 -91zM137 1083q-25 -27 -55 -26q-33 0 -57.5 26.5t-24.5 57.5q0 29 25.5 53.5t52.5 24.5v0q49 0 74 -45q24 -50 -15 -91zM973 1081q-25 -27 -55 -26 q-33 0 -57.5 26.5t-24.5 57.5q0 29 25.5 53.5t51.5 24.5v0q49 0 74 -46q25 -49 -14 -90zM764 1081q-25 -27 -55 -26q-33 0 -57.5 26.5t-24.5 57.5q0 29 25.5 53.5t52.5 24.5v0q49 0 73 -46q25 -49 -14 -90zM344 874q-25 -27 -55 -26q-33 0 -57.5 26.5t-24.5 57.5 q0 29 25.5 53.5t52.5 24.5v0q49 0 73 -45q25 -50 -14 -91zM1180 872q-25 -27 -56 -26q-33 0 -57.5 26.5t-24.5 57.5q0 29 26 53.5t52 24.5v0q49 0 74 -45q25 -50 -14 -91zM553 872q-25 -27 -55 -26q-33 0 -57.5 26.5t-24.5 57.5q0 29 25.5 53.5t52.5 24.5v0q49 0 73 -45 q25 -50 -14 -91zM344 664q-25 -27 -55 -27q-33 0 -57.5 26.5t-24.5 59.5q0 27 24.5 51.5t53.5 24.5v0q47 0 71 -47q27 -47 -12 -88zM1180 662q-25 -27 -56 -27q-33 0 -57.5 26.5t-24.5 59.5q0 27 25 51.5t53 24.5v0q47 0 72 -47q27 -47 -12 -88zM344 453q-25 -27 -55 -27 q-33 0 -57.5 26.5t-24.5 57.5q0 29 25.5 53.5t52.5 24.5v0q49 0 73 -45q25 -49 -14 -90zM1180 451q-25 -27 -56 -27q-33 0 -57.5 26.5t-24.5 57.5q0 29 26 53.5t52 24.5v0q49 0 74 -45q25 -49 -14 -90zM344 242q-25 -27 -55 -27q-33 0 -57.5 26.5t-24.5 57.5q0 29 25.5 53.5 t52.5 24.5v0q49 0 73 -45q25 -49 -14 -90zM1180 240q-25 -27 -56 -27q-33 0 -57.5 26.5t-24.5 57.5q0 29 26 53.5t52 24.5v0q49 0 74 -45q25 -49 -14 -90zM344 31q-25 -27 -55 -27q-33 0 -57.5 26.5t-24.5 57.5q0 29 25.5 53.5t52.5 24.5v0q49 0 73 -45q25 -49 -14 -90z M135 31q-25 -27 -55 -27q-33 0 -57.5 26.5t-24.5 57.5q0 29 25.5 53.5t52.5 24.5v0q49 0 74 -45q24 -49 -15 -90zM1180 29q-25 -27 -56 -27q-33 0 -57.5 26.5t-24.5 57.5q0 29 26 53.5t52 24.5v0q49 0 74 -45q25 -49 -14 -90zM553 29q-25 -27 -55 -27q-33 0 -57.5 26.5 t-24.5 57.5q0 29 25.5 53.5t52.5 24.5v0q49 0 73 -45q25 -49 -14 -90zM1389 27q-25 -27 -56 -27q-33 0 -57.5 26.5t-24.5 57.5q0 29 26 53.5t52 24.5v0q49 0 74 -45q25 -49 -14 -90z" />
<glyph unicode="o" horiz-adv-x="1361" d="M344 1067q-25 -27 -55 -27q-33 0 -57.5 27t-24.5 57q0 29 25.5 53.5t52.5 24.5v0q49 0 73 -45q25 -49 -14 -90zM971 1065q-25 -27 -56 -27q-33 0 -57 27t-24 57q0 29 25.5 53.5t51.5 24.5v0q49 0 74 -45q25 -49 -14 -90zM762 1065q-25 -27 -55 -27q-33 0 -57.5 27 t-24.5 57q0 29 25.5 53.5t51.5 24.5v0q49 0 74 -45q25 -49 -14 -90zM553 1065q-25 -27 -55 -27q-33 0 -57.5 27t-24.5 57q0 29 25.5 53.5t52.5 24.5v0q49 0 73 -45q25 -49 -14 -90zM135 874q-25 -27 -55 -26q-33 0 -57.5 26.5t-24.5 57.5q0 29 25.5 53.5t52.5 24.5v0 q49 0 74 -45q24 -50 -15 -91zM1180 872q-25 -27 -56 -26q-33 0 -57.5 26.5t-24.5 57.5q0 29 26 53.5t52 24.5v0q49 0 74 -45q25 -50 -14 -91zM135 664q-25 -27 -55 -27q-33 0 -57.5 26.5t-24.5 59.5q0 27 24.5 51.5t53.5 24.5v0q47 0 71 -47q27 -47 -12 -88zM1180 662 q-25 -27 -56 -27q-33 0 -57.5 26.5t-24.5 59.5q0 27 25 51.5t53 24.5v0q47 0 72 -47q27 -47 -12 -88zM135 453q-25 -27 -55 -27q-33 0 -57.5 26.5t-24.5 57.5q0 29 25.5 53.5t52.5 24.5v0q49 0 74 -45q24 -49 -15 -90zM1180 451q-25 -27 -56 -27q-33 0 -57.5 26.5 t-24.5 57.5q0 29 26 53.5t52 24.5v0q49 0 74 -45q25 -49 -14 -90zM135 242q-25 -27 -55 -27q-33 0 -57.5 26.5t-24.5 57.5q0 29 25.5 53.5t52.5 24.5v0q49 0 74 -45q24 -49 -15 -90zM1180 240q-25 -27 -56 -27q-33 0 -57.5 26.5t-24.5 57.5q0 29 26 53.5t52 24.5v0 q49 0 74 -45q25 -49 -14 -90zM344 31q-25 -27 -55 -27q-33 0 -57.5 26.5t-24.5 57.5q0 29 25.5 53.5t52.5 24.5v0q49 0 73 -45q25 -49 -14 -90zM971 29q-25 -27 -56 -27q-33 0 -57 26.5t-24 57.5q0 29 25.5 53.5t51.5 24.5v0q49 0 74 -45q25 -49 -14 -90zM762 29 q-25 -27 -55 -27q-33 0 -57.5 26.5t-24.5 57.5q0 29 25.5 53.5t51.5 24.5v0q49 0 74 -45q25 -49 -14 -90zM553 29q-25 -27 -55 -27q-33 0 -57.5 26.5t-24.5 57.5q0 29 25.5 53.5t52.5 24.5v0q49 0 73 -45q25 -49 -14 -90z" />
<glyph unicode="p" horiz-adv-x="1361" d="M346 1083q-25 -27 -55 -26q-33 0 -57.5 26.5t-24.5 57.5q0 29 25.5 53.5t52.5 24.5v0q49 0 73 -45q25 -50 -14 -91zM137 1083q-25 -27 -55 -26q-33 0 -57.5 26.5t-24.5 57.5q0 29 25.5 53.5t52.5 24.5v0q49 0 74 -45q24 -50 -15 -91zM973 1081q-25 -27 -55 -26 q-33 0 -57.5 26.5t-24.5 57.5q0 29 25.5 53.5t51.5 24.5v0q49 0 74 -46q25 -49 -14 -90zM764 1081q-25 -27 -55 -26q-33 0 -57.5 26.5t-24.5 57.5q0 29 25.5 53.5t52.5 24.5v0q49 0 73 -46q25 -49 -14 -90zM575 897q-25 -27 -55 -27q-33 0 -57.5 27t-24.5 57q0 29 25.5 53.5 t52.5 24.5v0q49 0 74 -45q24 -49 -15 -90zM344 874q-25 -27 -55 -26q-33 0 -57.5 26.5t-24.5 57.5q0 29 25.5 53.5t52.5 24.5v0q49 0 73 -45q25 -50 -14 -91zM1180 872q-25 -27 -56 -26q-33 0 -57.5 26.5t-24.5 57.5q0 29 26 53.5t52 24.5v0q49 0 74 -45q25 -50 -14 -91z M344 664q-25 -27 -55 -27q-33 0 -57.5 26.5t-24.5 59.5q0 27 24.5 51.5t53.5 24.5v0q47 0 71 -47q27 -47 -12 -88zM1180 662q-25 -27 -56 -27q-33 0 -57.5 26.5t-24.5 59.5q0 27 25 51.5t53 24.5v0q47 0 72 -47q27 -47 -12 -88zM344 453q-25 -27 -55 -27q-33 0 -57.5 26.5 t-24.5 57.5q0 29 25.5 53.5t52.5 24.5v0q49 0 73 -45q25 -49 -14 -90zM1180 451q-25 -27 -56 -27q-33 0 -57.5 26.5t-24.5 57.5q0 29 26 53.5t52 24.5v0q49 0 74 -45q25 -49 -14 -90zM344 242q-25 -27 -55 -27q-33 0 -57.5 26.5t-24.5 57.5q0 29 25.5 53.5t52.5 24.5v0 q49 0 73 -45q25 -49 -14 -90zM971 240q-25 -27 -56 -27q-33 0 -57 26.5t-24 57.5q0 29 25.5 53.5t51.5 24.5v0q49 0 74 -45q25 -49 -14 -90zM762 240q-25 -27 -55 -27q-33 0 -57.5 26.5t-24.5 57.5q0 29 25.5 53.5t51.5 24.5v0q49 0 74 -45q25 -49 -14 -90zM553 240 q-25 -27 -55 -27q-33 0 -57.5 26.5t-24.5 57.5q0 29 25.5 53.5t52.5 24.5v0q49 0 73 -45q25 -49 -14 -90zM344 31q-25 -27 -55 -27q-33 0 -57.5 26.5t-24.5 57.5q0 29 25.5 53.5t52.5 24.5v0q49 0 73 -45q25 -49 -14 -90zM334 -188q-25 -27 -55 -27q-33 0 -57.5 26.5 t-24.5 57.5q0 29 25.5 53.5t51.5 24.5v0q49 0 74 -45q25 -49 -14 -90zM125 -188q-25 -27 -55 -27q-33 0 -57.5 26.5t-24.5 57.5q0 29 25.5 53.5t52.5 24.5v0q49 0 73 -45q25 -49 -14 -90zM543 -190q-25 -27 -56 -27q-33 0 -57 26.5t-24 57.5q0 29 25.5 53.5t51.5 24.5v0 q49 0 74 -45q25 -49 -14 -90z" />
<glyph unicode="q" horiz-adv-x="1361" d="M1219 1073q-25 -27 -56 -26q-33 0 -57.5 25.5t-24.5 57.5q0 27 24.5 52.5t53.5 25.5v0q47 0 74 -45q25 -47 -14 -90zM1010 1073q-25 -27 -56 -26q-33 0 -57.5 25.5t-24.5 57.5q0 27 25 52.5t53 25.5v0q47 0 74 -45q25 -47 -14 -90zM592 1071q-25 -27 -55 -27 q-33 0 -57.5 26t-24.5 58q0 27 24.5 52.5t52.5 25.5v0q47 0 74 -45q25 -47 -14 -90zM383 1071q-25 -27 -55 -27q-33 0 -57.5 26t-24.5 58q0 27 24.5 52.5t53.5 25.5v0q47 0 73 -45q25 -47 -14 -90zM811 866q-25 -27 -55 -26q-33 0 -57.5 25.5t-24.5 58.5q0 27 24.5 52 t53.5 25v0q47 0 73 -45q25 -47 -14 -90zM1012 864q-25 -27 -56 -26q-33 0 -57.5 25.5t-24.5 58.5q0 27 25 52t53 25v0q47 0 74 -45q25 -47 -14 -90zM176 862q-25 -27 -55 -26q-33 0 -57.5 25.5t-24.5 58.5q0 27 24.5 52t53.5 25v0q47 0 73 -45q25 -47 -14 -90zM1012 653 q-25 -27 -56 -26q-33 0 -57.5 25.5t-24.5 56.5q0 29 26 54t54 25v0q47 0 72 -47t-14 -88zM176 651q-25 -27 -55 -26q-33 0 -57.5 25.5t-24.5 56.5q0 29 25.5 54t54.5 25v0q47 0 71 -47q25 -47 -14 -88zM1012 442q-25 -27 -56 -26q-33 0 -57.5 25.5t-24.5 58.5q0 27 25 52.5 t53 25.5v0q47 0 74 -46q25 -47 -14 -90zM176 440q-25 -27 -55 -26q-33 0 -57.5 25.5t-24.5 58.5q0 27 24.5 52t53.5 25v0q47 0 73 -45q25 -47 -14 -90zM1012 231q-25 -27 -56 -26q-33 0 -57.5 25.5t-24.5 58.5q0 27 25 52.5t53 25.5v0q47 0 74 -45q25 -48 -14 -91zM803 229 q-25 -27 -55 -26q-33 0 -57.5 25.5t-24.5 58.5q0 27 24.5 52.5t52.5 25.5v0q47 0 74 -46q25 -47 -14 -90zM594 229q-25 -27 -55 -26q-33 0 -57.5 25.5t-24.5 58.5q0 27 24.5 52.5t53.5 25.5v0q47 0 73 -46q25 -47 -14 -90zM385 229q-25 -27 -55 -26q-33 0 -57.5 25.5 t-24.5 58.5q0 27 24.5 52.5t53.5 25.5v0q47 0 73 -46q25 -47 -14 -90zM1012 20q-25 -27 -56 -26q-33 0 -57.5 25.5t-24.5 58.5q0 27 25 52.5t53 25.5v0q47 0 74 -45q25 -48 -14 -91zM1231 -199q-25 -27 -55 -26q-33 0 -57.5 25.5t-24.5 58.5q0 27 24.5 52.5t52.5 25.5v0 q47 0 74 -46q25 -47 -14 -90zM1022 -199q-25 -27 -55 -26q-33 0 -57.5 25.5t-24.5 58.5q0 27 24.5 52.5t53.5 25.5v0q47 0 73 -46q25 -47 -14 -90zM813 -201q-25 -27 -55 -26q-33 0 -57.5 25.5t-24.5 58.5q0 27 24.5 52t53.5 25v0q47 0 73 -45q25 -47 -14 -90z" />
<glyph unicode="r" horiz-adv-x="1320" d="M344 1067q-25 -27 -55 -27q-33 0 -57.5 27t-24.5 57q0 29 25.5 53.5t52.5 24.5v0q49 0 73 -45q25 -49 -14 -90zM135 1067q-25 -27 -55 -27q-33 0 -57.5 27t-24.5 57q0 29 25.5 53.5t52.5 24.5v0q49 0 74 -45q24 -49 -15 -90zM971 1065q-25 -27 -56 -27q-33 0 -57 27 t-24 57q0 29 25.5 53.5t51.5 24.5v0q49 0 74 -45q25 -49 -14 -90zM762 1065q-25 -27 -55 -27q-33 0 -57.5 27t-24.5 57q0 29 25.5 53.5t51.5 24.5v0q49 0 74 -45q25 -49 -14 -90zM346 858q-25 -27 -55 -27q-33 0 -57.5 27t-24.5 57q0 29 25.5 53.5t52.5 24.5v0q49 0 73 -45 q25 -49 -14 -90zM1182 856q-25 -27 -56 -27q-33 0 -57.5 27t-24.5 57q0 29 26 53.5t52 24.5v0q49 0 74 -45q25 -49 -14 -90zM555 856q-25 -27 -55 -27q-33 0 -57.5 27t-24.5 57q0 29 25.5 53.5t52.5 24.5v0q49 0 73 -45q25 -49 -14 -90zM344 649q-25 -27 -55 -26 q-33 0 -57.5 26.5t-24.5 57.5q0 29 25.5 53t52.5 24v0q49 0 73 -45q25 -49 -14 -90zM344 453q-25 -27 -55 -27q-33 0 -57.5 26.5t-24.5 57.5q0 29 25.5 53.5t52.5 24.5v0q49 0 73 -45q25 -49 -14 -90zM344 242q-25 -27 -55 -27q-33 0 -57.5 26.5t-24.5 57.5q0 29 25.5 53.5 t52.5 24.5v0q49 0 73 -45q25 -49 -14 -90zM344 31q-25 -27 -55 -27q-33 0 -57.5 26.5t-24.5 57.5q0 29 25.5 53.5t52.5 24.5v0q49 0 73 -45q25 -49 -14 -90zM135 31q-25 -27 -55 -27q-33 0 -57.5 26.5t-24.5 57.5q0 29 25.5 53.5t52.5 24.5v0q49 0 74 -45q24 -49 -15 -90z M553 29q-25 -27 -55 -27q-33 0 -57.5 26.5t-24.5 57.5q0 29 25.5 53.5t52.5 24.5v0q49 0 73 -45q25 -49 -14 -90z" />
<glyph unicode="s" horiz-adv-x="1351" d="M346 1083q-25 -27 -55 -26q-33 0 -57.5 26.5t-24.5 57.5q0 29 25.5 53.5t52.5 24.5v0q49 0 73 -45q25 -50 -14 -91zM973 1081q-25 -27 -55 -26q-33 0 -57.5 26.5t-24.5 57.5q0 29 25.5 53.5t51.5 24.5v0q49 0 74 -46q25 -49 -14 -90zM764 1081q-25 -27 -55 -26 q-33 0 -57.5 26.5t-24.5 57.5q0 29 25.5 53.5t52.5 24.5v0q49 0 73 -46q25 -49 -14 -90zM555 1081q-25 -27 -55 -26q-33 0 -57.5 26.5t-24.5 57.5q0 29 25.5 53.5t52.5 24.5v0q49 0 73 -46q25 -49 -14 -90zM135 874q-25 -27 -55 -26q-33 0 -57.5 26.5t-24.5 57.5 q0 29 25.5 53.5t52.5 24.5v0q49 0 74 -45q24 -50 -15 -91zM1180 872q-25 -27 -56 -26q-33 0 -57.5 26.5t-24.5 57.5q0 29 26 53.5t52 24.5v0q49 0 74 -45q25 -50 -14 -91zM344 664q-25 -27 -55 -27q-33 0 -57.5 26.5t-24.5 59.5q0 27 24.5 51.5t53.5 24.5v0q47 0 71 -47 q27 -47 -12 -88zM762 662q-25 -27 -55 -27q-33 0 -57.5 26.5t-24.5 59.5q0 27 24.5 51.5t52.5 24.5v0q47 0 72 -47q27 -47 -12 -88zM553 662q-25 -27 -55 -27q-33 0 -57.5 26.5t-24.5 59.5q0 27 24.5 51.5t53.5 24.5v0q47 0 71 -47q27 -47 -12 -88zM971 451q-25 -27 -56 -27 q-33 0 -57 26.5t-24 57.5q0 29 25.5 53.5t51.5 24.5v0q49 0 74 -45q25 -49 -14 -90zM135 242q-25 -27 -55 -27q-33 0 -57.5 26.5t-24.5 57.5q0 29 25.5 53.5t52.5 24.5v0q49 0 74 -45q24 -49 -15 -90zM1180 240q-25 -27 -56 -27q-33 0 -57.5 26.5t-24.5 57.5q0 29 26 53.5 t52 24.5v0q49 0 74 -45q25 -49 -14 -90zM344 31q-25 -27 -55 -27q-33 0 -57.5 26.5t-24.5 57.5q0 29 25.5 53.5t52.5 24.5v0q49 0 73 -45q25 -49 -14 -90zM971 29q-25 -27 -56 -27q-33 0 -57 26.5t-24 57.5q0 29 25.5 53.5t51.5 24.5v0q49 0 74 -45q25 -49 -14 -90zM762 29 q-25 -27 -55 -27q-33 0 -57.5 26.5t-24.5 57.5q0 29 25.5 53.5t51.5 24.5v0q49 0 74 -45q25 -49 -14 -90zM553 29q-25 -27 -55 -27q-33 0 -57.5 26.5t-24.5 57.5q0 29 25.5 53.5t52.5 24.5v0q49 0 73 -45q25 -49 -14 -90z" />
<glyph unicode="t" horiz-adv-x="1331" d="M344 1501q-25 -27 -55 -26q-33 0 -57.5 26.5t-24.5 57.5q0 29 25.5 53t52.5 24v0q49 0 73 -45q25 -49 -14 -90zM135 1501q-25 -27 -55 -26q-33 0 -57.5 26.5t-24.5 57.5q0 29 25.5 53t52.5 24v0q49 0 74 -45q24 -49 -15 -90zM344 1292q-25 -27 -55 -26q-33 0 -57.5 26.5 t-24.5 57.5q0 29 25.5 53t52.5 24v0q49 0 73 -45q25 -49 -14 -90zM770 1112q-25 -27 -55 -27q-33 0 -57.5 27t-24.5 57q0 29 25.5 53.5t52.5 24.5v0q49 0 73 -45q25 -49 -14 -90zM137 1104q-25 -27 -55 -27q-33 0 -57.5 26.5t-24.5 57.5q0 29 25.5 53.5t52.5 24.5v0 q49 0 74 -45q24 -49 -15 -90zM555 1102q-25 -27 -55 -27q-33 0 -57.5 26.5t-24.5 57.5q0 29 25.5 53.5t52.5 24.5v0q49 0 73 -45q25 -49 -14 -90zM346 1083q-25 -27 -55 -26q-33 0 -57.5 26.5t-24.5 57.5q0 29 25.5 53.5t52.5 24.5v0q49 0 73 -45q25 -50 -14 -91zM344 874 q-25 -27 -55 -26q-33 0 -57.5 26.5t-24.5 57.5q0 29 25.5 53.5t52.5 24.5v0q49 0 73 -45q25 -50 -14 -91zM344 664q-25 -27 -55 -27q-33 0 -57.5 26.5t-24.5 59.5q0 27 24.5 51.5t53.5 24.5v0q47 0 71 -47q27 -47 -12 -88zM344 453q-25 -27 -55 -27q-33 0 -57.5 26.5 t-24.5 57.5q0 29 25.5 53.5t52.5 24.5v0q49 0 73 -45q25 -49 -14 -90zM344 242q-25 -27 -55 -27q-33 0 -57.5 26.5t-24.5 57.5q0 29 25.5 53.5t52.5 24.5v0q49 0 73 -45q25 -49 -14 -90zM1180 240q-25 -27 -56 -27q-33 0 -57.5 26.5t-24.5 57.5q0 29 26 53.5t52 24.5v0 q49 0 74 -45q25 -49 -14 -90zM971 29q-25 -27 -56 -27q-33 0 -57 26.5t-24 57.5q0 29 25.5 53.5t51.5 24.5v0q49 0 74 -45q25 -49 -14 -90zM762 29q-25 -27 -55 -27q-33 0 -57.5 26.5t-24.5 57.5q0 29 25.5 53.5t51.5 24.5v0q49 0 74 -45q25 -49 -14 -90zM553 29 q-25 -27 -55 -27q-33 0 -57.5 26.5t-24.5 57.5q0 29 25.5 53.5t52.5 24.5v0q49 0 73 -45q25 -49 -14 -90z" />
<glyph unicode="u" horiz-adv-x="1556" d="M137 1083q-25 -27 -55 -26q-33 0 -57.5 26.5t-24.5 57.5q0 29 25.5 53.5t52.5 24.5v0q49 0 74 -45q24 -50 -15 -91zM1182 1081q-25 -27 -56 -26q-33 0 -57.5 26.5t-24.5 57.5q0 29 26 53.5t52 24.5v0q49 0 74 -46q25 -49 -14 -90zM135 874q-25 -27 -55 -26 q-33 0 -57.5 26.5t-24.5 57.5q0 29 25.5 53.5t52.5 24.5v0q49 0 74 -45q24 -50 -15 -91zM1180 872q-25 -27 -56 -26q-33 0 -57.5 26.5t-24.5 57.5q0 29 26 53.5t52 24.5v0q49 0 74 -45q25 -50 -14 -91zM135 664q-25 -27 -55 -27q-33 0 -57.5 26.5t-24.5 59.5q0 27 24.5 51.5 t53.5 24.5v0q47 0 71 -47q27 -47 -12 -88zM1180 662q-25 -27 -56 -27q-33 0 -57.5 26.5t-24.5 59.5q0 27 25 51.5t53 24.5v0q47 0 72 -47q27 -47 -12 -88zM135 453q-25 -27 -55 -27q-33 0 -57.5 26.5t-24.5 57.5q0 29 25.5 53.5t52.5 24.5v0q49 0 74 -45q24 -49 -15 -90z M1180 451q-25 -27 -56 -27q-33 0 -57.5 26.5t-24.5 57.5q0 29 26 53.5t52 24.5v0q49 0 74 -45q25 -49 -14 -90zM135 242q-25 -27 -55 -27q-33 0 -57.5 26.5t-24.5 57.5q0 29 25.5 53.5t52.5 24.5v0q49 0 74 -45q24 -49 -15 -90zM1180 240q-25 -27 -56 -27q-33 0 -57.5 26.5 t-24.5 57.5q0 29 26 53.5t52 24.5v0q49 0 74 -45q25 -49 -14 -90zM971 240q-25 -27 -56 -27q-33 0 -57 26.5t-24 57.5q0 29 25.5 53.5t51.5 24.5v0q49 0 74 -45q25 -49 -14 -90zM344 31q-25 -27 -55 -27q-33 0 -57.5 26.5t-24.5 57.5q0 29 25.5 53.5t52.5 24.5v0 q49 0 73 -45q25 -49 -14 -90zM1180 29q-25 -27 -56 -27q-33 0 -57.5 26.5t-24.5 57.5q0 29 26 53.5t52 24.5v0q49 0 74 -45q25 -49 -14 -90zM762 29q-25 -27 -55 -27q-33 0 -57.5 26.5t-24.5 57.5q0 29 25.5 53.5t51.5 24.5v0q49 0 74 -45q25 -49 -14 -90zM553 29 q-25 -27 -55 -27q-33 0 -57.5 26.5t-24.5 57.5q0 29 25.5 53.5t52.5 24.5v0q49 0 73 -45q25 -49 -14 -90zM1389 27q-25 -27 -56 -27q-33 0 -57.5 26.5t-24.5 57.5q0 29 26 53.5t52 24.5v0q49 0 74 -45q25 -49 -14 -90z" />
<glyph unicode="v" horiz-adv-x="1146" d="M137 1083q-25 -27 -55 -26q-33 0 -57.5 26.5t-24.5 57.5q0 29 25.5 53.5t52.5 24.5v0q49 0 74 -45q24 -50 -15 -91zM973 1081q-25 -27 -55 -26q-33 0 -57.5 26.5t-24.5 57.5q0 29 25.5 53.5t51.5 24.5v0q49 0 74 -46q25 -49 -14 -90zM135 874q-25 -27 -55 -26 q-33 0 -57.5 26.5t-24.5 57.5q0 29 25.5 53.5t52.5 24.5v0q49 0 74 -45q24 -50 -15 -91zM971 872q-25 -27 -56 -26q-33 0 -57 26.5t-24 57.5q0 29 25.5 53.5t51.5 24.5v0q49 0 74 -45q25 -50 -14 -91zM135 664q-25 -27 -55 -27q-33 0 -57.5 26.5t-24.5 59.5q0 27 24.5 51.5 t53.5 24.5v0q47 0 71 -47q27 -47 -12 -88zM971 662q-25 -27 -56 -27q-33 0 -57 26.5t-24 59.5q0 27 24.5 51.5t52.5 24.5v0q47 0 72 -47q27 -47 -12 -88zM135 453q-25 -27 -55 -27q-33 0 -57.5 26.5t-24.5 57.5q0 29 25.5 53.5t52.5 24.5v0q49 0 74 -45q24 -49 -15 -90z M971 451q-25 -27 -56 -27q-33 0 -57 26.5t-24 57.5q0 29 25.5 53.5t51.5 24.5v0q49 0 74 -45q25 -49 -14 -90zM344 242q-25 -27 -55 -27q-33 0 -57.5 26.5t-24.5 57.5q0 29 25.5 53.5t52.5 24.5v0q49 0 73 -45q25 -49 -14 -90zM762 240q-25 -27 -55 -27q-33 0 -57.5 26.5 t-24.5 57.5q0 29 25.5 53.5t51.5 24.5v0q49 0 74 -45q25 -49 -14 -90zM553 29q-25 -27 -55 -27q-33 0 -57.5 26.5t-24.5 57.5q0 29 25.5 53.5t52.5 24.5v0q49 0 73 -45q25 -49 -14 -90z" />
<glyph unicode="w" d="M137 1083q-25 -27 -55 -26q-33 0 -57.5 26.5t-24.5 57.5q0 29 25.5 53.5t52.5 24.5v0q49 0 74 -45q24 -50 -15 -91zM1391 1079q-25 -27 -56 -26q-33 0 -57.5 26.5t-24.5 57.5q0 29 26 53t52 24v0q49 0 74 -45q25 -49 -14 -90zM135 874q-25 -27 -55 -26q-33 0 -57.5 26.5 t-24.5 57.5q0 29 25.5 53.5t52.5 24.5v0q49 0 74 -45q24 -50 -15 -91zM1389 870q-25 -27 -56 -26q-33 0 -57.5 26.5t-24.5 57.5q0 29 26 53.5t52 24.5v0q49 0 74 -45q25 -50 -14 -91zM135 664q-25 -27 -55 -27q-33 0 -57.5 26.5t-24.5 59.5q0 27 24.5 51.5t53.5 24.5v0 q47 0 71 -47q27 -47 -12 -88zM1389 659q-25 -27 -56 -26q-33 0 -57.5 26.5t-24.5 59.5q0 27 24.5 51.5t53.5 24.5v0q47 0 72 -47q27 -48 -12 -89zM135 453q-25 -27 -55 -27q-33 0 -57.5 26.5t-24.5 57.5q0 29 25.5 53.5t52.5 24.5v0q49 0 74 -45q24 -49 -15 -90zM762 451 q-25 -27 -55 -27q-33 0 -57.5 26.5t-24.5 57.5q0 29 25.5 53.5t51.5 24.5v0q49 0 74 -45q25 -49 -14 -90zM1389 449q-25 -27 -56 -27q-33 0 -57.5 26.5t-24.5 57.5q0 29 26 53.5t52 24.5v0q49 0 74 -45q25 -49 -14 -90zM135 242q-25 -27 -55 -27q-33 0 -57.5 26.5 t-24.5 57.5q0 29 25.5 53.5t52.5 24.5v0q49 0 74 -45q24 -49 -15 -90zM971 240q-25 -27 -56 -27q-33 0 -57 26.5t-24 57.5q0 29 25.5 53.5t51.5 24.5v0q49 0 74 -45q25 -49 -14 -90zM762 240q-25 -27 -55 -27q-33 0 -57.5 26.5t-24.5 57.5q0 29 25.5 53.5t51.5 24.5v0 q49 0 74 -45q25 -49 -14 -90zM553 240q-25 -27 -55 -27q-33 0 -57.5 26.5t-24.5 57.5q0 29 25.5 53.5t52.5 24.5v0q49 0 73 -45q25 -49 -14 -90zM1389 238q-25 -27 -56 -27q-33 0 -57.5 26.5t-24.5 57.5q0 29 26 53.5t52 24.5v0q49 0 74 -45q25 -49 -14 -90zM344 31 q-25 -27 -55 -27q-33 0 -57.5 26.5t-24.5 57.5q0 29 25.5 53.5t52.5 24.5v0q49 0 73 -45q25 -49 -14 -90zM1180 29q-25 -27 -56 -27q-33 0 -57.5 26.5t-24.5 57.5q0 29 26 53.5t52 24.5v0q49 0 74 -45q25 -49 -14 -90zM762 29q-25 -27 -55 -27q-33 0 -57.5 26.5t-24.5 57.5 q0 29 25.5 53.5t51.5 24.5v0q49 0 74 -45q25 -49 -14 -90z" />
<glyph unicode="x" horiz-adv-x="1116" d="M137 1083q-25 -27 -55 -26q-33 0 -57.5 26.5t-24.5 57.5q0 29 25.5 53.5t52.5 24.5v0q49 0 74 -45q24 -50 -15 -91zM973 1081q-25 -27 -55 -26q-33 0 -57.5 26.5t-24.5 57.5q0 29 25.5 53.5t51.5 24.5v0q49 0 74 -46q25 -49 -14 -90zM344 874q-25 -27 -55 -26 q-33 0 -57.5 26.5t-24.5 57.5q0 29 25.5 53.5t52.5 24.5v0q49 0 73 -45q25 -50 -14 -91zM762 872q-25 -27 -55 -26q-33 0 -57.5 26.5t-24.5 57.5q0 29 25.5 53.5t51.5 24.5v0q49 0 74 -45q25 -50 -14 -91zM553 662q-25 -27 -55 -27q-33 0 -57.5 26.5t-24.5 59.5 q0 27 24.5 51.5t53.5 24.5v0q47 0 71 -47q27 -47 -12 -88zM553 451q-25 -27 -55 -27q-33 0 -57.5 26.5t-24.5 57.5q0 29 25.5 53.5t52.5 24.5v0q49 0 73 -45q25 -49 -14 -90zM344 242q-25 -27 -55 -27q-33 0 -57.5 26.5t-24.5 57.5q0 29 25.5 53.5t52.5 24.5v0q49 0 73 -45 q25 -49 -14 -90zM762 240q-25 -27 -55 -27q-33 0 -57.5 26.5t-24.5 57.5q0 29 25.5 53.5t51.5 24.5v0q49 0 74 -45q25 -49 -14 -90zM135 31q-25 -27 -55 -27q-33 0 -57.5 26.5t-24.5 57.5q0 29 25.5 53.5t52.5 24.5v0q49 0 74 -45q24 -49 -15 -90zM971 29q-25 -27 -56 -27 q-33 0 -57 26.5t-24 57.5q0 29 25.5 53.5t51.5 24.5v0q49 0 74 -45q25 -49 -14 -90z" />
<glyph unicode="y" d="M131 1083q-25 -27 -55 -26q-33 0 -57.5 26.5t-24.5 57.5q0 29 25.5 53.5t52.5 24.5v0q49 0 73 -45q25 -50 -14 -91zM1391 1079q-25 -27 -56 -26q-33 0 -57.5 26.5t-24.5 57.5q0 29 26 53t52 24v0q49 0 74 -45q25 -49 -14 -90zM1184 1075q-25 -27 -56 -26q-33 0 -57 26.5 t-24 57.5q0 29 25.5 53t51.5 24v0q49 0 74 -45q25 -49 -14 -90zM135 874q-25 -27 -55 -26q-33 0 -57.5 26.5t-24.5 57.5q0 29 25.5 53.5t52.5 24.5v0q49 0 74 -45q24 -50 -15 -91zM1184 864q-25 -27 -56 -26q-33 0 -57 26.5t-24 59.5q0 27 24.5 51t52.5 24v0q47 0 72 -47 q27 -47 -12 -88zM135 664q-25 -27 -55 -27q-33 0 -57.5 26.5t-24.5 59.5q0 27 24.5 51.5t53.5 24.5v0q47 0 71 -47q27 -47 -12 -88zM1184 653q-25 -27 -56 -26q-33 0 -57 26.5t-24 57.5q0 29 25.5 53t51.5 24v0q49 0 74 -45q25 -49 -14 -90zM344 453q-25 -27 -55 -27 q-33 0 -57.5 26.5t-24.5 57.5q0 29 25.5 53.5t52.5 24.5v0q49 0 73 -45q25 -49 -14 -90zM1180 451q-25 -27 -56 -27q-33 0 -57.5 26.5t-24.5 57.5q0 29 26 53.5t52 24.5v0q49 0 74 -45q25 -49 -14 -90zM971 451q-25 -27 -56 -27q-33 0 -57 26.5t-24 57.5q0 29 25.5 53.5 t51.5 24.5v0q49 0 74 -45q25 -49 -14 -90zM762 451q-25 -27 -55 -27q-33 0 -57.5 26.5t-24.5 57.5q0 29 25.5 53.5t51.5 24.5v0q49 0 74 -45q25 -49 -14 -90zM553 451q-25 -27 -55 -27q-33 0 -57.5 26.5t-24.5 57.5q0 29 25.5 53.5t52.5 24.5v0q49 0 73 -45q25 -49 -14 -90z M1174 238q-25 -27 -56 -27q-33 0 -57.5 26.5t-24.5 57.5q0 29 25.5 53.5t52.5 24.5v0q49 0 74 -45q25 -49 -14 -90zM135 31q-25 -27 -55 -27q-33 0 -57.5 26.5t-24.5 57.5q0 29 25.5 53.5t52.5 24.5v0q49 0 74 -45q24 -49 -15 -90zM1174 27q-25 -27 -56 -27 q-33 0 -57.5 26.5t-24.5 57.5q0 29 25.5 53.5t52.5 24.5v0q49 0 74 -45q25 -49 -14 -90zM344 -188q-25 -27 -55 -27q-33 0 -57.5 26.5t-24.5 57.5q0 29 25.5 53.5t52.5 24.5v0q49 0 73 -45q25 -49 -14 -90zM971 -190q-25 -27 -56 -27q-33 0 -57 26.5t-24 57.5 q0 29 25.5 53.5t51.5 24.5v0q49 0 74 -45q25 -49 -14 -90zM762 -190q-25 -27 -55 -27q-33 0 -57.5 26.5t-24.5 57.5q0 29 25.5 53.5t51.5 24.5v0q49 0 74 -45q25 -49 -14 -90zM553 -190q-25 -27 -55 -27q-33 0 -57.5 26.5t-24.5 57.5q0 29 25.5 53.5t52.5 24.5v0 q49 0 73 -45q25 -49 -14 -90z" />
<glyph unicode="z" horiz-adv-x="1136" d="M346 1083q-25 -27 -55 -26q-33 0 -57.5 26.5t-24.5 57.5q0 29 25.5 53.5t52.5 24.5v0q49 0 73 -45q25 -50 -14 -91zM137 1083q-25 -27 -55 -26q-33 0 -57.5 26.5t-24.5 57.5q0 29 25.5 53.5t52.5 24.5v0q49 0 74 -45q24 -50 -15 -91zM973 1081q-25 -27 -55 -26 q-33 0 -57.5 26.5t-24.5 57.5q0 29 25.5 53.5t51.5 24.5v0q49 0 74 -46q25 -49 -14 -90zM764 1081q-25 -27 -55 -26q-33 0 -57.5 26.5t-24.5 57.5q0 29 25.5 53.5t52.5 24.5v0q49 0 73 -46q25 -49 -14 -90zM555 1081q-25 -27 -55 -26q-33 0 -57.5 26.5t-24.5 57.5 q0 29 25.5 53.5t52.5 24.5v0q49 0 73 -46q25 -49 -14 -90zM135 874q-25 -27 -55 -26q-33 0 -57.5 26.5t-24.5 57.5q0 29 25.5 53.5t52.5 24.5v0q49 0 74 -45q24 -50 -15 -91zM971 872q-25 -27 -56 -26q-33 0 -57 26.5t-24 57.5q0 29 25.5 53.5t51.5 24.5v0q49 0 74 -45 q25 -50 -14 -91zM762 662q-25 -27 -55 -27q-33 0 -57.5 26.5t-24.5 59.5q0 27 24.5 51.5t52.5 24.5v0q47 0 72 -47q27 -47 -12 -88zM553 451q-25 -27 -55 -27q-33 0 -57.5 26.5t-24.5 57.5q0 29 25.5 53.5t52.5 24.5v0q49 0 73 -45q25 -49 -14 -90zM344 242q-25 -27 -55 -27 q-33 0 -57.5 26.5t-24.5 57.5q0 29 25.5 53.5t52.5 24.5v0q49 0 73 -45q25 -49 -14 -90zM971 240q-25 -27 -56 -27q-33 0 -57 26.5t-24 57.5q0 29 25.5 53.5t51.5 24.5v0q49 0 74 -45q25 -49 -14 -90zM344 31q-25 -27 -55 -27q-33 0 -57.5 26.5t-24.5 57.5q0 29 25.5 53.5 t52.5 24.5v0q49 0 73 -45q25 -49 -14 -90zM135 31q-25 -27 -55 -27q-33 0 -57.5 26.5t-24.5 57.5q0 29 25.5 53.5t52.5 24.5v0q49 0 74 -45q24 -49 -15 -90zM971 29q-25 -27 -56 -27q-33 0 -57 26.5t-24 57.5q0 29 25.5 53.5t51.5 24.5v0q49 0 74 -45q25 -49 -14 -90z M762 29q-25 -27 -55 -27q-33 0 -57.5 26.5t-24.5 57.5q0 29 25.5 53.5t51.5 24.5v0q49 0 74 -45q25 -49 -14 -90zM553 29q-25 -27 -55 -27q-33 0 -57.5 26.5t-24.5 57.5q0 29 25.5 53.5t52.5 24.5v0q49 0 73 -45q25 -49 -14 -90z" />
<glyph unicode="{" horiz-adv-x="952" d="M762 1499q-25 -27 -55 -26q-33 0 -57.5 26.5t-24.5 56.5q0 29 25.5 53.5t51.5 24.5v0q49 0 74 -45q25 -49 -14 -90zM553 1499q-25 -27 -55 -26q-33 0 -57.5 26.5t-24.5 56.5q0 29 25.5 53.5t52.5 24.5v0q49 0 73 -45q25 -49 -14 -90zM344 1292q-25 -27 -55 -26 q-33 0 -57.5 26.5t-24.5 57.5q0 29 25.5 53t52.5 24v0q49 0 73 -45q25 -49 -14 -90zM346 1083q-25 -27 -55 -26q-33 0 -57.5 26.5t-24.5 57.5q0 29 25.5 53.5t52.5 24.5v0q49 0 73 -45q25 -50 -14 -91zM344 874q-25 -27 -55 -26q-33 0 -57.5 26.5t-24.5 57.5q0 29 25.5 53.5 t52.5 24.5v0q49 0 73 -45q25 -50 -14 -91zM135 664q-25 -27 -55 -27q-33 0 -57.5 26.5t-24.5 59.5q0 27 24.5 51.5t53.5 24.5v0q47 0 71 -47q27 -47 -12 -88zM344 453q-25 -27 -55 -27q-33 0 -57.5 26.5t-24.5 57.5q0 29 25.5 53.5t52.5 24.5v0q49 0 73 -45q25 -49 -14 -90z M344 242q-25 -27 -55 -27q-33 0 -57.5 26.5t-24.5 57.5q0 29 25.5 53.5t52.5 24.5v0q49 0 73 -45q25 -49 -14 -90zM344 31q-25 -27 -55 -27q-33 0 -57.5 26.5t-24.5 57.5q0 29 25.5 53.5t52.5 24.5v0q49 0 73 -45q25 -49 -14 -90zM762 -201q-25 -27 -55 -26 q-33 0 -57.5 26.5t-24.5 57.5q0 29 25.5 53t51.5 24v0q49 0 74 -45q25 -49 -14 -90zM553 -201q-25 -27 -55 -26q-33 0 -57.5 26.5t-24.5 57.5q0 29 25.5 53t52.5 24v0q49 0 73 -45q25 -49 -14 -90z" />
<glyph unicode="|" horiz-adv-x="348" d="M135 1501q-25 -27 -55 -26q-33 0 -57.5 26.5t-24.5 57.5q0 29 25.5 53t52.5 24v0q49 0 74 -45q24 -49 -15 -90zM135 1292q-25 -27 -55 -26q-33 0 -57.5 26.5t-24.5 57.5q0 29 25.5 53t52.5 24v0q49 0 74 -45q24 -49 -15 -90zM137 1083q-25 -27 -55 -26q-33 0 -57.5 26.5 t-24.5 57.5q0 29 25.5 53.5t52.5 24.5v0q49 0 74 -45q24 -50 -15 -91zM135 874q-25 -27 -55 -26q-33 0 -57.5 26.5t-24.5 57.5q0 29 25.5 53.5t52.5 24.5v0q49 0 74 -45q24 -50 -15 -91zM135 664q-25 -27 -55 -27q-33 0 -57.5 26.5t-24.5 59.5q0 27 24.5 51.5t53.5 24.5v0 q47 0 71 -47q27 -47 -12 -88zM135 453q-25 -27 -55 -27q-33 0 -57.5 26.5t-24.5 57.5q0 29 25.5 53.5t52.5 24.5v0q49 0 74 -45q24 -49 -15 -90zM135 242q-25 -27 -55 -27q-33 0 -57.5 26.5t-24.5 57.5q0 29 25.5 53.5t52.5 24.5v0q49 0 74 -45q24 -49 -15 -90zM135 31 q-25 -27 -55 -27q-33 0 -57.5 26.5t-24.5 57.5q0 29 25.5 53.5t52.5 24.5v0q49 0 74 -45q24 -49 -15 -90zM135 -205q-25 -27 -55 -26q-33 0 -57.5 26.5t-24.5 57.5q0 29 25.5 53t52.5 24v0q49 0 74 -45q24 -49 -15 -90z" />
<glyph unicode="}" horiz-adv-x="952" d="M395 1509q-25 -27 -55 -26q-33 0 -57.5 25.5t-24.5 58.5q0 27 24.5 52.5t53.5 25.5v0q47 0 74 -46q24 -47 -15 -90zM186 1509q-25 -27 -55 -26q-33 0 -57.5 25.5t-24.5 58.5q0 27 24.5 52.5t53.5 25.5v0q47 0 74 -46q24 -47 -15 -90zM604 1303q-25 -27 -55 -27 q-33 0 -57.5 25.5t-24.5 58.5q0 27 24.5 52.5t53.5 25.5v0q47 0 73 -45q25 -47 -14 -90zM602 1094q-25 -27 -55 -27q-33 0 -57.5 25.5t-24.5 58.5q0 27 24.5 52.5t53.5 25.5v0q47 0 73 -45q25 -47 -14 -90zM604 885q-25 -27 -55 -27q-33 0 -57.5 25.5t-24.5 58.5 q0 27 24.5 52.5t53.5 25.5v0q47 0 73 -45q25 -47 -14 -90zM813 674q-25 -27 -55 -27q-33 0 -57.5 25.5t-24.5 56.5q0 29 25.5 54.5t54.5 25.5v0q47 0 71 -47q25 -47 -14 -88zM604 463q-25 -27 -55 -27q-33 0 -57.5 25.5t-24.5 58.5q0 27 24.5 52.5t53.5 25.5v0q47 0 73 -45 q25 -47 -14 -90zM604 252q-25 -27 -55 -27q-33 0 -57.5 25.5t-24.5 58.5q0 27 24.5 52.5t53.5 25.5v0q47 0 73 -45q25 -47 -14 -90zM604 41q-25 -27 -55 -27q-33 0 -57.5 26t-24.5 58q0 27 24.5 52.5t53.5 25.5v0q47 0 73 -45q25 -47 -14 -90zM395 -190q-25 -27 -55 -27 q-33 0 -57.5 25.5t-24.5 58.5q0 27 24.5 52.5t53.5 25.5v0q47 0 74 -45q24 -47 -15 -90zM186 -190q-25 -27 -55 -27q-33 0 -57.5 25.5t-24.5 58.5q0 27 24.5 52.5t53.5 25.5v0q47 0 74 -45q24 -47 -15 -90z" />
<glyph unicode="~" horiz-adv-x="931" d="M344 1501q-25 -27 -55 -26q-33 0 -57.5 26.5t-24.5 57.5q0 29 25.5 53t52.5 24v0q49 0 73 -45q25 -49 -14 -90zM762 1499q-25 -27 -55 -26q-33 0 -57.5 26.5t-24.5 56.5q0 29 25.5 53.5t51.5 24.5v0q49 0 74 -45q25 -49 -14 -90zM135 1292q-25 -27 -55 -26 q-33 0 -57.5 26.5t-24.5 57.5q0 29 25.5 53t52.5 24v0q49 0 74 -45q24 -49 -15 -90zM553 1290q-25 -27 -55 -26q-33 0 -57.5 26.5t-24.5 57.5q0 29 25.5 53t52.5 24v0q49 0 73 -45q25 -49 -14 -90z" />
<glyph unicode="&#xa1;" horiz-adv-x="593" d="M344 1509q-23 -25 -55 -24q-31 0 -56.5 24.5t-25.5 57.5q0 27 25.5 53.5t52.5 26.5v0q49 0 73 -48q25 -49 -14 -90zM344 1087q-23 -25 -55 -24q-31 0 -56.5 24.5t-25.5 57.5q0 27 25.5 53.5t52.5 26.5v0q49 0 73 -47q25 -50 -14 -91zM344 877q-23 -25 -55 -25 q-31 0 -56.5 24.5t-25.5 57.5q0 27 25.5 53.5t52.5 26.5v0q49 0 73 -47q25 -49 -14 -90zM344 776q23 -25 23 -53v0q0 -47 -48 -72q-47 -27 -88 13q-25 23 -24 53v0q0 51 47 76q49 26 90 -17zM344 455q-23 -25 -55 -25q-31 0 -56.5 24.5t-25.5 57.5q0 27 25.5 53.5t52.5 26.5 v0q49 0 73 -47q25 -49 -14 -90zM346 246q-23 -25 -55 -25q-31 0 -56.5 24.5t-25.5 57.5q0 27 25.5 53.5t52.5 26.5v0q49 0 73 -47q25 -49 -14 -90zM344 37q-23 -25 -55 -25q-31 0 -56.5 24.5t-25.5 57.5q0 27 25.5 53.5t52.5 26.5v0q49 0 73 -47q25 -49 -14 -90zM344 -172 q-23 -25 -55 -25q-31 0 -56.5 25t-25.5 57q0 27 25.5 53.5t52.5 26.5v0q49 0 73 -47q25 -49 -14 -90z" />
<glyph unicode="&#xa2;" d="M764 1270q-25 -27 -55 -27q-33 0 -57.5 26.5t-24.5 57.5q0 29 25.5 53.5t52.5 24.5v0q49 0 73 -45q25 -49 -14 -90zM346 1083q-25 -27 -55 -26q-33 0 -57.5 26.5t-24.5 57.5q0 29 25.5 53.5t52.5 24.5v0q49 0 73 -45q25 -50 -14 -91zM1182 1081q-25 -27 -56 -26 q-33 0 -57.5 26.5t-24.5 57.5q0 29 26 53.5t52 24.5v0q49 0 74 -46q25 -49 -14 -90zM973 1081q-25 -27 -55 -26q-33 0 -57.5 26.5t-24.5 57.5q0 29 25.5 53.5t51.5 24.5v0q49 0 74 -46q25 -49 -14 -90zM764 1081q-25 -27 -55 -26q-33 0 -57.5 26.5t-24.5 57.5 q0 29 25.5 53.5t52.5 24.5v0q49 0 73 -46q25 -49 -14 -90zM555 1081q-25 -27 -55 -26q-33 0 -57.5 26.5t-24.5 57.5q0 29 25.5 53.5t52.5 24.5v0q49 0 73 -46q25 -49 -14 -90zM760 885q-25 -27 -55 -27q-33 0 -57.5 26.5t-24.5 57.5q0 29 25.5 53.5t51.5 24.5v0q49 0 74 -45 q25 -49 -14 -90zM135 874q-25 -27 -55 -26q-33 0 -57.5 26.5t-24.5 57.5q0 29 25.5 53.5t52.5 24.5v0q49 0 74 -45q24 -50 -15 -91zM1389 870q-25 -27 -56 -26q-33 0 -57.5 26.5t-24.5 57.5q0 29 26 53.5t52 24.5v0q49 0 74 -45q25 -50 -14 -91zM760 674q-25 -27 -55 -27 q-33 0 -57.5 26.5t-24.5 59.5q0 27 24.5 51.5t52.5 24.5v0q47 0 72 -47q27 -47 -12 -88zM135 664q-25 -27 -55 -27q-33 0 -57.5 26.5t-24.5 59.5q0 27 24.5 51.5t53.5 24.5v0q47 0 71 -47q27 -47 -12 -88zM760 463q-25 -27 -55 -27q-33 0 -57.5 26.5t-24.5 57.5 q0 29 25.5 53.5t51.5 24.5v0q49 0 74 -45q25 -49 -14 -90zM135 453q-25 -27 -55 -27q-33 0 -57.5 26.5t-24.5 57.5q0 29 25.5 53.5t52.5 24.5v0q49 0 74 -45q24 -49 -15 -90zM760 252q-25 -27 -55 -27q-33 0 -57.5 27t-24.5 57q0 29 25.5 53.5t51.5 24.5v0q49 0 74 -45 q25 -49 -14 -90zM135 242q-25 -27 -55 -27q-33 0 -57.5 26.5t-24.5 57.5q0 29 25.5 53.5t52.5 24.5v0q49 0 74 -45q24 -49 -15 -90zM1389 238q-25 -27 -56 -27q-33 0 -57.5 26.5t-24.5 57.5q0 29 26 53.5t52 24.5v0q49 0 74 -45q25 -49 -14 -90zM344 31q-25 -27 -55 -27 q-33 0 -57.5 26.5t-24.5 57.5q0 29 25.5 53.5t52.5 24.5v0q49 0 73 -45q25 -49 -14 -90zM1180 29q-25 -27 -56 -27q-33 0 -57.5 26.5t-24.5 57.5q0 29 26 53.5t52 24.5v0q49 0 74 -45q25 -49 -14 -90zM971 29q-25 -27 -56 -27q-33 0 -57 26.5t-24 57.5q0 29 25.5 53.5 t51.5 24.5v0q49 0 74 -45q25 -49 -14 -90zM762 29q-25 -27 -55 -27q-33 0 -57.5 26.5t-24.5 57.5q0 29 25.5 53.5t51.5 24.5v0q49 0 74 -45q25 -49 -14 -90zM553 29q-25 -27 -55 -27q-33 0 -57.5 26.5t-24.5 57.5q0 29 25.5 53.5t52.5 24.5v0q49 0 73 -45q25 -49 -14 -90z M754 -182q-25 -27 -56 -27q-33 0 -57.5 26.5t-24.5 57.5q0 29 26 53.5t52 24.5v0q49 0 74 -45q25 -49 -14 -90z" />
<glyph unicode="&#xa3;" horiz-adv-x="1361" d="M971 1499q-25 -27 -56 -26q-33 0 -57 26.5t-24 56.5q0 29 25.5 53.5t51.5 24.5v0q49 0 74 -45q25 -49 -14 -90zM762 1499q-25 -27 -55 -26q-33 0 -57.5 26.5t-24.5 56.5q0 29 25.5 53.5t51.5 24.5v0q49 0 74 -45q25 -49 -14 -90zM553 1499q-25 -27 -55 -26 q-33 0 -57.5 26.5t-24.5 56.5q0 29 25.5 53.5t52.5 24.5v0q49 0 73 -45q25 -49 -14 -90zM344 1292q-25 -27 -55 -26q-33 0 -57.5 26.5t-24.5 57.5q0 29 25.5 53t52.5 24v0q49 0 73 -45q25 -49 -14 -90zM1180 1290q-25 -27 -56 -26q-33 0 -57.5 26.5t-24.5 57.5q0 29 26 53 t52 24v0q49 0 74 -45q25 -49 -14 -90zM346 1083q-25 -27 -55 -26q-33 0 -57.5 26.5t-24.5 57.5q0 29 25.5 53.5t52.5 24.5v0q49 0 73 -45q25 -50 -14 -91zM1182 1081q-25 -27 -56 -26q-33 0 -57.5 26.5t-24.5 57.5q0 29 26 53.5t52 24.5v0q49 0 74 -46q25 -49 -14 -90z M344 874q-25 -27 -55 -26q-33 0 -57.5 26.5t-24.5 57.5q0 29 25.5 53.5t52.5 24.5v0q49 0 73 -45q25 -50 -14 -91zM344 664q-25 -27 -55 -27q-33 0 -57.5 26.5t-24.5 59.5q0 27 24.5 51.5t53.5 24.5v0q47 0 71 -47q27 -47 -12 -88zM762 662q-25 -27 -55 -27 q-33 0 -57.5 26.5t-24.5 59.5q0 27 24.5 51.5t52.5 24.5v0q47 0 72 -47q27 -47 -12 -88zM553 662q-25 -27 -55 -27q-33 0 -57.5 26.5t-24.5 59.5q0 27 24.5 51.5t53.5 24.5v0q47 0 71 -47q27 -47 -12 -88zM344 453q-25 -27 -55 -27q-33 0 -57.5 26.5t-24.5 57.5 q0 29 25.5 53.5t52.5 24.5v0q49 0 73 -45q25 -49 -14 -90zM344 242q-25 -27 -55 -27q-33 0 -57.5 26.5t-24.5 57.5q0 29 25.5 53.5t52.5 24.5v0q49 0 73 -45q25 -49 -14 -90zM344 31q-25 -27 -55 -27q-33 0 -57.5 26.5t-24.5 57.5q0 29 25.5 53.5t52.5 24.5v0q49 0 73 -45 q25 -49 -14 -90zM135 31q-25 -27 -55 -27q-33 0 -57.5 26.5t-24.5 57.5q0 29 25.5 53.5t52.5 24.5v0q49 0 74 -45q24 -49 -15 -90zM553 29q-25 -27 -55 -27q-33 0 -57.5 26.5t-24.5 57.5q0 29 25.5 53.5t52.5 24.5v0q49 0 73 -45q25 -49 -14 -90zM1182 27q-25 -27 -56 -27 q-33 0 -57.5 26.5t-24.5 59.5q0 27 25 51.5t53 24.5v0q47 0 72 -47q27 -47 -12 -88zM967 27q-25 -27 -56 -27q-33 0 -57.5 26.5t-24.5 59.5q0 27 25 51.5t53 24.5v0q47 0 72 -47q27 -47 -12 -88zM758 27q-25 -27 -56 -27q-33 0 -57 26.5t-24 59.5q0 27 24.5 51.5t52.5 24.5 v0q47 0 72 -47q27 -47 -12 -88z" />
<glyph unicode="&#xa4;" horiz-adv-x="2048" />
<glyph unicode="&#xa5;" d="M135 1501q-25 -27 -55 -26q-33 0 -57.5 26.5t-24.5 59.5q0 27 25.5 51t52.5 24v0q49 0 74 -45q24 -49 -15 -90zM1389 1497q-25 -27 -56 -27q-33 0 -57.5 27t-24.5 59q0 27 26 51.5t52 24.5v0q49 0 74 -45q25 -49 -14 -90zM344 1292q-25 -27 -55 -26q-33 0 -57.5 26.5 t-24.5 59.5q0 27 25.5 51t52.5 24v0q49 0 73 -45q25 -49 -14 -90zM1180 1290q-25 -27 -56 -26q-33 0 -57.5 26.5t-24.5 59.5q0 27 26 51t52 24v0q49 0 74 -45q25 -49 -14 -90zM973 1081q-25 -27 -55 -26q-33 0 -57.5 26.5t-24.5 59.5q0 27 25.5 51.5t51.5 24.5v0 q49 0 74 -46q25 -49 -14 -90zM555 1081q-25 -27 -55 -26q-33 0 -57.5 26.5t-24.5 59.5q0 27 25.5 51.5t52.5 24.5v0q49 0 73 -46q25 -49 -14 -90zM762 872q-25 -27 -55 -26q-33 0 -57.5 26.5t-24.5 59.5q0 27 25.5 51.5t51.5 24.5v0q49 0 74 -45q25 -50 -14 -91zM330 682 q-25 -27 -56 -27q-33 0 -57 27t-24 59q0 27 25.5 51.5t51.5 24.5v0q49 0 74 -45q25 -49 -14 -90zM1167 672q-25 -27 -55 -27q-33 0 -57.5 26.5t-24.5 59.5q0 27 25.5 51.5t52.5 24.5v0q49 0 74 -45q24 -49 -15 -90zM952 672q-25 -27 -55 -27q-33 0 -57.5 26.5t-24.5 59.5 q0 27 25.5 51.5t52.5 24.5v0q49 0 74 -45q24 -49 -15 -90zM535 672q-25 -27 -56 -27q-33 0 -57.5 26.5t-24.5 59.5q0 27 26 51.5t52 24.5v0q49 0 74 -45q25 -49 -14 -90zM762 662q-25 -27 -55 -27q-33 0 -57.5 26.5t-24.5 59.5q0 27 24.5 51.5t52.5 24.5v0q47 0 72 -47 q27 -47 -12 -88zM762 451q-25 -27 -55 -27q-33 0 -57.5 26.5t-24.5 59.5q0 27 25.5 51.5t51.5 24.5v0q49 0 74 -45q25 -49 -14 -90zM350 252q-25 -27 -55 -27q-33 0 -57.5 27t-24.5 59q0 27 25.5 51.5t52.5 24.5v0q49 0 74 -45q24 -49 -15 -90zM1188 242q-25 -27 -55 -27 q-33 0 -57.5 26.5t-24.5 59.5q0 27 25.5 51.5t51.5 24.5v0q49 0 74 -45q25 -49 -14 -90zM973 242q-25 -27 -55 -27q-33 0 -57.5 26.5t-24.5 59.5q0 27 25.5 51.5t51.5 24.5v0q49 0 74 -45q25 -49 -14 -90zM555 242q-25 -27 -55 -27q-33 0 -57.5 26.5t-24.5 59.5 q0 27 25.5 51.5t52.5 24.5v0q49 0 73 -45q25 -49 -14 -90zM762 240q-25 -27 -55 -27q-33 0 -57.5 26.5t-24.5 59.5q0 27 25.5 51.5t51.5 24.5v0q49 0 74 -45q25 -49 -14 -90zM762 29q-25 -27 -55 -27q-33 0 -57.5 26.5t-24.5 59.5q0 27 25.5 51.5t51.5 24.5v0q49 0 74 -45 q25 -49 -14 -90z" />
<glyph unicode="&#xa7;" horiz-adv-x="942" d="M575 1479q-25 -27 -55 -27q-33 0 -57.5 26.5t-24.5 57.5q0 29 25.5 53.5t52.5 24.5v0q49 0 74 -45q24 -49 -15 -90zM373 1479q-25 -27 -56 -27q-33 0 -57 26.5t-24 57.5q0 29 25.5 53.5t51.5 24.5v0q49 0 74 -45q25 -49 -14 -90zM743 1288q-25 -27 -55 -26 q-33 0 -57.5 26.5t-24.5 57.5q0 29 25.5 53t52.5 24v0q49 0 74 -45q24 -49 -15 -90zM150 1282q-25 -27 -56 -27q-33 0 -57.5 27t-24.5 57q0 29 25.5 53.5t52.5 24.5v0q49 0 74 -45q25 -49 -14 -90zM147 1083q-25 -27 -55 -26q-33 0 -57.5 26.5t-24.5 57.5q0 29 25.5 53.5 t52.5 24.5v0q49 0 74 -45q24 -50 -15 -91zM150 864q-25 -27 -56 -26q-33 0 -57.5 26.5t-24.5 57.5q0 29 25.5 53t52.5 24v0q49 0 74 -45q25 -49 -14 -90zM567 862q-25 -27 -55 -26q-33 0 -57.5 26.5t-24.5 57.5q0 29 25.5 53t52.5 24v0q49 0 74 -45q24 -49 -15 -90zM362 862 q-25 -27 -55 -26q-33 0 -57.5 26.5t-24.5 57.5q0 29 25.5 53t52.5 24v0q49 0 74 -45q24 -49 -15 -90zM743 664q-25 -27 -55 -27q-33 0 -57.5 26.5t-24.5 57.5q0 29 25.5 53.5t52.5 24.5v0q49 0 74 -45q24 -49 -15 -90zM168 625q-25 -27 -55 -27q-33 0 -57.5 26.5t-24.5 57.5 q0 29 25.5 53.5t52.5 24.5v0q49 0 73 -45q25 -49 -14 -90zM770 551q18 -20 18 -47v0q0 -51 -51 -78q-53 -29 -92 14q-18 20 -18 47v0q0 51 51 78q53 29 92 -14zM567 440q-25 -27 -55 -26q-33 0 -57.5 26.5t-24.5 57.5q0 29 25.5 53t52.5 24v0q49 0 74 -45q24 -49 -15 -90z M362 440q-25 -27 -55 -26q-33 0 -57.5 26.5t-24.5 57.5q0 29 25.5 53t52.5 24v0q49 0 74 -45q24 -49 -15 -90zM774 207q-27 -25 -55 -25q-35 0 -60.5 27t-25.5 61q0 35 26.5 58.5t55.5 23.5v0q53 0 78 -51q26 -53 -19 -94zM156 10q-25 -27 -56 -26q-33 0 -57.5 26.5 t-24.5 57.5q0 29 26 53t52 24v0q49 0 74 -45q25 -49 -14 -90zM780 -12q-25 -27 -55 -27q-33 0 -57.5 26.5t-24.5 57.5q0 29 25.5 53.5t52.5 24.5v0q49 0 74 -45q24 -49 -15 -90zM344 -180q-25 -27 -55 -27q-33 0 -57.5 26.5t-24.5 57.5q0 29 25.5 53.5t52.5 24.5v0 q49 0 73 -45q25 -49 -14 -90zM567 -193q-25 -27 -55 -26q-33 0 -57.5 26.5t-24.5 57.5q0 29 25.5 53.5t52.5 24.5v0q49 0 74 -45q24 -50 -15 -91z" />
<glyph unicode="&#xa8;" horiz-adv-x="81" d="M-991 1491q-25 -27 -56 -27q-33 0 -57 27t-24 57q0 29 25.5 53.5t51.5 24.5v0q49 0 74 -45q25 -49 -14 -90zM-365 1489q-25 -27 -55 -27q-33 0 -57.5 27t-24.5 57q0 29 25.5 53.5t52.5 24.5v0q49 0 74 -45q24 -49 -15 -90z" />
<glyph unicode="&#xa9;" d="M344 1501q-25 -27 -55 -26q-33 0 -57.5 26.5t-24.5 57.5q0 29 25.5 53t52.5 24v0q49 0 73 -45q25 -49 -14 -90zM1180 1499q-25 -27 -56 -26q-33 0 -57.5 26.5t-24.5 56.5q0 29 26 53.5t52 24.5v0q49 0 74 -45q25 -49 -14 -90zM971 1499q-25 -27 -56 -26q-33 0 -57 26.5 t-24 56.5q0 29 25.5 53.5t51.5 24.5v0q49 0 74 -45q25 -49 -14 -90zM762 1499q-25 -27 -55 -26q-33 0 -57.5 26.5t-24.5 56.5q0 29 25.5 53.5t51.5 24.5v0q49 0 74 -45q25 -49 -14 -90zM553 1499q-25 -27 -55 -26q-33 0 -57.5 26.5t-24.5 56.5q0 29 25.5 53.5t52.5 24.5v0 q49 0 73 -45q25 -49 -14 -90zM135 1292q-25 -27 -55 -26q-33 0 -57.5 26.5t-24.5 57.5q0 29 25.5 53t52.5 24v0q49 0 74 -45q24 -49 -15 -90zM1389 1288q-25 -27 -56 -26q-33 0 -57.5 26.5t-24.5 57.5q0 29 26 53t52 24v0q49 0 74 -45q25 -49 -14 -90zM137 1083 q-25 -27 -55 -26q-33 0 -57.5 26.5t-24.5 57.5q0 29 25.5 53.5t52.5 24.5v0q49 0 74 -45q24 -50 -15 -91zM973 1081q-25 -27 -55 -26q-33 0 -57.5 26.5t-24.5 57.5q0 29 25.5 53.5t51.5 24.5v0q49 0 74 -46q25 -49 -14 -90zM764 1081q-25 -27 -55 -26q-33 0 -57.5 26.5 t-24.5 57.5q0 29 25.5 53.5t52.5 24.5v0q49 0 73 -46q25 -49 -14 -90zM1391 1079q-25 -27 -56 -26q-33 0 -57.5 26.5t-24.5 57.5q0 29 26 53t52 24v0q49 0 74 -45q25 -49 -14 -90zM135 874q-25 -27 -55 -26q-33 0 -57.5 26.5t-24.5 57.5q0 29 25.5 53.5t52.5 24.5v0 q49 0 74 -45q24 -50 -15 -91zM553 872q-25 -27 -55 -26q-33 0 -57.5 26.5t-24.5 57.5q0 29 25.5 53.5t52.5 24.5v0q49 0 73 -45q25 -50 -14 -91zM1389 870q-25 -27 -56 -26q-33 0 -57.5 26.5t-24.5 57.5q0 29 26 53.5t52 24.5v0q49 0 74 -45q25 -50 -14 -91zM135 664 q-25 -27 -55 -27q-33 0 -57.5 26.5t-24.5 59.5q0 27 24.5 51.5t53.5 24.5v0q47 0 71 -47q27 -47 -12 -88zM553 662q-25 -27 -55 -27q-33 0 -57.5 26.5t-24.5 59.5q0 27 24.5 51.5t53.5 24.5v0q47 0 71 -47q27 -47 -12 -88zM1389 659q-25 -27 -56 -26q-33 0 -57.5 26.5 t-24.5 59.5q0 27 24.5 51.5t53.5 24.5v0q47 0 72 -47q27 -48 -12 -89zM135 453q-25 -27 -55 -27q-33 0 -57.5 26.5t-24.5 57.5q0 29 25.5 53.5t52.5 24.5v0q49 0 74 -45q24 -49 -15 -90zM971 451q-25 -27 -56 -27q-33 0 -57 26.5t-24 57.5q0 29 25.5 53.5t51.5 24.5v0 q49 0 74 -45q25 -49 -14 -90zM762 451q-25 -27 -55 -27q-33 0 -57.5 26.5t-24.5 57.5q0 29 25.5 53.5t51.5 24.5v0q49 0 74 -45q25 -49 -14 -90zM1389 449q-25 -27 -56 -27q-33 0 -57.5 26.5t-24.5 57.5q0 29 26 53.5t52 24.5v0q49 0 74 -45q25 -49 -14 -90zM135 242 q-25 -27 -55 -27q-33 0 -57.5 26.5t-24.5 57.5q0 29 25.5 53.5t52.5 24.5v0q49 0 74 -45q24 -49 -15 -90zM1389 238q-25 -27 -56 -27q-33 0 -57.5 26.5t-24.5 57.5q0 29 26 53.5t52 24.5v0q49 0 74 -45q25 -49 -14 -90zM344 31q-25 -27 -55 -27q-33 0 -57.5 26.5t-24.5 57.5 q0 29 25.5 53.5t52.5 24.5v0q49 0 73 -45q25 -49 -14 -90zM1180 29q-25 -27 -56 -27q-33 0 -57.5 26.5t-24.5 57.5q0 29 26 53.5t52 24.5v0q49 0 74 -45q25 -49 -14 -90zM971 29q-25 -27 -56 -27q-33 0 -57 26.5t-24 57.5q0 29 25.5 53.5t51.5 24.5v0q49 0 74 -45 q25 -49 -14 -90zM762 29q-25 -27 -55 -27q-33 0 -57.5 26.5t-24.5 57.5q0 29 25.5 53.5t51.5 24.5v0q49 0 74 -45q25 -49 -14 -90zM553 29q-25 -27 -55 -27q-33 0 -57.5 26.5t-24.5 57.5q0 29 25.5 53.5t52.5 24.5v0q49 0 73 -45q25 -49 -14 -90z" />
<glyph unicode="&#xaa;" horiz-adv-x="1966" d="M344 1501q-25 -27 -55 -26q-33 0 -57.5 26.5t-24.5 57.5q0 29 25.5 53t52.5 24v0q49 0 73 -45q25 -49 -14 -90zM971 1499q-25 -27 -56 -26q-33 0 -57 26.5t-24 56.5q0 29 25.5 53.5t51.5 24.5v0q49 0 74 -45q25 -49 -14 -90zM553 1499q-25 -27 -55 -26q-33 0 -57.5 26.5 t-24.5 56.5q0 29 25.5 53.5t52.5 24.5v0q49 0 73 -45q25 -49 -14 -90zM135 1292q-25 -27 -55 -26q-33 0 -57.5 26.5t-24.5 57.5q0 29 25.5 53t52.5 24v0q49 0 74 -45q24 -49 -15 -90zM762 1290q-25 -27 -55 -26q-33 0 -57.5 26.5t-24.5 57.5q0 29 25.5 53t51.5 24v0 q49 0 74 -45q25 -49 -14 -90zM137 1083q-25 -27 -55 -26q-33 0 -57.5 26.5t-24.5 57.5q0 29 25.5 53.5t52.5 24.5v0q49 0 74 -45q24 -50 -15 -91zM764 1081q-25 -27 -55 -26q-33 0 -57.5 26.5t-24.5 57.5q0 29 25.5 53.5t52.5 24.5v0q49 0 73 -46q25 -49 -14 -90zM344 874 q-25 -27 -55 -26q-33 0 -57.5 26.5t-24.5 57.5q0 29 25.5 53.5t52.5 24.5v0q49 0 73 -45q25 -50 -14 -91zM971 872q-25 -27 -56 -26q-33 0 -57 26.5t-24 57.5q0 29 25.5 53.5t51.5 24.5v0q49 0 74 -45q25 -50 -14 -91zM762 872q-25 -27 -55 -26q-33 0 -57.5 26.5t-24.5 57.5 q0 29 25.5 53.5t51.5 24.5v0q49 0 74 -45q25 -50 -14 -91zM553 872q-25 -27 -55 -26q-33 0 -57.5 26.5t-24.5 57.5q0 29 25.5 53.5t52.5 24.5v0q49 0 73 -45q25 -50 -14 -91zM344 453q-25 -27 -55 -27q-33 0 -57.5 26.5t-24.5 57.5q0 29 25.5 53.5t52.5 24.5v0q49 0 73 -45 q25 -49 -14 -90zM135 453q-25 -27 -55 -27q-33 0 -57.5 26.5t-24.5 57.5q0 29 25.5 53.5t52.5 24.5v0q49 0 74 -45q24 -49 -15 -90zM971 451q-25 -27 -56 -27q-33 0 -57 26.5t-24 57.5q0 29 25.5 53.5t51.5 24.5v0q49 0 74 -45q25 -49 -14 -90zM762 451q-25 -27 -55 -27 q-33 0 -57.5 26.5t-24.5 57.5q0 29 25.5 53.5t51.5 24.5v0q49 0 74 -45q25 -49 -14 -90zM553 451q-25 -27 -55 -27q-33 0 -57.5 26.5t-24.5 57.5q0 29 25.5 53.5t52.5 24.5v0q49 0 73 -45q25 -49 -14 -90z" />
<glyph unicode="&#xab;" horiz-adv-x="1433" d="M1200 1102q-25 -27 -55 -27q-33 0 -57.5 26.5t-24.5 57.5q0 29 25.5 53.5t52.5 24.5v0q49 0 73 -45q25 -49 -14 -90zM565 1081q-25 -27 -55 -26q-33 0 -57.5 26.5t-24.5 57.5q0 29 25.5 53.5t52.5 24.5v0q49 0 74 -46q24 -49 -15 -90zM1014 893q-25 -27 -56 -27 q-33 0 -57 27t-24 57q0 29 25.5 53.5t51.5 24.5v0q49 0 74 -45q25 -49 -14 -90zM379 872q-25 -27 -55 -26q-33 0 -57.5 26.5t-24.5 57.5q0 29 25.5 53.5t51.5 24.5v0q49 0 74 -45q25 -50 -14 -91zM805 682q-25 -27 -55 -27q-33 0 -57.5 27t-24.5 59q0 27 24.5 51.5 t52.5 24.5v0q47 0 72 -47q27 -47 -12 -88zM170 662q-25 -27 -55 -27q-33 0 -57.5 26.5t-24.5 59.5q0 27 24.5 51.5t53.5 24.5v0q47 0 71 -47q27 -47 -12 -88zM1014 471q-25 -27 -56 -27q-33 0 -57 27t-24 57q0 29 25.5 53.5t51.5 24.5v0q49 0 74 -45q25 -49 -14 -90z M379 451q-25 -27 -55 -27q-33 0 -57.5 26.5t-24.5 57.5q0 29 25.5 53.5t51.5 24.5v0q49 0 74 -45q25 -49 -14 -90zM1223 260q-25 -27 -56 -27q-33 0 -57.5 27t-24.5 57q0 29 26 53.5t52 24.5v0q49 0 74 -45q25 -49 -14 -90zM535 215q-37 0 -70 33t-33 65q0 55 98 56 q39 0 58.5 -20.5t19.5 -53.5t-21 -56.5t-52 -23.5z" />
<glyph unicode="&#xac;" d="M344 874q-25 -27 -55 -26q-33 0 -57.5 26.5t-24.5 57.5q0 29 25.5 53.5t52.5 24.5v0q49 0 73 -45q25 -50 -14 -91zM135 874q-25 -27 -55 -26q-33 0 -57.5 26.5t-24.5 57.5q0 29 25.5 53.5t52.5 24.5v0q49 0 74 -45q24 -50 -15 -91zM1180 872q-25 -27 -56 -26 q-33 0 -57.5 26.5t-24.5 57.5q0 29 26 53.5t52 24.5v0q49 0 74 -45q25 -50 -14 -91zM971 872q-25 -27 -56 -26q-33 0 -57 26.5t-24 57.5q0 29 25.5 53.5t51.5 24.5v0q49 0 74 -45q25 -50 -14 -91zM762 872q-25 -27 -55 -26q-33 0 -57.5 26.5t-24.5 57.5q0 29 25.5 53.5 t51.5 24.5v0q49 0 74 -45q25 -50 -14 -91zM553 872q-25 -27 -55 -26q-33 0 -57.5 26.5t-24.5 57.5q0 29 25.5 53.5t52.5 24.5v0q49 0 73 -45q25 -50 -14 -91zM1389 870q-25 -27 -56 -26q-33 0 -57.5 26.5t-24.5 57.5q0 29 26 53.5t52 24.5v0q49 0 74 -45q25 -50 -14 -91z M1389 659q-25 -27 -56 -26q-33 0 -57.5 26.5t-24.5 59.5q0 27 24.5 51.5t53.5 24.5v0q47 0 72 -47q27 -48 -12 -89zM1389 449q-25 -27 -56 -27q-33 0 -57.5 26.5t-24.5 57.5q0 29 26 53.5t52 24.5v0q49 0 74 -45q25 -49 -14 -90zM1389 238q-25 -27 -56 -27q-33 0 -57.5 26.5 t-24.5 57.5q0 29 26 53.5t52 24.5v0q49 0 74 -45q25 -49 -14 -90z" />
<glyph unicode="&#xad;" horiz-adv-x="1218" d="M406 584q-25 -27 -56 -27q-33 0 -57.5 26.5t-24.5 57.5q0 29 25.5 53.5t52.5 24.5v0q49 0 74 -45q25 -49 -14 -90zM197 584q-25 -27 -56 -27q-33 0 -57.5 26.5t-24.5 57.5q0 29 26 53.5t52 24.5v0q49 0 74 -45q25 -49 -14 -90zM1032 582q-25 -27 -55 -27 q-33 0 -57.5 26.5t-24.5 57.5q0 29 25.5 53.5t52.5 24.5v0q49 0 74 -45q24 -49 -15 -90zM823 582q-25 -27 -55 -27q-33 0 -57.5 26.5t-24.5 57.5q0 29 25.5 53.5t52.5 24.5v0q49 0 74 -45q24 -49 -15 -90zM614 582q-25 -27 -55 -27q-33 0 -57.5 26.5t-24.5 57.5 q0 29 25.5 53.5t52.5 24.5v0q49 0 74 -45q24 -49 -15 -90z" />
<glyph unicode="&#xae;" d="M344 1501q-25 -27 -55 -26q-33 0 -57.5 26.5t-24.5 57.5q0 29 25.5 53t52.5 24v0q49 0 73 -45q25 -49 -14 -90zM1180 1499q-25 -27 -56 -26q-33 0 -57.5 26.5t-24.5 56.5q0 29 26 53.5t52 24.5v0q49 0 74 -45q25 -49 -14 -90zM971 1499q-25 -27 -56 -26q-33 0 -57 26.5 t-24 56.5q0 29 25.5 53.5t51.5 24.5v0q49 0 74 -45q25 -49 -14 -90zM762 1499q-25 -27 -55 -26q-33 0 -57.5 26.5t-24.5 56.5q0 29 25.5 53.5t51.5 24.5v0q49 0 74 -45q25 -49 -14 -90zM553 1499q-25 -27 -55 -26q-33 0 -57.5 26.5t-24.5 56.5q0 29 25.5 53.5t52.5 24.5v0 q49 0 73 -45q25 -49 -14 -90zM135 1292q-25 -27 -55 -26q-33 0 -57.5 26.5t-24.5 57.5q0 29 25.5 53t52.5 24v0q49 0 74 -45q24 -49 -15 -90zM1389 1288q-25 -27 -56 -26q-33 0 -57.5 26.5t-24.5 57.5q0 29 26 53t52 24v0q49 0 74 -45q25 -49 -14 -90zM137 1083 q-25 -27 -55 -26q-33 0 -57.5 26.5t-24.5 57.5q0 29 25.5 53.5t52.5 24.5v0q49 0 74 -45q24 -50 -15 -91zM764 1081q-25 -27 -55 -26q-33 0 -57.5 26.5t-24.5 57.5q0 29 25.5 53.5t52.5 24.5v0q49 0 73 -46q25 -49 -14 -90zM555 1081q-25 -27 -55 -26q-33 0 -57.5 26.5 t-24.5 57.5q0 29 25.5 53.5t52.5 24.5v0q49 0 73 -46q25 -49 -14 -90zM1391 1079q-25 -27 -56 -26q-33 0 -57.5 26.5t-24.5 57.5q0 29 26 53t52 24v0q49 0 74 -45q25 -49 -14 -90zM135 874q-25 -27 -55 -26q-33 0 -57.5 26.5t-24.5 57.5q0 29 25.5 53.5t52.5 24.5v0 q49 0 74 -45q24 -50 -15 -91zM971 872q-25 -27 -56 -26q-33 0 -57 26.5t-24 57.5q0 29 25.5 53.5t51.5 24.5v0q49 0 74 -45q25 -50 -14 -91zM553 872q-25 -27 -55 -26q-33 0 -57.5 26.5t-24.5 57.5q0 29 25.5 53.5t52.5 24.5v0q49 0 73 -45q25 -50 -14 -91zM1389 870 q-25 -27 -56 -26q-33 0 -57.5 26.5t-24.5 57.5q0 29 26 53.5t52 24.5v0q49 0 74 -45q25 -50 -14 -91zM135 664q-25 -27 -55 -27q-33 0 -57.5 26.5t-24.5 59.5q0 27 24.5 51.5t53.5 24.5v0q47 0 71 -47q27 -47 -12 -88zM762 662q-25 -27 -55 -27q-33 0 -57.5 26.5t-24.5 59.5 q0 27 24.5 51.5t52.5 24.5v0q47 0 72 -47q27 -47 -12 -88zM553 662q-25 -27 -55 -27q-33 0 -57.5 26.5t-24.5 59.5q0 27 24.5 51.5t53.5 24.5v0q47 0 71 -47q27 -47 -12 -88zM1389 659q-25 -27 -56 -26q-33 0 -57.5 26.5t-24.5 59.5q0 27 24.5 51.5t53.5 24.5v0q47 0 72 -47 q27 -48 -12 -89zM135 453q-25 -27 -55 -27q-33 0 -57.5 26.5t-24.5 57.5q0 29 25.5 53.5t52.5 24.5v0q49 0 74 -45q24 -49 -15 -90zM971 451q-25 -27 -56 -27q-33 0 -57 26.5t-24 57.5q0 29 25.5 53.5t51.5 24.5v0q49 0 74 -45q25 -49 -14 -90zM553 451q-25 -27 -55 -27 q-33 0 -57.5 26.5t-24.5 57.5q0 29 25.5 53.5t52.5 24.5v0q49 0 73 -45q25 -49 -14 -90zM1389 449q-25 -27 -56 -27q-33 0 -57.5 26.5t-24.5 57.5q0 29 26 53.5t52 24.5v0q49 0 74 -45q25 -49 -14 -90zM135 242q-25 -27 -55 -27q-33 0 -57.5 26.5t-24.5 57.5q0 29 25.5 53.5 t52.5 24.5v0q49 0 74 -45q24 -49 -15 -90zM1389 238q-25 -27 -56 -27q-33 0 -57.5 26.5t-24.5 57.5q0 29 26 53.5t52 24.5v0q49 0 74 -45q25 -49 -14 -90zM1276 139q-23 -23 -23 -57q0 -33 21 -55zM344 31q-25 -27 -55 -27q-33 0 -57.5 26.5t-24.5 57.5q0 29 25.5 53.5 t52.5 24.5v0q49 0 73 -45q25 -49 -14 -90zM1180 29q-25 -27 -56 -27q-33 0 -57.5 26.5t-24.5 57.5q0 29 26 53.5t52 24.5v0q49 0 74 -45q25 -49 -14 -90zM971 29q-25 -27 -56 -27q-33 0 -57 26.5t-24 57.5q0 29 25.5 53.5t51.5 24.5v0q49 0 74 -45q25 -49 -14 -90zM762 29 q-25 -27 -55 -27q-33 0 -57.5 26.5t-24.5 57.5q0 29 25.5 53.5t51.5 24.5v0q49 0 74 -45q25 -49 -14 -90zM553 29q-25 -27 -55 -27q-33 0 -57.5 26.5t-24.5 57.5q0 29 25.5 53.5t52.5 24.5v0q49 0 73 -45q25 -49 -14 -90z" />
<glyph unicode="&#xb0;" horiz-adv-x="686" d="M344 1491q-23 -20 -51 -21q-33 0 -59.5 28t-26.5 63q0 27 24.5 51t53.5 24v0q51 0 77 -51q27 -53 -18 -94zM539 1307q-25 -27 -56 -27q-33 0 -57.5 26.5t-24.5 57.5q0 29 26 53.5t52 24.5v0q49 0 74 -45q25 -49 -14 -90zM135 1292q-25 -27 -55 -26q-33 0 -57.5 26.5 t-24.5 57.5q0 29 25.5 53t52.5 24v0q49 0 74 -45q24 -49 -15 -90zM330 1098q-25 -27 -56 -27q-33 0 -57 26.5t-24 57.5q0 29 25.5 53.5t51.5 24.5v0q49 0 74 -45q25 -49 -14 -90z" />
<glyph unicode="&#xb1;" horiz-adv-x="1218" d="M561 1192q-25 -23 -53 -23q-33 0 -57.5 26t-24.5 56q0 29 25.5 53.5t52.5 24.5v0q51 0 74 -47q26 -51 -17 -90zM561 983q-25 -23 -53 -22q-33 0 -57.5 25.5t-24.5 55.5q0 29 25.5 53.5t52.5 24.5v0q51 0 74 -47q26 -51 -17 -90zM354 768q-25 -27 -55 -27q-33 0 -57.5 27 t-24.5 57q0 29 25.5 53.5t52.5 24.5v0q49 0 74 -45q24 -49 -15 -90zM145 768q-25 -27 -55 -27q-33 0 -57.5 27t-24.5 57q0 29 25.5 53.5t52.5 24.5v0q49 0 74 -45q24 -49 -15 -90zM981 766q-25 -27 -55 -27q-33 0 -57.5 27t-24.5 57q0 29 25.5 53.5t52.5 24.5v0q49 0 73 -45 q25 -49 -14 -90zM772 766q-25 -27 -55 -27q-33 0 -57.5 27t-24.5 57q0 29 25.5 53.5t52.5 24.5v0q49 0 73 -45q25 -49 -14 -90zM563 766q-25 -27 -55 -27q-33 0 -57.5 27t-24.5 57q0 29 25.5 53.5t52.5 24.5v0q49 0 74 -45q24 -49 -15 -90zM559 565q-25 -23 -53 -22 q-33 0 -57.5 25.5t-24.5 56.5q0 29 25.5 53t52.5 24v0q51 0 73 -47q27 -51 -16 -90zM559 356q-25 -23 -53 -22q-33 0 -57.5 25.5t-24.5 56.5q0 29 25.5 53.5t52.5 24.5v0q51 0 73 -48q27 -51 -16 -90zM344 10q-25 -27 -55 -26q-33 0 -57.5 26.5t-24.5 57.5q0 29 25.5 53 t52.5 24v0q49 0 73 -45q25 -49 -14 -90zM135 10q-25 -27 -55 -26q-33 0 -57.5 26.5t-24.5 57.5q0 29 25.5 53t52.5 24v0q49 0 74 -45q24 -49 -15 -90zM971 8q-25 -27 -56 -26q-33 0 -57 26.5t-24 57.5q0 29 25.5 53t51.5 24v0q49 0 74 -45q25 -49 -14 -90zM762 8 q-25 -27 -55 -26q-33 0 -57.5 26.5t-24.5 57.5q0 29 25.5 53t51.5 24v0q49 0 74 -45q25 -49 -14 -90zM553 8q-25 -27 -55 -26q-33 0 -57.5 26.5t-24.5 57.5q0 29 25.5 53t52.5 24v0q49 0 73 -45q25 -49 -14 -90z" />
<glyph unicode="&#xb4;" horiz-adv-x="737" d="M553 1499q-25 -27 -55 -26q-33 0 -57.5 26.5t-24.5 56.5q0 29 25.5 53.5t52.5 24.5v0q49 0 73 -45q25 -49 -14 -90zM344 1292q-25 -27 -55 -26q-33 0 -57.5 26.5t-24.5 57.5q0 29 25.5 53t52.5 24v0q49 0 73 -45q25 -49 -14 -90zM137 1083q-25 -27 -55 -26 q-33 0 -57.5 26.5t-24.5 57.5q0 29 25.5 53.5t52.5 24.5v0q49 0 74 -45q24 -50 -15 -91z" />
<glyph unicode="&#xb5;" horiz-adv-x="1392" d="M137 1083q-25 -27 -55 -26q-33 0 -57.5 26.5t-24.5 57.5q0 29 25.5 53.5t52.5 24.5v0q49 0 74 -45q24 -50 -15 -91zM987 1071q-25 -27 -55 -27q-33 0 -57.5 27t-24.5 57q0 29 25.5 53.5t52.5 24.5v0q49 0 73 -45q25 -49 -14 -90zM135 874q-25 -27 -55 -26 q-33 0 -57.5 26.5t-24.5 57.5q0 29 25.5 53.5t52.5 24.5v0q49 0 74 -45q24 -50 -15 -91zM985 862q-25 -27 -55 -26q-33 0 -57.5 26.5t-24.5 57.5q0 29 25.5 53t52.5 24v0q49 0 73 -45q25 -49 -14 -90zM135 664q-25 -27 -55 -27q-33 0 -57.5 26.5t-24.5 59.5q0 27 24.5 51.5 t53.5 24.5v0q47 0 71 -47q27 -47 -12 -88zM985 651q-25 -27 -55 -26q-33 0 -57.5 26.5t-24.5 59.5q0 27 24.5 51t53.5 24v0q47 0 71 -47q27 -47 -12 -88zM135 453q-25 -27 -55 -27q-33 0 -57.5 26.5t-24.5 57.5q0 29 25.5 53.5t52.5 24.5v0q49 0 74 -45q24 -49 -15 -90z M985 440q-25 -27 -55 -26q-33 0 -57.5 26.5t-24.5 57.5q0 29 25.5 53t52.5 24v0q49 0 73 -45q25 -49 -14 -90zM766 434q-25 -27 -55 -26q-33 0 -57.5 26.5t-24.5 57.5q0 29 25.5 53t52.5 24v0q49 0 73 -45q25 -49 -14 -90zM135 242q-25 -27 -55 -27q-33 0 -57.5 26.5 t-24.5 57.5q0 29 25.5 53.5t52.5 24.5v0q49 0 74 -45q24 -49 -15 -90zM334 236q-25 -27 -55 -27q-33 0 -57.5 26.5t-24.5 57.5q0 29 25.5 53.5t51.5 24.5v0q49 0 74 -45q25 -49 -14 -90zM995 233q-25 -27 -55 -26q-33 0 -57.5 26.5t-24.5 57.5q0 29 25.5 53.5t52.5 24.5v0 q49 0 74 -45q24 -50 -15 -91zM1204 231q-25 -27 -55 -26q-33 0 -57.5 26.5t-24.5 57.5q0 29 25.5 53.5t52.5 24.5v0q49 0 74 -45q24 -50 -15 -91zM557 223q-25 -27 -55 -26q-33 0 -57.5 26.5t-24.5 57.5q0 29 25.5 53t52.5 24v0q49 0 73 -45q25 -49 -14 -90zM137 18 q-25 -27 -55 -26q-33 0 -57.5 26.5t-24.5 57.5q0 29 25.5 53.5t52.5 24.5v0q49 0 74 -45q24 -50 -15 -91zM135 -190q-25 -27 -55 -27q-33 0 -57.5 26.5t-24.5 57.5q0 29 25.5 53.5t52.5 24.5v0q49 0 74 -45q24 -49 -15 -90z" />
<glyph unicode="&#xb6;" horiz-adv-x="1382" d="M344 1501q-25 -27 -55 -26q-33 0 -57.5 26.5t-24.5 57.5q0 29 25.5 53t52.5 24v0q49 0 73 -45q25 -49 -14 -90zM985 1489q-25 -27 -55 -27q-33 0 -57.5 27t-24.5 57q0 29 25.5 53.5t52.5 24.5v0q49 0 73 -45q25 -49 -14 -90zM776 1489q-25 -27 -55 -27q-33 0 -57.5 27 t-24.5 57q0 29 25.5 53.5t52.5 24.5v0q49 0 74 -45q24 -49 -15 -90zM567 1489q-25 -27 -55 -27q-33 0 -57.5 27t-24.5 57q0 29 25.5 53.5t52.5 24.5v0q49 0 74 -45q24 -49 -15 -90zM1194 1487q-25 -27 -55 -27q-33 0 -57.5 26.5t-24.5 57.5q0 29 25.5 53.5t52.5 24.5v0 q49 0 73 -45q25 -49 -14 -90zM135 1292q-25 -27 -55 -26q-33 0 -57.5 26.5t-24.5 57.5q0 29 25.5 53t52.5 24v0q49 0 74 -45q24 -49 -15 -90zM776 1280q-25 -27 -55 -27q-33 0 -57.5 27t-24.5 57q0 29 25.5 53.5t52.5 24.5v0q49 0 74 -45q24 -49 -15 -90zM1194 1278 q-25 -27 -55 -27q-33 0 -57.5 27t-24.5 57q0 29 25.5 53.5t52.5 24.5v0q49 0 73 -45q25 -49 -14 -90zM137 1083q-25 -27 -55 -26q-33 0 -57.5 26.5t-24.5 57.5q0 29 25.5 53.5t52.5 24.5v0q49 0 74 -45q24 -50 -15 -91zM778 1071q-25 -27 -55 -27q-33 0 -57.5 27t-24.5 57 q0 29 25.5 53.5t52.5 24.5v0q49 0 74 -45q24 -49 -15 -90zM1196 1069q-25 -27 -55 -27q-33 0 -57.5 27t-24.5 57q0 29 25.5 53.5t52.5 24.5v0q49 0 73 -45q25 -49 -14 -90zM344 874q-25 -27 -55 -26q-33 0 -57.5 26.5t-24.5 57.5q0 29 25.5 53.5t52.5 24.5v0q49 0 73 -45 q25 -50 -14 -91zM985 862q-25 -27 -55 -26q-33 0 -57.5 26.5t-24.5 57.5q0 29 25.5 53t52.5 24v0q49 0 73 -45q25 -49 -14 -90zM776 862q-25 -27 -55 -26q-33 0 -57.5 26.5t-24.5 57.5q0 29 25.5 53t52.5 24v0q49 0 74 -45q24 -49 -15 -90zM567 862q-25 -27 -55 -26 q-33 0 -57.5 26.5t-24.5 57.5q0 29 25.5 53t52.5 24v0q49 0 74 -45q24 -49 -15 -90zM1194 860q-25 -27 -55 -26q-33 0 -57.5 26.5t-24.5 57.5q0 29 25.5 53t52.5 24v0q49 0 73 -45q25 -49 -14 -90zM776 651q-25 -27 -55 -26q-33 0 -57.5 26.5t-24.5 59.5q0 27 24.5 51 t53.5 24v0q47 0 71 -47q27 -47 -12 -88zM1194 649q-25 -27 -55 -26q-33 0 -57.5 26.5t-24.5 59.5q0 27 24.5 51t53.5 24v0q47 0 71 -47q27 -47 -12 -88zM776 440q-25 -27 -55 -26q-33 0 -57.5 26.5t-24.5 57.5q0 29 25.5 53t52.5 24v0q49 0 74 -45q24 -49 -15 -90zM1194 438 q-25 -27 -55 -26q-33 0 -57.5 26.5t-24.5 57.5q0 29 25.5 53t52.5 24v0q49 0 73 -45q25 -49 -14 -90zM776 229q-25 -27 -55 -26q-33 0 -57.5 26.5t-24.5 57.5q0 29 25.5 53.5t52.5 24.5v0q49 0 74 -46q24 -49 -15 -90zM1194 227q-25 -27 -55 -26q-33 0 -57.5 26.5 t-24.5 57.5q0 29 25.5 53t52.5 24v0q49 0 73 -45q25 -49 -14 -90zM776 18q-25 -27 -55 -26q-33 0 -57.5 26.5t-24.5 57.5q0 29 25.5 53.5t52.5 24.5v0q49 0 74 -45q24 -50 -15 -91zM1194 16q-25 -27 -55 -26q-33 0 -57.5 26.5t-24.5 57.5q0 29 25.5 53.5t52.5 24.5v0 q49 0 73 -46q25 -49 -14 -90z" />
<glyph unicode="&#xba;" horiz-adv-x="1966" d="M344 1501q-25 -27 -55 -26q-33 0 -57.5 26.5t-24.5 57.5q0 29 25.5 53t52.5 24v0q49 0 73 -45q25 -49 -14 -90zM553 1499q-25 -27 -55 -26q-33 0 -57.5 26.5t-24.5 56.5q0 29 25.5 53.5t52.5 24.5v0q49 0 73 -45q25 -49 -14 -90zM135 1292q-25 -27 -55 -26 q-33 0 -57.5 26.5t-24.5 57.5q0 29 25.5 53t52.5 24v0q49 0 74 -45q24 -49 -15 -90zM762 1290q-25 -27 -55 -26q-33 0 -57.5 26.5t-24.5 57.5q0 29 25.5 53t51.5 24v0q49 0 74 -45q25 -49 -14 -90zM137 1083q-25 -27 -55 -26q-33 0 -57.5 26.5t-24.5 57.5q0 29 25.5 53.5 t52.5 24.5v0q49 0 74 -45q24 -50 -15 -91zM764 1081q-25 -27 -55 -26q-33 0 -57.5 26.5t-24.5 57.5q0 29 25.5 53.5t52.5 24.5v0q49 0 73 -46q25 -49 -14 -90zM344 874q-25 -27 -55 -26q-33 0 -57.5 26.5t-24.5 57.5q0 29 25.5 53.5t52.5 24.5v0q49 0 73 -45q25 -50 -14 -91 zM553 872q-25 -27 -55 -26q-33 0 -57.5 26.5t-24.5 57.5q0 29 25.5 53.5t52.5 24.5v0q49 0 73 -45q25 -50 -14 -91zM344 453q-25 -27 -55 -27q-33 0 -57.5 26.5t-24.5 57.5q0 29 25.5 53.5t52.5 24.5v0q49 0 73 -45q25 -49 -14 -90zM135 453q-25 -27 -55 -27 q-33 0 -57.5 26.5t-24.5 57.5q0 29 25.5 53.5t52.5 24.5v0q49 0 74 -45q24 -49 -15 -90zM762 451q-25 -27 -55 -27q-33 0 -57.5 26.5t-24.5 57.5q0 29 25.5 53.5t51.5 24.5v0q49 0 74 -45q25 -49 -14 -90zM553 451q-25 -27 -55 -27q-33 0 -57.5 26.5t-24.5 57.5 q0 29 25.5 53.5t52.5 24.5v0q49 0 73 -45q25 -49 -14 -90z" />
<glyph unicode="&#xbb;" horiz-adv-x="1433" d="M209 1092q-25 -27 -55 -27q-33 0 -57.5 25.5t-24.5 58.5q0 27 24.5 52.5t53.5 25.5v0q47 0 73 -45q25 -47 -14 -90zM844 1071q-25 -27 -56 -27q-33 0 -57 26t-24 58q0 27 24.5 52.5t52.5 25.5v0q47 0 74 -45q25 -47 -14 -90zM395 883q-25 -27 -55 -27q-33 0 -57.5 25.5 t-24.5 58.5q0 27 24.5 52.5t53.5 25.5v0q47 0 74 -45q24 -47 -15 -90zM1030 862q-25 -27 -55 -26q-33 0 -57.5 25.5t-24.5 58.5q0 27 24.5 52t53.5 25v0q47 0 73 -45q25 -47 -14 -90zM604 672q-25 -27 -55 -27q-33 0 -57.5 25.5t-24.5 56.5q0 29 25.5 54.5t54.5 25.5v0 q47 0 71 -47q25 -47 -14 -88zM1239 651q-25 -27 -55 -26q-33 0 -57.5 25.5t-24.5 56.5q0 29 25.5 54t54.5 25v0q47 0 71 -47q25 -47 -14 -88zM395 461q-25 -27 -55 -27q-33 0 -57.5 25.5t-24.5 58.5q0 27 24.5 52.5t53.5 25.5v0q47 0 74 -45q24 -47 -15 -90zM1030 440 q-25 -27 -55 -26q-33 0 -57.5 25.5t-24.5 58.5q0 27 24.5 52t53.5 25v0q47 0 73 -45q25 -47 -14 -90zM186 250q-25 -27 -55 -27q-33 0 -57.5 25.5t-24.5 58.5q0 27 24.5 52.5t53.5 25.5v0q47 0 74 -45q24 -47 -15 -90zM862 303v0q0 -49 -55 -84q-57 -37 -100 10 q-20 23 -21 56q0 33 19.5 53t58.5 20q98 0 98 -55z" />
<glyph unicode="&#xbf;" d="M791 1612q23 -25 22 -53v0q0 -49 -49 -74t-88 16q-23 25 -23 53v0q0 51 47 74q52 27 91 -16zM801 1196q23 -25 22 -53v0q0 -49 -49 -74t-88 16q-23 25 -22 54v0q0 51 47 73q51 27 90 -16zM801 985q23 -25 22 -53v0q0 -49 -49 -74t-88 16q-23 25 -22 54v0q0 51 47 73 q51 27 90 -16zM592 774q23 -25 22 -53v0q0 -49 -47 -74t-88 17q-25 25 -24 55v0q0 49 47 74q51 24 90 -19zM383 563q23 -25 23 -53v0q0 -49 -50 -74q-49 -25 -88 17q-23 25 -22 53v0q0 51 47 74q51 26 90 -17zM172 356q23 -25 23 -53v0q0 -49 -50 -74q-49 -25 -88 17 q-23 25 -22 53v0q0 51 47 74q51 26 90 -17zM174 147q23 -25 23 -53v0q0 -49 -50 -74q-49 -25 -88 17q-23 25 -22 53v0q0 51 47 74q51 26 90 -17zM1427 143q23 -25 23 -53v0q0 -49 -49 -74t-88 17q-23 25 -23 53v0q0 51 47 74q51 26 90 -17zM1010 -63q23 -25 22 -54v0 q0 -49 -49 -73q-49 -25 -88 16q-23 25 -23 53v0q0 51 48 74q51 27 90 -16zM801 -63q23 -25 22 -54v0q0 -49 -49 -73q-49 -25 -88 16q-23 25 -22 53v0q0 51 47 74q51 27 90 -16zM592 -63q23 -25 22 -54v0q0 -49 -49 -73q-49 -25 -88 16q-23 25 -22 53v0q0 51 47 74 q51 27 90 -16zM383 -63q23 -25 23 -54v0q0 -49 -50 -73q-49 -25 -88 16q-23 25 -22 53v0q0 51 47 74q51 27 90 -16zM1219 -66q23 -25 22 -53v0q0 -49 -49 -74t-88 17q-23 25 -23 53v0q0 51 47 74q52 26 91 -17z" />
<glyph unicode="&#xc0;" d="M545 1704q-25 -27 -56 -27q-33 0 -57 27t-24 57q0 29 25.5 53.5t51.5 24.5v0q49 0 74 -45q25 -49 -14 -90zM754 1493q-25 -27 -56 -27q-33 0 -57.5 27t-24.5 57q0 29 26 53.5t52 24.5v0q49 0 74 -45q25 -49 -14 -90zM354 1296q-25 -27 -55 -26q-33 0 -57.5 26.5 t-24.5 57.5q0 29 25.5 53.5t52.5 24.5v0q49 0 74 -46q24 -49 -15 -90zM1190 1294q-25 -27 -55 -26q-33 0 -57.5 26.5t-24.5 57.5q0 29 25.5 53.5t51.5 24.5v0q49 0 74 -46q25 -49 -14 -90zM981 1294q-25 -27 -55 -26q-33 0 -57.5 26.5t-24.5 57.5q0 29 25.5 53.5t52.5 24.5 v0q49 0 73 -46q25 -49 -14 -90zM772 1294q-25 -27 -55 -26q-33 0 -57.5 26.5t-24.5 57.5q0 29 25.5 53.5t52.5 24.5v0q49 0 73 -46q25 -49 -14 -90zM563 1294q-25 -27 -55 -26q-33 0 -57.5 26.5t-24.5 57.5q0 29 25.5 53.5t52.5 24.5v0q49 0 74 -46q24 -49 -15 -90z M145 1087q-25 -27 -55 -26q-33 0 -57.5 26.5t-24.5 57.5q0 29 25.5 53.5t52.5 24.5v0q49 0 74 -45q24 -50 -15 -91zM1399 1083q-25 -27 -56 -26q-33 0 -57 26.5t-24 57.5q0 29 25.5 53.5t51.5 24.5v0q49 0 74 -45q25 -50 -14 -91zM135 874q-25 -27 -55 -26q-33 0 -57.5 26.5 t-24.5 57.5q0 29 25.5 53.5t52.5 24.5v0q49 0 74 -45q24 -50 -15 -91zM1389 870q-25 -27 -56 -26q-33 0 -57.5 26.5t-24.5 57.5q0 29 26 53.5t52 24.5v0q49 0 74 -45q25 -50 -14 -91zM344 664q-25 -27 -55 -27q-33 0 -57.5 26.5t-24.5 59.5q0 27 24.5 51.5t53.5 24.5v0 q47 0 71 -47q27 -47 -12 -88zM135 664q-25 -27 -55 -27q-33 0 -57.5 26.5t-24.5 59.5q0 27 24.5 51.5t53.5 24.5v0q47 0 71 -47q27 -47 -12 -88zM1180 662q-25 -27 -56 -27q-33 0 -57.5 26.5t-24.5 59.5q0 27 25 51.5t53 24.5v0q47 0 72 -47q27 -47 -12 -88zM971 662 q-25 -27 -56 -27q-33 0 -57 26.5t-24 59.5q0 27 24.5 51.5t52.5 24.5v0q47 0 72 -47q27 -47 -12 -88zM762 662q-25 -27 -55 -27q-33 0 -57.5 26.5t-24.5 59.5q0 27 24.5 51.5t52.5 24.5v0q47 0 72 -47q27 -47 -12 -88zM553 662q-25 -27 -55 -27q-33 0 -57.5 26.5t-24.5 59.5 q0 27 24.5 51.5t53.5 24.5v0q47 0 71 -47q27 -47 -12 -88zM1389 659q-25 -27 -56 -26q-33 0 -57.5 26.5t-24.5 59.5q0 27 24.5 51.5t53.5 24.5v0q47 0 72 -47q27 -48 -12 -89zM135 453q-25 -27 -55 -27q-33 0 -57.5 26.5t-24.5 57.5q0 29 25.5 53.5t52.5 24.5v0q49 0 74 -45 q24 -49 -15 -90zM1389 449q-25 -27 -56 -27q-33 0 -57.5 26.5t-24.5 57.5q0 29 26 53.5t52 24.5v0q49 0 74 -45q25 -49 -14 -90zM135 242q-25 -27 -55 -27q-33 0 -57.5 26.5t-24.5 57.5q0 29 25.5 53.5t52.5 24.5v0q49 0 74 -45q24 -49 -15 -90zM1389 238q-25 -27 -56 -27 q-33 0 -57.5 26.5t-24.5 57.5q0 29 26 53.5t52 24.5v0q49 0 74 -45q25 -49 -14 -90zM135 31q-25 -27 -55 -27q-33 0 -57.5 26.5t-24.5 57.5q0 29 25.5 53.5t52.5 24.5v0q49 0 74 -45q24 -49 -15 -90zM1389 27q-25 -27 -56 -27q-33 0 -57.5 26.5t-24.5 57.5q0 29 26 53.5 t52 24.5v0q49 0 74 -45q25 -49 -14 -90z" />
<glyph unicode="&#xc1;" d="M999 1692q-25 -27 -55 -27q-33 0 -57.5 26.5t-24.5 57.5q0 29 25.5 53.5t52.5 24.5v0q49 0 74 -45q24 -49 -15 -90zM793 1483q-25 -27 -56 -27q-33 0 -57.5 26.5t-24.5 57.5q0 29 26 53.5t52 24.5v0q49 0 74 -45q25 -49 -14 -90zM344 1276q-25 -27 -55 -27 q-33 0 -57.5 27t-24.5 57q0 29 25.5 53.5t52.5 24.5v0q49 0 73 -45q25 -49 -14 -90zM1180 1274q-25 -27 -56 -27q-33 0 -57.5 26.5t-24.5 57.5q0 29 26 53.5t52 24.5v0q49 0 74 -45q25 -49 -14 -90zM971 1274q-25 -27 -56 -27q-33 0 -57 26.5t-24 57.5q0 29 25.5 53.5 t51.5 24.5v0q49 0 74 -45q25 -49 -14 -90zM762 1274q-25 -27 -55 -27q-33 0 -57.5 26.5t-24.5 57.5q0 29 25.5 53.5t51.5 24.5v0q49 0 74 -45q25 -49 -14 -90zM553 1274q-25 -27 -55 -27q-33 0 -57.5 26.5t-24.5 57.5q0 29 25.5 53.5t52.5 24.5v0q49 0 73 -45 q25 -49 -14 -90zM135 1067q-25 -27 -55 -27q-33 0 -57.5 27t-24.5 57q0 29 25.5 53.5t52.5 24.5v0q49 0 74 -45q24 -49 -15 -90zM1389 1063q-25 -27 -56 -27q-33 0 -57.5 27t-24.5 57q0 29 26 53.5t52 24.5v0q49 0 74 -45q25 -49 -14 -90zM135 874q-25 -27 -55 -26 q-33 0 -57.5 26.5t-24.5 57.5q0 29 25.5 53.5t52.5 24.5v0q49 0 74 -45q24 -50 -15 -91zM1389 870q-25 -27 -56 -26q-33 0 -57.5 26.5t-24.5 57.5q0 29 26 53.5t52 24.5v0q49 0 74 -45q25 -50 -14 -91zM344 664q-25 -27 -55 -27q-33 0 -57.5 26.5t-24.5 59.5q0 27 24.5 51.5 t53.5 24.5v0q47 0 71 -47q27 -47 -12 -88zM135 664q-25 -27 -55 -27q-33 0 -57.5 26.5t-24.5 59.5q0 27 24.5 51.5t53.5 24.5v0q47 0 71 -47q27 -47 -12 -88zM1180 662q-25 -27 -56 -27q-33 0 -57.5 26.5t-24.5 59.5q0 27 25 51.5t53 24.5v0q47 0 72 -47q27 -47 -12 -88z M971 662q-25 -27 -56 -27q-33 0 -57 26.5t-24 59.5q0 27 24.5 51.5t52.5 24.5v0q47 0 72 -47q27 -47 -12 -88zM762 662q-25 -27 -55 -27q-33 0 -57.5 26.5t-24.5 59.5q0 27 24.5 51.5t52.5 24.5v0q47 0 72 -47q27 -47 -12 -88zM553 662q-25 -27 -55 -27q-33 0 -57.5 26.5 t-24.5 59.5q0 27 24.5 51.5t53.5 24.5v0q47 0 71 -47q27 -47 -12 -88zM1389 659q-25 -27 -56 -26q-33 0 -57.5 26.5t-24.5 59.5q0 27 24.5 51.5t53.5 24.5v0q47 0 72 -47q27 -48 -12 -89zM135 453q-25 -27 -55 -27q-33 0 -57.5 26.5t-24.5 57.5q0 29 25.5 53.5t52.5 24.5v0 q49 0 74 -45q24 -49 -15 -90zM1389 449q-25 -27 -56 -27q-33 0 -57.5 26.5t-24.5 57.5q0 29 26 53.5t52 24.5v0q49 0 74 -45q25 -49 -14 -90zM135 242q-25 -27 -55 -27q-33 0 -57.5 26.5t-24.5 57.5q0 29 25.5 53.5t52.5 24.5v0q49 0 74 -45q24 -49 -15 -90zM1389 238 q-25 -27 -56 -27q-33 0 -57.5 26.5t-24.5 57.5q0 29 26 53.5t52 24.5v0q49 0 74 -45q25 -49 -14 -90zM135 31q-25 -27 -55 -27q-33 0 -57.5 26.5t-24.5 57.5q0 29 25.5 53.5t52.5 24.5v0q49 0 74 -45q24 -49 -15 -90zM1389 27q-25 -27 -56 -27q-33 0 -57.5 26.5t-24.5 57.5 q0 29 26 53.5t52 24.5v0q49 0 74 -45q25 -49 -14 -90z" />
<glyph unicode="&#xc2;" d="M711 1679q-78 0 -78 80q0 78 78 78t77 -78q1 -80 -77 -80zM502 1473q-78 0 -78 79q0 78 78 78t78 -78q0 -79 -78 -79zM920 1470q-78 0 -78 80q0 78 78 78t77 -78q1 -80 -77 -80zM287 1262q-78 0 -78 79q0 78 78 78t78 -78q0 -79 -78 -79zM1122 1260q-78 0 -78 79 q0 78 78 78t78 -78q0 -79 -78 -79zM913 1260q-78 0 -77 79q0 78 77 78q78 0 78 -78q0 -79 -78 -79zM705 1260q-78 0 -78 79q0 78 78 78t77 -78q1 -79 -77 -79zM496 1260q-78 0 -78 79q0 78 78 78t77 -78q1 -79 -77 -79zM78 1053q-78 0 -78 80q0 78 78 77q78 0 78 -77 q0 -80 -78 -80zM1331 1049q-78 0 -78 79q0 78 78 78t78 -78q0 -79 -78 -79zM78 850q-78 0 -78 80q0 78 78 78t78 -78q0 -80 -78 -80zM1331 846q-78 0 -78 80q0 78 78 78t78 -78q0 -80 -78 -80zM287 639q-78 0 -78 80q0 78 76 78q80 0 80 -80q0 -78 -78 -78zM78 639 q-78 0 -78 80q0 78 76 78q80 0 80 -80q0 -78 -78 -78zM1122 637q-78 0 -78 80q0 78 76 78q80 0 80 -80q0 -78 -78 -78zM913 637q-78 0 -77 80q0 78 75 78q80 0 80 -80q0 -78 -78 -78zM705 637q-78 0 -78 80q0 78 75 78q80 0 80 -80q1 -78 -77 -78zM496 637q-78 0 -78 80 q0 78 76 78q80 0 79 -80q1 -78 -77 -78zM1331 635q-78 0 -78 80q0 78 76 78q80 0 80 -80q0 -78 -78 -78zM78 428q-78 0 -78 80q0 78 78 78t78 -78q0 -80 -78 -80zM1331 424q-78 0 -78 80q0 78 78 78t78 -78q0 -80 -78 -80zM78 217q-78 0 -78 80q0 78 78 78t78 -78 q0 -80 -78 -80zM1331 213q-78 0 -78 80q0 78 78 78t78 -78q0 -80 -78 -80zM78 6q-78 0 -78 80q0 78 78 78t78 -78q0 -80 -78 -80zM1331 2q-78 0 -78 80q0 78 78 78t78 -78q0 -80 -78 -80z" />
</font>
</defs>
</svg>
