<?xml version="1.0" encoding="utf-8"?>
<!-- Generator: Adobe Illustrator 23.0.0, SVG Export Plug-In . SVG Version: 6.00 Build 0)  -->
<svg version="1.1" id="Capa_2" xmlns="http://www.w3.org/2000/svg" xmlns:xlink="http://www.w3.org/1999/xlink" x="0px" y="0px"
	 viewBox="0 0 49.1 62.22" style="enable-background:new 0 0 49.1 62.22;" xml:space="preserve">
<style type="text/css">
	.st0{fill:#006D90;}
</style>
<g>
	<path class="st0" d="M48.48,15.04L34.06,0.63c-0.29-0.29-0.66-0.49-1.05-0.57c-0.01,0-0.01,0-0.02-0.01C32.85,0.02,32.7,0,32.55,0
		H2.21C0.99,0,0,0.99,0,2.21v57.79c0,1.22,0.99,2.21,2.21,2.21h44.68c1.22,0,2.21-0.99,2.21-2.21V16.55
		C49.1,15.98,48.88,15.44,48.48,15.04L48.48,15.04z M34.45,6.17L43,14.73h-8.55V6.17z M3.65,58.57V3.65H30.8v12.9
		c0,1.01,0.82,1.82,1.82,1.82h12.83v40.19H3.65z M3.65,58.57"/>
	<path class="st0" d="M39.77,28.65H16.46c-1.01,0-1.83,0.82-1.83,1.82c0,1.01,0.82,1.82,1.83,1.82h23.31c1.01,0,1.82-0.82,1.82-1.82
		C41.59,29.47,40.77,28.65,39.77,28.65L39.77,28.65z M39.77,28.65"/>
	<path class="st0" d="M39.77,37.02H16.46c-1.01,0-1.83,0.82-1.83,1.82c0,1.01,0.82,1.83,1.83,1.83h23.31c1.01,0,1.82-0.82,1.82-1.83
		C41.59,37.83,40.77,37.02,39.77,37.02L39.77,37.02z M39.77,37.02"/>
	<path class="st0" d="M39.77,45.39H16.46c-1.01,0-1.83,0.82-1.83,1.82c0,1.01,0.82,1.83,1.83,1.83h23.31c1.01,0,1.82-0.82,1.82-1.83
		C41.59,46.2,40.77,45.39,39.77,45.39L39.77,45.39z M39.77,45.39"/>
	<path class="st0" d="M11.12,30.12c-0.01-0.06-0.03-0.12-0.04-0.17c-0.02-0.06-0.04-0.11-0.06-0.17c-0.02-0.05-0.05-0.11-0.08-0.16
		c-0.03-0.05-0.06-0.1-0.09-0.15c-0.03-0.05-0.07-0.1-0.11-0.14c-0.04-0.05-0.08-0.09-0.12-0.13c-0.04-0.04-0.09-0.08-0.13-0.12
		c-0.05-0.04-0.09-0.07-0.14-0.11c-0.05-0.03-0.1-0.06-0.15-0.09c-0.05-0.03-0.11-0.05-0.16-0.08c-0.05-0.02-0.11-0.04-0.17-0.06
		c-0.06-0.02-0.12-0.03-0.17-0.04c-0.06-0.01-0.12-0.02-0.18-0.03c-0.12-0.01-0.24-0.01-0.36,0c-0.06,0.01-0.12,0.01-0.18,0.03
		c-0.06,0.01-0.12,0.03-0.17,0.04c-0.06,0.02-0.11,0.04-0.17,0.06c-0.06,0.02-0.11,0.05-0.16,0.08c-0.05,0.03-0.1,0.06-0.15,0.09
		c-0.05,0.03-0.1,0.07-0.14,0.11c-0.05,0.04-0.09,0.08-0.13,0.12C8,29.23,7.96,29.27,7.92,29.32c-0.04,0.05-0.07,0.09-0.11,0.14
		c-0.03,0.05-0.06,0.1-0.09,0.15c-0.03,0.05-0.05,0.11-0.08,0.16c-0.02,0.05-0.04,0.11-0.06,0.17C7.57,30,7.56,30.06,7.55,30.12
		c-0.01,0.06-0.02,0.12-0.03,0.18c-0.01,0.06-0.01,0.12-0.01,0.18c0,0.06,0,0.12,0.01,0.18c0,0.06,0.01,0.12,0.03,0.18
		c0.01,0.06,0.03,0.12,0.04,0.17c0.02,0.06,0.04,0.11,0.06,0.17c0.02,0.06,0.05,0.11,0.08,0.16c0.03,0.05,0.06,0.1,0.09,0.15
		c0.03,0.05,0.07,0.1,0.11,0.14c0.04,0.05,0.08,0.09,0.12,0.13c0.04,0.04,0.09,0.08,0.13,0.12c0.05,0.04,0.09,0.07,0.14,0.11
		c0.05,0.03,0.1,0.06,0.15,0.09c0.05,0.03,0.11,0.05,0.16,0.08c0.05,0.02,0.11,0.04,0.17,0.06c0.06,0.02,0.11,0.03,0.17,0.04
		c0.06,0.01,0.12,0.02,0.18,0.03c0.06,0.01,0.12,0.01,0.18,0.01c0.06,0,0.12,0,0.18-0.01c0.06-0.01,0.12-0.02,0.18-0.03
		c0.06-0.01,0.12-0.03,0.17-0.04c0.06-0.02,0.11-0.04,0.17-0.06c0.05-0.02,0.11-0.05,0.16-0.08c0.05-0.03,0.1-0.06,0.15-0.09
		c0.05-0.03,0.1-0.07,0.14-0.11c0.05-0.04,0.09-0.08,0.13-0.12c0.04-0.04,0.08-0.09,0.12-0.13c0.04-0.05,0.07-0.09,0.11-0.14
		c0.03-0.05,0.06-0.1,0.09-0.15c0.03-0.05,0.05-0.11,0.08-0.16c0.02-0.05,0.04-0.11,0.06-0.17c0.02-0.06,0.03-0.12,0.04-0.17
		c0.01-0.06,0.02-0.12,0.03-0.18c0.01-0.06,0.01-0.12,0.01-0.18c0-0.06,0-0.12-0.01-0.18C11.14,30.24,11.14,30.18,11.12,30.12
		L11.12,30.12z M11.12,30.12"/>
	<path class="st0" d="M11.12,38.49c-0.01-0.06-0.03-0.12-0.04-0.17c-0.02-0.06-0.04-0.11-0.06-0.17c-0.02-0.05-0.05-0.11-0.08-0.16
		c-0.03-0.05-0.06-0.1-0.09-0.15c-0.03-0.05-0.07-0.1-0.11-0.14c-0.04-0.05-0.08-0.09-0.12-0.13c-0.04-0.04-0.09-0.08-0.13-0.12
		c-0.05-0.04-0.09-0.07-0.14-0.11c-0.05-0.03-0.1-0.06-0.15-0.09c-0.05-0.03-0.11-0.05-0.16-0.08c-0.05-0.02-0.11-0.04-0.17-0.06
		c-0.06-0.02-0.12-0.03-0.17-0.04c-0.06-0.01-0.12-0.02-0.18-0.03c-0.12-0.01-0.24-0.01-0.36,0c-0.06,0.01-0.12,0.02-0.18,0.03
		c-0.06,0.01-0.12,0.03-0.17,0.04c-0.06,0.02-0.11,0.04-0.17,0.06c-0.06,0.02-0.11,0.05-0.16,0.08c-0.05,0.03-0.1,0.06-0.15,0.09
		c-0.05,0.03-0.1,0.07-0.14,0.11c-0.05,0.04-0.09,0.08-0.13,0.12C8,37.59,7.96,37.64,7.92,37.69c-0.04,0.05-0.07,0.09-0.11,0.14
		c-0.03,0.05-0.06,0.1-0.09,0.15c-0.03,0.05-0.05,0.11-0.08,0.16c-0.02,0.05-0.04,0.11-0.06,0.17c-0.02,0.06-0.03,0.11-0.04,0.17
		c-0.01,0.06-0.02,0.12-0.03,0.18c-0.01,0.06-0.01,0.12-0.01,0.18c0,0.06,0,0.12,0.01,0.18c0,0.06,0.01,0.12,0.03,0.18
		c0.01,0.06,0.03,0.12,0.04,0.17c0.02,0.06,0.04,0.11,0.06,0.17c0.02,0.05,0.05,0.11,0.08,0.16c0.03,0.05,0.06,0.1,0.09,0.15
		c0.03,0.05,0.07,0.1,0.11,0.14c0.04,0.05,0.08,0.09,0.12,0.13c0.04,0.04,0.09,0.08,0.13,0.12c0.05,0.04,0.09,0.07,0.14,0.11
		c0.05,0.03,0.1,0.06,0.15,0.09c0.05,0.03,0.11,0.05,0.16,0.08c0.05,0.02,0.11,0.04,0.17,0.06c0.06,0.02,0.11,0.03,0.17,0.04
		c0.06,0.01,0.12,0.02,0.18,0.03c0.06,0.01,0.12,0.01,0.18,0.01c0.06,0,0.12,0,0.18-0.01c0.06-0.01,0.12-0.02,0.18-0.03
		c0.06-0.01,0.12-0.03,0.17-0.04c0.06-0.02,0.11-0.04,0.17-0.06c0.05-0.02,0.11-0.05,0.16-0.08c0.05-0.03,0.1-0.06,0.15-0.09
		c0.05-0.03,0.1-0.07,0.14-0.11c0.05-0.04,0.09-0.08,0.13-0.12c0.04-0.04,0.08-0.09,0.12-0.13c0.04-0.05,0.07-0.09,0.11-0.14
		c0.03-0.05,0.06-0.1,0.09-0.15c0.03-0.05,0.05-0.11,0.08-0.16c0.02-0.05,0.04-0.11,0.06-0.17c0.02-0.06,0.03-0.12,0.04-0.17
		c0.01-0.06,0.02-0.12,0.03-0.18c0.01-0.06,0.01-0.12,0.01-0.18c0-0.06,0-0.12-0.01-0.18C11.14,38.6,11.14,38.54,11.12,38.49
		L11.12,38.49z M11.12,38.49"/>
	<path class="st0" d="M11.12,46.85c-0.01-0.06-0.03-0.12-0.04-0.17c-0.02-0.06-0.04-0.11-0.06-0.17c-0.02-0.05-0.05-0.11-0.08-0.16
		c-0.03-0.05-0.06-0.1-0.09-0.15c-0.03-0.05-0.07-0.1-0.11-0.14c-0.04-0.05-0.08-0.09-0.12-0.13c-0.04-0.04-0.09-0.08-0.13-0.12
		c-0.05-0.04-0.09-0.07-0.14-0.11c-0.05-0.03-0.1-0.06-0.15-0.09c-0.05-0.03-0.11-0.05-0.16-0.08c-0.05-0.02-0.11-0.04-0.17-0.06
		c-0.06-0.02-0.12-0.03-0.17-0.04c-0.06-0.01-0.12-0.02-0.18-0.03c-0.12-0.01-0.24-0.01-0.36,0c-0.06,0.01-0.12,0.02-0.18,0.03
		c-0.06,0.01-0.12,0.03-0.17,0.04c-0.06,0.02-0.11,0.04-0.17,0.06c-0.06,0.02-0.11,0.05-0.16,0.08c-0.05,0.03-0.1,0.06-0.15,0.09
		c-0.05,0.03-0.1,0.07-0.14,0.11c-0.05,0.04-0.09,0.08-0.13,0.12C8,45.96,7.96,46.01,7.92,46.05c-0.04,0.05-0.07,0.09-0.11,0.14
		c-0.03,0.05-0.06,0.1-0.09,0.15c-0.03,0.05-0.05,0.11-0.08,0.16c-0.02,0.05-0.04,0.11-0.06,0.17c-0.02,0.06-0.03,0.11-0.04,0.17
		c-0.01,0.06-0.02,0.12-0.03,0.18c-0.01,0.06-0.01,0.12-0.01,0.18c0,0.06,0,0.12,0.01,0.18c0,0.06,0.01,0.12,0.03,0.18
		c0.01,0.06,0.03,0.12,0.04,0.17c0.02,0.06,0.04,0.11,0.06,0.17c0.02,0.05,0.05,0.11,0.08,0.16c0.03,0.05,0.06,0.1,0.09,0.15
		c0.03,0.05,0.07,0.1,0.11,0.14C7.96,48.41,8,48.46,8.05,48.5c0.04,0.04,0.09,0.08,0.13,0.12c0.05,0.04,0.09,0.07,0.14,0.1
		c0.05,0.03,0.1,0.06,0.15,0.09c0.05,0.03,0.11,0.05,0.16,0.08c0.05,0.02,0.11,0.04,0.17,0.06c0.06,0.02,0.11,0.03,0.17,0.04
		c0.06,0.01,0.12,0.02,0.18,0.03c0.06,0.01,0.12,0.01,0.18,0.01c0.06,0,0.12,0,0.18-0.01c0.06,0,0.12-0.01,0.18-0.03
		c0.06-0.01,0.12-0.03,0.17-0.04c0.06-0.02,0.11-0.04,0.17-0.06c0.05-0.02,0.11-0.05,0.16-0.08c0.05-0.03,0.1-0.06,0.15-0.09
		c0.05-0.03,0.1-0.07,0.14-0.1c0.05-0.04,0.09-0.08,0.13-0.12c0.04-0.04,0.08-0.09,0.12-0.13c0.04-0.05,0.07-0.09,0.11-0.14
		c0.03-0.05,0.06-0.1,0.09-0.15c0.03-0.05,0.05-0.11,0.08-0.16c0.02-0.05,0.04-0.11,0.06-0.17c0.02-0.06,0.03-0.11,0.04-0.17
		c0.01-0.06,0.02-0.12,0.03-0.18c0.01-0.06,0.01-0.12,0.01-0.18c0-0.06,0-0.12-0.01-0.18C11.14,46.97,11.14,46.91,11.12,46.85
		L11.12,46.85z M11.12,46.85"/>
</g>
</svg>
