<?xml version="1.0" encoding="utf-8"?>
<!-- Generator: Adobe Illustrator 23.0.0, SVG Export Plug-In . SVG Version: 6.00 Build 0)  -->
<svg version="1.1" id="Capa_2" xmlns="http://www.w3.org/2000/svg" xmlns:xlink="http://www.w3.org/1999/xlink" x="0px" y="0px"
	 viewBox="0 0 62.21 62.22" style="enable-background:new 0 0 62.21 62.22;" xml:space="preserve">
<style type="text/css">
	.st0{fill:#006D90;}
</style>
<g>
	<path class="st0" d="M62.21,29.85c-0.19-8.14-3.53-15.72-9.4-21.36c-5.87-5.62-13.58-8.64-21.7-8.49
		C22.98-0.15,15.27,2.87,9.4,8.49C3.53,14.12,0.19,21.71,0,29.85l0,0.03v0.03c0.04,8.29,3.59,16.18,9.76,21.71v7.52
		c0,1.46,1.02,2.73,2.42,3.02c0.21,0.04,0.42,0.07,0.63,0.07c0.56,0,1.12-0.16,1.61-0.46l6.04-3.78c3.41,1.19,6.97,1.8,10.58,1.8
		h0.05c0.2,0,0.4,0.01,0.6,0.01c7.91,0,15.39-3,21.12-8.49c5.88-5.63,9.22-13.22,9.4-21.36l0-0.04L62.21,29.85z M50.28,48.65
		c-5.18,4.96-11.97,7.61-19.14,7.47l-0.02,0H31.1c-3.36,0.01-6.67-0.58-9.83-1.74c-0.78-0.29-1.63-0.2-2.34,0.24l-5.52,3.45v-6.92
		c0-0.77-0.34-1.51-0.92-2.01C6.92,44.3,3.69,37.29,3.65,29.91c0.17-7.16,3.11-13.83,8.28-18.78C17.1,6.17,23.9,3.51,31.07,3.65
		l0.04,0l0.04,0c7.17-0.14,13.97,2.51,19.14,7.47c5.17,4.95,8.1,11.61,8.28,18.76C58.39,37.04,55.45,43.7,50.28,48.65L50.28,48.65z
		 M50.28,48.65"/>
	<path class="st0" d="M44.47,21.18H17.74c-1.01,0-1.82,0.82-1.82,1.82c0,1.01,0.82,1.82,1.82,1.82h26.73c1.01,0,1.83-0.82,1.83-1.82
		C46.3,21.99,45.48,21.18,44.47,21.18L44.47,21.18z M44.47,21.18"/>
	<path class="st0" d="M44.47,29.25H17.74c-1.01,0-1.82,0.82-1.82,1.82c0,1.01,0.82,1.82,1.82,1.82h26.73c1.01,0,1.83-0.82,1.83-1.82
		C46.3,30.06,45.48,29.25,44.47,29.25L44.47,29.25z M44.47,29.25"/>
	<path class="st0" d="M44.47,37.32H31.33c-1.01,0-1.82,0.82-1.82,1.83c0,1.01,0.82,1.82,1.82,1.82h13.14c1.01,0,1.83-0.82,1.83-1.82
		C46.3,38.13,45.48,37.32,44.47,37.32L44.47,37.32z M44.47,37.32"/>
</g>
</svg>
