<?xml version="1.0" encoding="utf-8"?>
<!-- Generator: Adobe Illustrator 19.0.0, SVG Export Plug-In . SVG Version: 6.00 Build 0)  -->
<svg version="1.1" id="Layer_1" xmlns="http://www.w3.org/2000/svg" xmlns:xlink="http://www.w3.org/1999/xlink" x="0px" y="0px"
	 viewBox="-947 526 24 24" style="enable-background:new -947 526 24 24;" xml:space="preserve">
<style type="text/css">
	.st0{fill:#006288;}
	.st1{fill:#FFFFFF;}
</style>
<title>Artboard 37</title>
<path class="st0" d="M-935,550c-6.6,0-12-5.4-12-12c0-6.6,5.4-12,12-12c6.6,0,12,5.4,12,12C-923,544.6-928.4,550-935,550z"/>
<path class="st1" d="M-937,543c-0.3,0-0.5-0.1-0.7-0.3l-4-4c-0.4-0.4-0.4-1,0-1.4s1-0.4,1.4,0l3.3,3.3l7.3-7.3c0.4-0.4,1-0.4,1.4,0
	s0.4,1,0,1.4l-8,8C-936.5,542.9-936.7,543-937,543z"/>
</svg>
