<?xml version="1.0" encoding="utf-8"?>
<!-- Generator: Adobe Illustrator 23.0.0, SVG Export Plug-In . SVG Version: 6.00 Build 0)  -->
<svg version="1.1" id="Capa_2" xmlns="http://www.w3.org/2000/svg" xmlns:xlink="http://www.w3.org/1999/xlink" x="0px" y="0px"
	 viewBox="0 0 120.47 120.47" style="enable-background:new 0 0 120.47 120.47;" xml:space="preserve">
<style type="text/css">
	.st0{fill:#006D90;}
	.st1{fill:#E4E0E0;}
</style>
<g>
	<path class="st0" d="M91.34,58.98c-0.19-8.14-3.53-15.72-9.4-21.36c-5.87-5.62-13.58-8.64-21.7-8.49
		c-8.13-0.15-15.83,2.86-21.7,8.49c-5.88,5.63-9.22,13.22-9.4,21.36l0,0.03v0.03c0.04,8.29,3.59,16.18,9.76,21.71v7.52
		c0,1.46,1.02,2.73,2.42,3.02c0.21,0.04,0.42,0.07,0.63,0.07c0.56,0,1.12-0.16,1.61-0.46l6.04-3.78c3.41,1.19,6.97,1.8,10.58,1.8
		h0.05c0.2,0,0.4,0.01,0.6,0.01c7.91,0,15.39-3,21.12-8.49c5.88-5.63,9.22-13.22,9.4-21.36l0-0.04L91.34,58.98z M79.41,77.78
		c-5.18,4.96-11.97,7.61-19.14,7.47l-0.02,0h-0.02c-3.36,0.01-6.67-0.58-9.83-1.74c-0.78-0.29-1.63-0.2-2.34,0.24l-5.52,3.45v-6.92
		c0-0.77-0.34-1.51-0.92-2.01c-5.57-4.84-8.79-11.86-8.84-19.24c0.17-7.16,3.11-13.83,8.28-18.78c5.18-4.96,11.98-7.61,19.14-7.47
		l0.04,0l0.04,0c7.17-0.14,13.97,2.51,19.14,7.47c5.17,4.95,8.1,11.61,8.28,18.76C87.52,66.17,84.58,72.83,79.41,77.78L79.41,77.78z
		 M79.41,77.78"/>
	<path class="st0" d="M73.6,50.3H46.87c-1.01,0-1.82,0.82-1.82,1.82c0,1.01,0.82,1.82,1.82,1.82H73.6c1.01,0,1.83-0.82,1.83-1.82
		C75.43,51.12,74.61,50.3,73.6,50.3L73.6,50.3z M73.6,50.3"/>
	<path class="st0" d="M73.6,58.37H46.87c-1.01,0-1.82,0.82-1.82,1.82c0,1.01,0.82,1.82,1.82,1.82H73.6c1.01,0,1.83-0.82,1.83-1.82
		C75.43,59.19,74.61,58.37,73.6,58.37L73.6,58.37z M73.6,58.37"/>
	<path class="st0" d="M73.6,66.44H60.46c-1.01,0-1.82,0.82-1.82,1.83c0,1.01,0.82,1.82,1.82,1.82H73.6c1.01,0,1.83-0.82,1.83-1.82
		C75.43,67.26,74.61,66.44,73.6,66.44L73.6,66.44z M73.6,66.44"/>
</g>
<path class="st1" d="M60.24,0C26.97,0,0,26.97,0,60.24c0,33.27,26.97,60.23,60.24,60.23s60.24-26.97,60.24-60.23
	C120.47,26.97,93.5,0,60.24,0z M60.24,116.93c-31.26,0-56.69-25.43-56.69-56.69c0-31.26,25.43-56.69,56.69-56.69
	c31.26,0,56.69,25.43,56.69,56.69C116.93,91.5,91.5,116.93,60.24,116.93z"/>
</svg>
