<?xml version="1.0" encoding="utf-8"?>
<!-- Generator: Adobe Illustrator 23.0.0, SVG Export Plug-In . SVG Version: 6.00 Build 0)  -->
<svg version="1.1" id="Capa_2" xmlns="http://www.w3.org/2000/svg" xmlns:xlink="http://www.w3.org/1999/xlink" x="0px" y="0px"
	 viewBox="0 0 120.47 120.47" style="enable-background:new 0 0 120.47 120.47;" xml:space="preserve">
<style type="text/css">
	.st0{fill:#006D90;}
	.st1{fill:#E4E0E0;}
</style>
<g>
	<g>
		<path class="st0" d="M59.84,61.33c4.12,0,7.68-1.48,10.6-4.39c2.91-2.91,4.39-6.48,4.39-10.6c0-4.12-1.48-7.68-4.39-10.59
			c-2.91-2.91-6.48-4.39-10.59-4.39c-4.12,0-7.68,1.48-10.6,4.39c-2.91,2.91-4.39,6.48-4.39,10.59c0,4.12,1.48,7.68,4.39,10.6
			C52.16,59.86,55.73,61.33,59.84,61.33L59.84,61.33z M51.83,38.33c2.24-2.24,4.86-3.32,8.02-3.32c3.16,0,5.78,1.09,8.02,3.32
			c2.24,2.24,3.32,4.86,3.32,8.02c0,3.16-1.09,5.78-3.32,8.02c-2.24,2.24-4.86,3.32-8.02,3.32c-3.16,0-5.78-1.09-8.02-3.32
			c-2.24-2.24-3.32-4.86-3.32-8.02C48.5,43.19,49.59,40.57,51.83,38.33L51.83,38.33z M51.83,38.33"/>
		<path class="st0" d="M86.06,79.2c-0.08-1.21-0.25-2.53-0.5-3.93c-0.25-1.41-0.58-2.74-0.97-3.95c-0.4-1.26-0.95-2.5-1.63-3.69
			c-0.7-1.23-1.52-2.31-2.45-3.19c-0.97-0.93-2.15-1.67-3.52-2.21c-1.36-0.54-2.88-0.81-4.49-0.81c-0.64,0-1.25,0.26-2.44,1.03
			c-0.73,0.48-1.58,1.03-2.54,1.64c-0.82,0.52-1.92,1.01-3.28,1.45c-1.33,0.43-2.68,0.65-4.02,0.65c-1.33,0-2.68-0.22-4.02-0.65
			c-1.36-0.44-2.47-0.93-3.28-1.45c-0.94-0.6-1.8-1.15-2.54-1.64c-1.19-0.77-1.8-1.03-2.43-1.03c-1.62,0-3.13,0.27-4.49,0.81
			c-1.37,0.54-2.55,1.29-3.52,2.21c-0.92,0.88-1.75,1.96-2.45,3.19c-0.68,1.19-1.22,2.43-1.62,3.69c-0.39,1.22-0.71,2.55-0.97,3.95
			c-0.25,1.39-0.42,2.72-0.5,3.93c-0.08,1.19-0.12,2.42-0.12,3.67c0,3.25,1.03,5.88,3.07,7.82c2.01,1.91,4.67,2.88,7.91,2.88h29.96
			c3.23,0,5.89-0.97,7.91-2.88c2.04-1.94,3.07-4.57,3.07-7.82C86.19,81.63,86.15,80.39,86.06,79.2L86.06,79.2z M80.61,88.05
			c-1.33,1.26-3.09,1.88-5.39,1.88H45.26c-2.3,0-4.06-0.61-5.39-1.88c-1.3-1.24-1.94-2.93-1.94-5.17c0-1.17,0.04-2.32,0.12-3.42
			c0.07-1.08,0.23-2.28,0.46-3.54c0.22-1.25,0.51-2.42,0.85-3.48c0.33-1.02,0.77-2.03,1.32-3c0.53-0.93,1.13-1.72,1.8-2.36
			c0.62-0.6,1.41-1.09,2.34-1.46c0.86-0.34,1.82-0.53,2.87-0.55c0.13,0.07,0.36,0.2,0.72,0.44c0.75,0.49,1.61,1.05,2.57,1.66
			c1.08,0.69,2.46,1.31,4.12,1.84c1.69,0.55,3.42,0.83,5.14,0.83c1.71,0,3.44-0.28,5.14-0.83c1.66-0.54,3.05-1.16,4.12-1.84
			c0.98-0.62,1.82-1.17,2.57-1.65c0.37-0.24,0.6-0.37,0.72-0.44c1.05,0.03,2.01,0.21,2.87,0.55c0.93,0.37,1.72,0.86,2.34,1.46
			c0.67,0.64,1.27,1.43,1.8,2.36c0.55,0.97,1,1.98,1.32,3c0.34,1.06,0.63,2.24,0.85,3.48c0.23,1.27,0.38,2.46,0.46,3.54v0
			c0.08,1.1,0.12,2.25,0.12,3.42C82.54,85.12,81.91,86.81,80.61,88.05L80.61,88.05z M80.61,88.05"/>
	</g>
	<path class="st0" d="M78.82,41.81c-0.12,0-0.24,0.02-0.36,0.05c-0.74-3.53-2.46-6.68-5.16-9.38c-3.7-3.7-8.23-5.58-13.47-5.58
		s-9.76,1.88-13.47,5.58c-2.7,2.7-4.42,5.85-5.16,9.38c-0.11-0.03-0.23-0.05-0.36-0.05c-0.83,0-1.5,0.67-1.5,1.5v6.08
		c0,0.83,0.67,1.5,1.5,1.5c0.26,0,0.5-0.07,0.72-0.19c0.21,0.12,0.46,0.19,0.72,0.19c0.67,0,1.24-0.45,1.43-1.06
		c2.59,2.19,7.28,4.69,15.18,4.69c0.83,0,1.5-0.67,1.5-1.5s-0.67-1.5-1.5-1.5c-10.5,0-14.3-4.76-15.11-5.98
		c0.09-4.24,1.67-7.92,4.7-10.94c3.12-3.12,6.94-4.7,11.35-4.7s8.23,1.58,11.35,4.7c3.12,3.12,4.7,6.94,4.7,11.35v3.45
		c0,0.83,0.67,1.5,1.5,1.5c0.26,0,0.5-0.07,0.72-0.19c0.21,0.12,0.46,0.19,0.72,0.19c0.83,0,1.5-0.67,1.5-1.5v-6.08
		C80.32,42.48,79.65,41.81,78.82,41.81z"/>
</g>
<path class="st1" d="M60.24,0C26.97,0,0,26.97,0,60.24c0,33.27,26.97,60.23,60.24,60.23s60.24-26.97,60.24-60.23
	C120.47,26.97,93.5,0,60.24,0z M60.24,116.93c-31.26,0-56.69-25.43-56.69-56.69c0-31.26,25.43-56.69,56.69-56.69
	c31.26,0,56.69,25.43,56.69,56.69C116.93,91.5,91.5,116.93,60.24,116.93z"/>
</svg>
